<svg width="50" height="71" viewBox="0 0 50 71" fill="none" xmlns="http://www.w3.org/2000/svg">
<path d="M44.1605 57.56C45.7605 57.56 47.0245 58.008 47.9525 58.904C48.8805 59.768 49.3445 60.92 49.3445 62.36V71H0.1925V66.2C0.1925 65.272 0.3845 64.28 0.7685 63.224C1.1525 62.168 1.8245 61.208 2.7845 60.344L22.9445 40.04C24.6725 38.312 26.1765 36.664 27.4565 35.096C28.7365 33.528 29.7925 31.992 30.6245 30.488C31.4565 28.952 32.0805 27.432 32.4965 25.928C32.9125 24.392 33.1205 22.776 33.1205 21.08C33.1205 18.296 32.4485 16.168 31.1045 14.696C29.7925 13.192 27.7765 12.44 25.0565 12.44C22.8485 12.44 20.9765 13.032 19.4405 14.216C17.9365 15.368 16.8965 16.808 16.3205 18.536C15.6485 20.296 14.7685 21.464 13.6805 22.04C12.5925 22.616 11.0405 22.744 9.0245 22.424L1.1525 21.032C1.6645 17.544 2.6405 14.504 4.0805 11.912C5.5525 9.32 7.3605 7.16 9.5045 5.432C11.6805 3.704 14.1605 2.424 16.9445 1.592C19.7285 0.727997 22.7205 0.295998 25.9205 0.295998C29.3765 0.295998 32.4805 0.807997 35.2325 1.832C38.0165 2.824 40.3845 4.216 42.3365 6.008C44.2885 7.8 45.7765 9.944 46.8005 12.44C47.8565 14.904 48.3845 17.624 48.3845 20.6C48.3845 23.16 48.0165 25.528 47.2805 27.704C46.5765 29.88 45.6005 31.96 44.3525 33.944C43.1045 35.896 41.6485 37.8 39.9845 39.656C38.3525 41.48 36.6085 43.336 34.7525 45.224L21.0725 59.24C22.8325 58.696 24.5765 58.28 26.3045 57.992C28.0325 57.704 29.6325 57.56 31.1045 57.56H44.1605Z" fill="#EFC6C0"/>
</svg>
