<svg width="51" height="72" viewBox="0 0 51 72" fill="none" xmlns="http://www.w3.org/2000/svg">
<path d="M2.5365 21.032C3.0485 17.544 4.0245 14.504 5.4645 11.912C6.9365 9.32 8.7445 7.16 10.8885 5.432C13.0645 3.704 15.5445 2.424 18.3285 1.592C21.1125 0.727997 24.1045 0.295998 27.3045 0.295998C30.7605 0.295998 33.8325 0.791998 36.5205 1.784C39.2085 2.744 41.4805 4.056 43.3365 5.72C45.1925 7.384 46.6005 9.32 47.5605 11.528C48.5205 13.704 49.0005 16.008 49.0005 18.44C49.0005 20.648 48.7765 22.6 48.3285 24.296C47.8805 25.96 47.2085 27.416 46.3125 28.664C45.4485 29.88 44.3605 30.92 43.0485 31.784C41.7685 32.616 40.2965 33.32 38.6325 33.896C46.3765 36.616 50.2485 41.896 50.2485 49.736C50.2485 53.448 49.5765 56.68 48.2325 59.432C46.8885 62.184 45.0805 64.472 42.8085 66.296C40.5685 68.12 37.9605 69.496 34.9845 70.424C32.0085 71.32 28.9045 71.768 25.6725 71.768C22.3445 71.768 19.3845 71.416 16.7925 70.712C14.2005 69.976 11.8965 68.856 9.8805 67.352C7.8645 65.816 6.0885 63.864 4.5525 61.496C3.0485 59.128 1.7365 56.312 0.6165 53.048L7.2405 50.36C8.9685 49.688 10.5685 49.512 12.0405 49.832C13.5125 50.152 14.5685 50.888 15.2085 52.04C16.6485 54.696 18.1685 56.632 19.7685 57.848C21.4005 59.032 23.3045 59.624 25.4805 59.624C27.1445 59.624 28.5845 59.352 29.8005 58.808C31.0485 58.232 32.0725 57.512 32.8725 56.648C33.7045 55.752 34.3285 54.744 34.7445 53.624C35.1605 52.504 35.3685 51.368 35.3685 50.216C35.3685 48.712 35.2565 47.368 35.0325 46.184C34.8405 44.968 34.2645 43.928 33.3045 43.064C32.3445 42.2 30.8885 41.544 28.9365 41.096C27.0165 40.616 24.3285 40.376 20.8725 40.376V30.104C23.7845 30.104 26.1365 29.88 27.9285 29.432C29.7205 28.984 31.0965 28.376 32.0565 27.608C33.0485 26.808 33.7045 25.848 34.0245 24.728C34.3445 23.608 34.5045 22.376 34.5045 21.032C34.5045 18.28 33.8325 16.168 32.4885 14.696C31.1765 13.192 29.1605 12.44 26.4405 12.44C24.2325 12.44 22.3605 13.032 20.8245 14.216C19.3205 15.368 18.2805 16.808 17.7045 18.536C17.0325 20.296 16.1525 21.464 15.0645 22.04C13.9765 22.616 12.4245 22.744 10.4085 22.424L2.5365 21.032Z" fill="#00AFB9"/>
</svg>
