<svg width="603" height="552" viewBox="0 0 603 552" fill="none" xmlns="http://www.w3.org/2000/svg">
<path d="M301.5 551.95C468.014 551.95 603 484.012 603 400.207C603 316.402 468.014 248.464 301.5 248.464C134.986 248.464 0 316.402 0 400.207C0 484.012 134.986 551.95 301.5 551.95Z" fill="#FAFAFA"/>
<path d="M473.383 498.165C518.751 498.165 555.529 475.831 555.529 448.28C555.529 420.729 518.751 398.394 473.383 398.394C428.015 398.394 391.237 420.729 391.237 448.28C391.237 475.831 428.015 498.165 473.383 498.165Z" fill="#E0E0E0"/>
<path d="M278.383 358.766L225.746 328.9C224.872 328.459 223.905 328.23 222.923 328.23C221.941 328.23 220.973 328.459 220.099 328.9L45.6393 427.938C45.2974 428.05 45.0001 428.265 44.7894 428.553C44.5787 428.84 44.4654 429.186 44.4654 429.54C44.4654 429.894 44.5787 430.24 44.7894 430.527C45.0001 430.815 45.2974 431.03 45.6393 431.142L98.2641 461.021C99.1407 461.452 100.107 461.676 101.087 461.676C102.067 461.676 103.034 461.452 103.911 461.021L119.461 452.191L262.821 371.036L278.396 362.032C278.748 361.921 279.055 361.702 279.272 361.408C279.489 361.113 279.606 360.758 279.604 360.395C279.603 360.031 279.484 359.677 279.264 359.385C279.045 359.092 278.736 358.875 278.383 358.766Z" fill="#E0E0E0"/>
<path d="M515.006 429.726L506.871 425.479C506.871 425.479 507.666 386.435 515.903 356.196C524.341 325.236 548.897 291.035 572.102 303.851C595.307 316.667 554.064 343.007 541.659 368.428C529.255 393.849 515.006 429.726 515.006 429.726Z" fill="#BCE7FD"/>
<path opacity="0.15" d="M515.006 429.726L506.871 425.479C506.871 425.479 507.666 386.435 515.903 356.196C524.341 325.236 548.897 291.035 572.102 303.851C595.307 316.667 554.064 343.007 541.659 368.428C529.255 393.849 515.006 429.726 515.006 429.726Z" fill="black"/>
<path d="M513.932 420.462C513.824 420.459 513.718 420.435 513.619 420.391C513.521 420.348 513.432 420.285 513.359 420.208C513.285 420.131 513.227 420.04 513.189 419.941C513.151 419.842 513.133 419.736 513.136 419.63C514.879 359.04 541.823 322.045 564.371 308.781C564.559 308.671 564.783 308.639 564.995 308.691C565.207 308.743 565.39 308.876 565.502 309.061C565.614 309.245 565.647 309.466 565.594 309.674C565.541 309.883 565.405 310.062 565.218 310.172C543.023 323.224 516.509 359.735 514.778 419.667C514.777 419.774 514.753 419.88 514.71 419.978C514.666 420.076 514.603 420.165 514.524 420.239C514.446 420.313 514.353 420.371 514.251 420.409C514.149 420.447 514.041 420.465 513.932 420.462Z" fill="white"/>
<path d="M518.682 431.589L511.418 427.925C511.418 427.925 512.315 408.751 527.259 383.765C540.522 361.573 567.403 344.187 578.696 350.384C587.463 355.177 589.484 365.683 581.083 372.675C572.683 379.667 533.903 394.333 518.682 431.589Z" fill="#BCE7FD"/>
<path d="M515.764 425.467C517.027 425.715 517.469 422.648 517.722 421.865C518.202 420.4 518.707 418.959 519.263 417.519C520.351 414.717 521.586 411.973 522.964 409.298C525.617 404.152 528.723 399.244 532.248 394.631C535.543 390.313 539.134 386.222 542.998 382.387C546.485 378.938 550.153 375.671 553.988 372.601C557.196 370.018 560.531 367.571 563.955 365.274C566.481 363.585 569.007 361.97 571.647 360.455C573.024 359.661 574.401 358.878 575.829 358.158L576.233 357.959C576.459 357.851 576.632 357.658 576.714 357.424C576.795 357.19 576.779 356.933 576.669 356.711C576.558 356.489 576.362 356.319 576.124 356.238C575.886 356.158 575.625 356.174 575.399 356.283C574.515 356.705 573.669 357.177 572.873 357.649C570.65 358.891 568.477 360.132 566.342 361.523C563.176 363.535 560.085 365.663 557.07 367.907C553.331 370.688 549.739 373.64 546.295 376.761C542.369 380.296 538.673 384.07 535.229 388.062C531.496 392.365 528.117 396.954 525.124 401.784C521.94 406.897 519.274 412.304 517.166 417.929C516.77 419.013 516.391 420.094 516.029 421.17C515.498 422.244 515.176 423.407 515.081 424.597C515.097 424.787 515.165 424.968 515.279 425.121C515.393 425.275 515.547 425.394 515.726 425.467H515.764Z" fill="white"/>
<path d="M103.544 395.675C103.544 395.675 103.746 371.322 94.0072 351.166C84.2679 331.011 69.0337 317.375 53.5848 314.258C38.1359 311.141 23.8871 323.684 39.2981 335.37C54.7091 347.056 83.0173 360.58 92.0618 398.431L103.544 395.675Z" fill="#BCE7FD"/>
<path opacity="0.15" d="M103.544 395.675C103.544 395.675 103.746 371.322 94.0072 351.166C84.2679 331.011 69.0337 317.375 53.5848 314.258C38.1359 311.141 23.8871 323.684 39.2981 335.37C54.7091 347.056 83.0173 360.58 92.0618 398.431L103.544 395.675Z" fill="black"/>
<path d="M97.102 391.464C96.9409 391.465 96.7857 391.404 96.6683 391.296C96.5509 391.187 96.4801 391.039 96.4704 390.881C94.0956 351.899 61.4294 326.552 45.2857 322.231C45.1254 322.187 44.9891 322.083 44.9063 321.941C44.8235 321.8 44.801 321.631 44.8436 321.473C44.888 321.312 44.9952 321.175 45.1418 321.092C45.2884 321.008 45.4627 320.984 45.6268 321.026C62.0483 325.435 95.3209 351.203 97.7336 390.806C97.7376 390.969 97.6786 391.128 97.5684 391.25C97.4583 391.372 97.3052 391.449 97.1399 391.464H97.102Z" fill="white"/>
<path d="M105.54 429.105C108.67 425.223 110.769 420.638 111.651 415.761C112.533 410.884 112.17 405.868 110.593 401.163C109.676 398.322 108.209 395.683 106.273 393.389C104.719 391.589 102.483 390.657 100.664 389.155C96.7483 385.963 92.2008 382.573 90.786 377.506C89.6492 373.47 89.8892 369.645 87.6154 365.857C86.2757 363.485 84.1422 361.642 81.5773 360.641C78.2298 359.4 74.5413 360.219 71.0044 360.641C65.9516 361.2 62.162 359.486 57.7913 357.201C52.9785 354.718 47.3573 352.756 42.1403 354.283C40.4436 354.777 38.8714 355.616 37.5257 356.746C36.18 357.876 35.0908 359.271 34.3286 360.841C33.5664 362.411 33.1482 364.121 33.1013 365.86C33.0543 367.599 33.3795 369.329 34.0558 370.936C35.218 373.718 37.3654 375.978 38.9444 378.561C40.5234 381.145 41.3571 384.1 40.2076 386.919C39.3234 389.006 37.6812 390.645 37.0243 392.768C35.1548 398.357 36.2033 403.324 41.8498 406.205C47.7489 409.173 57.0081 406.938 59.964 414.228C61.0756 416.997 61.1135 420.064 61.7199 422.983C62.9644 428.856 66.4379 434.043 71.4338 437.488C78.2172 442.12 87.4259 440.99 94.4619 437.761C98.7846 435.755 102.576 432.792 105.54 429.105Z" fill="#BCE7FD"/>
<path d="M52.3596 393.836C52.4976 393.859 52.6395 393.838 52.7638 393.774C57.7391 391.883 63.0785 391.099 68.3987 391.477C73.719 391.855 78.8882 393.386 83.5354 395.96C83.6945 396.044 83.881 396.062 84.0538 396.011C84.2267 395.959 84.3718 395.843 84.4575 395.687C84.5018 395.61 84.5302 395.526 84.5408 395.439C84.5515 395.351 84.5442 395.263 84.5195 395.178C84.4948 395.094 84.4531 395.015 84.3969 394.947C84.3406 394.878 84.2711 394.822 84.1922 394.78C79.3641 392.114 73.9951 390.534 68.4713 390.151C62.9475 389.769 57.4062 390.595 52.2459 392.57C52.1245 392.635 52.0263 392.735 51.9643 392.857C51.9022 392.979 51.8792 393.116 51.8984 393.251C51.9176 393.385 51.9781 393.511 52.0717 393.611C52.1653 393.712 52.2878 393.781 52.4227 393.811L52.3596 393.836Z" fill="white"/>
<path d="M96.4704 429.316C96.305 429.32 96.1449 429.259 96.0244 429.148C95.904 429.036 95.8328 428.883 95.8262 428.72C94.6514 400.654 65.9895 370.974 46.7763 362.902C46.6987 362.871 46.6282 362.824 46.5689 362.766C46.5096 362.708 46.4627 362.638 46.431 362.562C46.3993 362.486 46.3833 362.404 46.384 362.322C46.3847 362.239 46.4021 362.158 46.4352 362.082C46.5044 361.929 46.6322 361.81 46.7907 361.749C46.9493 361.689 47.1257 361.692 47.2816 361.759C66.7979 369.98 95.902 400.158 97.102 428.696C97.1054 428.779 97.0921 428.862 97.0628 428.94C97.0335 429.018 96.9888 429.09 96.9314 429.151C96.8739 429.212 96.8047 429.261 96.7278 429.296C96.6508 429.331 96.5677 429.351 96.4831 429.354L96.4704 429.316Z" fill="white"/>
<path d="M254.673 28.2825L111.705 109.401C110.289 110.309 109.112 111.535 108.271 112.977C107.43 114.419 106.949 116.036 106.867 117.696V448.689C106.867 451.72 109.039 452.949 111.705 451.422L254.673 370.278C256.079 369.372 257.25 368.153 258.09 366.721C258.93 365.289 259.417 363.683 259.511 362.032V30.9898C259.511 27.9596 257.339 26.7178 254.673 28.2825ZM252.551 337.506C252.551 340.101 250.694 341.753 248.408 343.044L117.49 417.382C115.216 418.624 113.347 417.631 113.347 415.023V139.764C113.347 138.341 113.729 136.943 114.454 135.711C115.18 134.479 116.222 133.457 117.477 132.748L248.395 58.3976C248.815 58.1577 249.292 58.0308 249.778 58.0297C250.264 58.0285 250.741 58.1532 251.163 58.3911C251.584 58.629 251.934 58.9718 252.178 59.385C252.421 59.7981 252.55 60.2671 252.551 60.7447V337.506Z" fill="#455A64"/>
<path d="M252.551 337.506C252.551 340.101 250.694 341.753 248.408 343.044L117.49 417.382C115.216 418.624 113.347 417.631 113.347 415.023V139.764C113.347 138.341 113.729 136.943 114.455 135.711C115.18 134.479 116.222 133.457 117.477 132.748L248.395 58.3976C248.815 58.1577 249.292 58.0308 249.778 58.0297C250.264 58.0285 250.741 58.1532 251.163 58.3911C251.584 58.629 251.934 58.9718 252.178 59.385C252.422 59.7981 252.55 60.2671 252.551 60.7447V337.506Z" fill="#263238"/>
<path d="M117.49 417.382L248.408 343.069C249.327 342.581 250.176 341.975 250.934 341.269L113.347 265.093V415.023C113.347 417.631 115.216 418.674 117.49 417.382Z" fill="#37474F"/>
<path d="M241.953 332.675V62.0612L117.477 132.748C116.222 133.457 115.18 134.479 114.455 135.711C113.729 136.943 113.347 138.341 113.347 139.764V408.863L237.81 338.214C240.096 336.922 241.953 335.27 241.953 332.675Z" fill="#BCE7FD"/>
<path d="M111.098 451.757C109.655 452.355 108.096 452.639 106.53 452.587C104.964 452.536 103.428 452.151 102.028 451.459L96.4957 448.317C95.0838 447.418 93.9083 446.203 93.0653 444.772C92.2222 443.341 91.7355 441.735 91.645 440.083V109.003C91.6769 107.776 91.9604 106.568 92.4787 105.452C92.6556 105.067 92.8451 104.694 93.0598 104.309L108.218 113.002C107.9 113.562 107.621 114.143 107.384 114.741C107.016 115.681 106.816 116.677 106.791 117.684V448.689C106.867 451.484 108.711 452.75 111.098 451.757Z" fill="#263238"/>
<path d="M187.459 385.069C190.553 385.069 190.882 388.484 190.882 389.95C190.697 392.886 189.821 395.739 188.324 398.287C186.827 400.834 184.749 403.005 182.254 404.628C181.253 405.254 180.104 405.613 178.919 405.671C175.824 405.671 175.496 402.256 175.496 400.791C175.682 397.855 176.557 395.001 178.052 392.452C179.546 389.904 181.62 387.73 184.111 386.1C185.121 385.484 186.272 385.13 187.459 385.069Z" fill="#BCE7FD"/>
<path d="M183.088 74.1195C184.351 73.3744 185.45 73.9705 185.45 75.4607C185.404 76.2664 185.167 77.0502 184.756 77.749C184.346 78.4479 183.775 79.0423 183.088 79.4843C181.825 80.217 180.713 79.6209 180.713 78.1431C180.756 77.3355 180.994 76.5495 181.407 75.8499C181.82 75.1503 182.396 74.5573 183.088 74.1195Z" fill="#263238"/>
<path d="M167.828 93.7284C168.991 93.0703 169.925 93.6043 169.925 94.9703C169.887 95.6849 169.677 96.3805 169.312 97C168.948 97.6195 168.439 98.1453 167.828 98.5345C166.666 99.1927 165.732 98.6587 165.732 97.2926C165.772 96.5784 165.983 95.8836 166.347 95.2645C166.712 94.6453 167.219 94.1191 167.828 93.7284Z" fill="#263238"/>
<path d="M174.839 89.6552L198.322 76.3301C199.585 75.5974 200.646 76.119 200.646 77.485C200.585 78.2521 200.343 78.9947 199.939 79.6542C199.536 80.3136 198.982 80.8719 198.322 81.2851L174.839 94.6102C173.576 95.3429 172.515 94.8214 172.515 93.4553C172.576 92.6882 172.818 91.9456 173.222 91.2861C173.625 90.6267 174.179 90.0684 174.839 89.6552Z" fill="#263238"/>
<path d="M259.461 30.2322C259.107 27.7485 257.099 26.8667 254.686 28.2452L111.692 109.401C110.261 110.274 109.086 111.498 108.281 112.952L93.123 104.259C93.94 102.816 95.1183 101.603 96.5462 100.733L239.452 19.5894C240.951 18.8421 242.609 18.4526 244.29 18.4526C245.971 18.4526 247.628 18.8421 249.128 19.5894L254.686 22.7189C255.981 23.5637 257.077 24.6712 257.901 25.9672C258.725 27.2631 259.257 28.7174 259.461 30.2322Z" fill="#37474F"/>
<path d="M221.956 40.2802C221.214 40.6698 220.389 40.8809 219.548 40.896C218.707 40.9111 217.874 40.7299 217.118 40.3672C216.865 40.261 216.646 40.0895 216.483 39.871C216.321 39.6524 216.222 39.3948 216.196 39.1253C216.196 38.7776 216.196 37.486 216.196 37.1259C216.237 36.816 216.358 36.5217 216.548 36.2715C216.739 36.0212 216.992 35.8236 217.283 35.6978L232.605 27.0048C233.35 26.6179 234.177 26.4085 235.02 26.3934C235.862 26.3783 236.697 26.5579 237.456 26.9178C237.704 27.0289 237.919 27.202 238.079 27.4198C238.238 27.6377 238.337 27.8927 238.365 28.1597C238.365 28.5198 238.365 29.861 238.365 30.2088C238.326 30.5205 238.205 30.8168 238.014 31.0692C237.824 31.3216 237.571 31.5214 237.279 31.6493L221.956 40.2802Z" fill="#BCE7FD"/>
<path opacity="0.25" d="M221.956 40.2802C221.214 40.6698 220.389 40.8809 219.548 40.896C218.707 40.9111 217.874 40.7299 217.118 40.3672C216.865 40.261 216.646 40.0895 216.483 39.871C216.321 39.6524 216.222 39.3948 216.196 39.1253C216.196 38.7776 216.196 37.486 216.196 37.1259C216.237 36.816 216.358 36.5217 216.548 36.2715C216.739 36.0212 216.992 35.8236 217.283 35.6978L232.605 27.0048C233.35 26.6179 234.177 26.4085 235.02 26.3934C235.862 26.3783 236.697 26.5579 237.456 26.9178C237.704 27.0289 237.919 27.202 238.079 27.4198C238.238 27.6377 238.337 27.8927 238.365 28.1597C238.365 28.5198 238.365 29.861 238.365 30.2088C238.326 30.5205 238.205 30.8168 238.014 31.0692C237.824 31.3216 237.571 31.5214 237.279 31.6493L221.956 40.2802Z" fill="black"/>
<path d="M221.956 38.3043L237.279 29.6112C238.669 28.8164 238.732 27.587 237.443 26.8543C236.684 26.4944 235.85 26.3148 235.007 26.3299C234.165 26.345 233.338 26.5544 232.593 26.9412L217.27 35.6343C215.893 36.4166 215.817 37.6461 217.118 38.3788C217.874 38.7405 218.706 38.9222 219.547 38.9093C220.387 38.8963 221.213 38.6891 221.956 38.3043Z" fill="#BCE7FD"/>
<path opacity="0.3" d="M221.956 38.3043L237.279 29.6112C238.669 28.8164 238.732 27.587 237.443 26.8543C236.684 26.4944 235.85 26.3148 235.007 26.3299C234.165 26.345 233.338 26.5544 232.593 26.9412L217.27 35.6343C215.893 36.4166 215.817 37.6461 217.118 38.3788C217.874 38.7405 218.706 38.9222 219.547 38.9093C220.387 38.8963 221.213 38.6891 221.956 38.3043Z" fill="black"/>
<path d="M101.22 158.889C101.19 158.062 100.962 157.255 100.553 156.532C100.145 155.808 99.5683 155.191 98.8705 154.729C98.6419 154.563 98.3711 154.462 98.088 154.438C97.8048 154.414 97.5205 154.467 97.2662 154.592C96.9757 154.766 95.8136 155.399 95.5104 155.586C95.2567 155.775 95.0571 156.025 94.9309 156.312C94.8047 156.599 94.7563 156.914 94.7904 157.225V194.133C94.8209 194.958 95.0483 195.764 95.4543 196.487C95.8602 197.21 96.4333 197.828 97.1273 198.293C97.3556 198.444 97.6196 198.535 97.894 198.557C98.1683 198.578 98.4437 198.53 98.6937 198.417C99.0221 198.256 100.197 197.585 100.513 197.399C100.766 197.21 100.966 196.96 101.092 196.673C101.218 196.385 101.267 196.071 101.233 195.76L101.22 158.889Z" fill="#BCE7FD"/>
<path opacity="0.3" d="M101.22 158.889C101.19 158.062 100.962 157.255 100.553 156.532C100.145 155.808 99.5683 155.191 98.8705 154.729C98.6419 154.563 98.3711 154.462 98.088 154.438C97.8048 154.414 97.5205 154.467 97.2662 154.592C96.9757 154.766 95.8136 155.399 95.5104 155.586C95.2567 155.775 95.0571 156.025 94.9309 156.312C94.8047 156.599 94.7563 156.914 94.7904 157.225V194.133C94.8209 194.958 95.0483 195.764 95.4543 196.487C95.8602 197.21 96.4333 197.828 97.1273 198.293C97.3556 198.444 97.6196 198.535 97.894 198.557C98.1683 198.578 98.4437 198.53 98.6937 198.417C99.0221 198.256 100.197 197.585 100.513 197.399C100.766 197.21 100.966 196.96 101.092 196.673C101.218 196.385 101.267 196.071 101.233 195.76L101.22 158.889Z" fill="black"/>
<path d="M99.4764 159.92V196.828C99.4764 198.393 98.428 199.063 97.1269 198.33C96.4329 197.866 95.8598 197.247 95.4539 196.524C95.0479 195.802 94.8205 194.995 94.79 194.17V157.225C94.79 155.648 95.8384 154.977 97.1269 155.71C97.83 156.178 98.4097 156.804 98.8182 157.536C99.2268 158.268 99.4524 159.085 99.4764 159.92Z" fill="#BCE7FD"/>
<path opacity="0.4" d="M99.4764 159.92V196.828C99.4764 198.393 98.428 199.063 97.1269 198.33C96.4329 197.866 95.8598 197.247 95.4539 196.524C95.0479 195.802 94.8205 194.995 94.79 194.17V157.225C94.79 155.648 95.8384 154.977 97.1269 155.71C97.83 156.178 98.4097 156.804 98.8182 157.536C99.2268 158.268 99.4524 159.085 99.4764 159.92Z" fill="black"/>
<path d="M101.22 208.352C101.19 207.526 100.962 206.718 100.553 205.995C100.145 205.272 99.5683 204.654 98.8705 204.192C98.6419 204.026 98.3711 203.926 98.088 203.901C97.8049 203.877 97.5205 203.931 97.2663 204.055C96.9757 204.229 95.8136 204.863 95.5104 205.049C95.2567 205.238 95.0571 205.488 94.9309 205.775C94.8047 206.063 94.7563 206.377 94.7904 206.688V224.074C94.8229 224.897 95.0512 225.701 95.457 226.421C95.8629 227.142 96.435 227.758 97.1273 228.222C97.3481 228.383 97.6086 228.482 97.8818 228.511C98.155 228.539 98.4309 228.495 98.681 228.384C99.0095 228.222 100.184 227.551 100.5 227.365C100.753 227.178 100.952 226.93 101.078 226.645C101.204 226.36 101.253 226.048 101.22 225.738V208.352Z" fill="#BCE7FD"/>
<path opacity="0.3" d="M101.22 208.352C101.19 207.526 100.962 206.718 100.553 205.995C100.145 205.272 99.5683 204.654 98.8705 204.192C98.6419 204.026 98.3711 203.926 98.088 203.901C97.8049 203.877 97.5205 203.931 97.2663 204.055C96.9757 204.229 95.8136 204.863 95.5104 205.049C95.2567 205.238 95.0571 205.488 94.9309 205.775C94.8047 206.063 94.7563 206.377 94.7904 206.688V224.074C94.8229 224.897 95.0512 225.701 95.457 226.421C95.8629 227.142 96.435 227.758 97.1273 228.222C97.3481 228.383 97.6086 228.482 97.8818 228.511C98.155 228.539 98.4309 228.495 98.681 228.384C99.0095 228.222 100.184 227.551 100.5 227.365C100.753 227.178 100.952 226.93 101.078 226.645C101.204 226.36 101.253 226.048 101.22 225.738V208.352Z" fill="black"/>
<path d="M99.4764 209.284V226.67C99.4764 228.235 98.428 228.918 97.1269 228.172C96.4329 227.708 95.8598 227.089 95.4539 226.366C95.0479 225.644 94.8205 224.837 94.79 224.012V206.626C94.79 205.061 95.8384 204.378 97.1269 205.111C97.8235 205.577 98.399 206.198 98.8071 206.922C99.2152 207.647 99.4445 208.456 99.4764 209.284Z" fill="#BCE7FD"/>
<path opacity="0.4" d="M99.4764 209.284V226.67C99.4764 228.235 98.428 228.918 97.1269 228.172C96.4329 227.708 95.8598 227.089 95.4539 226.366C95.0479 225.644 94.8205 224.837 94.79 224.012V206.626C94.79 205.061 95.8384 204.378 97.1269 205.111C97.8235 205.577 98.399 206.198 98.8071 206.922C99.2152 207.647 99.4445 208.456 99.4764 209.284Z" fill="black"/>
<path d="M143.082 177.542C143.208 178.145 143.377 178.738 143.588 179.318C144.409 181.503 145.887 183.565 145.76 185.899C145.621 188.532 143.512 190.569 141.895 192.668C139.794 195.443 138.393 198.669 137.809 202.08C137.225 205.492 137.474 208.991 138.535 212.289C140.088 216.306 142.242 220.074 144.927 223.466L151.028 231.973C152.873 234.354 155.227 236.309 157.925 237.698C163.168 240.611 169.017 242.31 175.029 242.665C184.91 243.321 194.738 240.787 203.021 235.45C211.8 229.737 207.935 215.083 216.916 209.731C227.78 203.273 232.959 180.845 219.645 171.481C219.645 171.481 221.792 157.746 217.851 154.244C213.924 151.013 209.063 149.076 203.956 148.706C196.907 147.985 189.846 149.339 182.81 149.314C175.567 149.291 168.33 149.735 161.146 150.643C158.62 150.978 155.058 151.885 153.693 154.307C153.308 155.256 153.203 156.294 153.39 157.299C153.371 158.895 152.79 160.435 151.748 161.658C150.182 163.521 147.958 164.775 146.291 166.526C144.915 167.987 143.908 169.744 143.35 171.658C142.793 173.571 142.701 175.587 143.082 177.542Z" fill="#263238"/>
<path d="M213.19 197.362C224.559 197.672 226.037 200.057 236.218 209.967C244.681 218.2 272.724 243.646 272.724 243.646L306.325 252.438L298.392 272.594C298.392 272.594 290.813 272.283 275.655 272.271C266.345 272.271 263.111 270.222 253.738 264.075C248.964 260.933 222.02 243.596 222.02 243.596L213.19 197.362Z" fill="#E6E6E6"/>
<path d="M343.501 211.68L281.92 233.016L264.943 305.044L266.32 306.484L324.869 285.012L344.866 213.121L343.501 211.68Z" fill="#BCE7FD"/>
<path opacity="0.35" d="M283.285 234.456L266.32 306.484L264.943 305.043L281.92 233.016L283.285 234.456Z" fill="black"/>
<path opacity="0.25" d="M344.866 213.121L283.285 234.456L266.32 306.484L324.869 285.012L344.866 213.121Z" fill="black"/>
<g opacity="0.2">
<path opacity="0.2" d="M315.711 270.358C316.279 271.774 321.004 274.891 327.838 274.332L328.987 270.184L315.711 270.358Z" fill="black"/>
</g>
<g opacity="0.1">
<path opacity="0.1" d="M326.322 227.874L326.827 225.453C327.105 224.124 323.492 224.819 318.755 227.017L307.639 230.321C302.902 232.519 298.43 234.158 298.14 235.487L297.635 237.896L326.322 227.874Z" fill="black"/>
</g>
<path d="M329.985 216.946C330.162 216.114 328.722 216.288 326.789 216.797L323.24 217.977C323.24 217.977 324.692 214.475 316.292 216.735C307.058 219.219 306.856 223.727 306.856 223.727C305.411 224.342 303.931 224.873 302.422 225.316C299.353 226.297 299.024 226.881 298.772 227.725L298.317 229.253L329.707 218.399C329.707 218.399 329.859 217.778 329.985 216.946Z" fill="#37474F"/>
<path d="M326.676 221.578C323.77 222.82 322.57 223.503 322.128 225.564C321.635 227.912 321.534 228.893 321.534 228.893L305.188 235.226C305.188 235.226 306.073 231.761 306.287 230.606C306.502 229.452 304.342 229.452 301.513 230.731L302.182 227.85L327.61 218.573L326.676 221.578Z" fill="#37474F"/>
<path d="M327.156 227.912C327.156 227.912 327.396 226.831 327.673 225.49C327.951 224.149 324.339 224.857 319.602 227.055L308.485 230.358C303.748 232.556 299.264 234.195 298.986 235.524L298.481 238.008L327.156 227.912Z" fill="#37474F"/>
<path d="M338.019 237.759C338.019 237.759 335.834 245.658 335.253 247.694C334.672 249.731 324.591 254.264 319.551 254.885C309.9 256.064 308.801 258.113 311.113 264.82C313.26 271.029 319.538 273.388 328.255 272.382C332.347 271.911 337.994 268.346 340.217 262.125C343.047 254.177 341.48 245.695 342.655 241.013C343.83 236.331 340.47 234.99 338.019 237.759Z" fill="#FFA8A7"/>
<path d="M242.597 346.373L236.066 350.098L233.325 351.651L197.4 372.029L192.499 374.762L184.225 379.456L186.751 354.109L191.577 305.031V304.522L191.804 302.324L198.12 238.157L200.886 210.078L201.859 200.007L202.187 196.753H202.364C205.29 195.953 208.382 195.953 211.308 196.753C211.96 196.948 212.594 197.197 213.202 197.498C216.992 199.349 219.518 202.95 221.615 206.738C222.131 207.66 222.595 208.61 223.005 209.582C224.562 213.263 225.764 217.08 226.592 220.982C228.247 228.185 230.382 235.549 231.228 247.16C231.362 250.149 231.201 253.143 230.748 256.102C230.179 263.93 230.082 271.784 230.458 279.623C231.519 297.381 236.066 305.429 242.597 346.373Z" fill="#E0E0E0"/>
<path d="M233.325 351.626L197.4 372.005L192.499 374.762L184.225 379.456L178.528 382.685L143.941 402.306C144.308 388.646 144.472 373.83 144.144 359.834C144.042 355.153 144.005 350.371 144.207 345.479C144.864 328.49 148.148 310.272 159.921 291.097L160.464 290.129C161.854 298.238 174.486 303.504 185.854 304.745L187.117 304.857C188.545 304.994 190.023 305.056 191.551 305.056H192.511C202.124 304.969 213.506 302.746 226.618 298.387C227.881 305.59 229.144 315.04 230.496 326.093C231.102 331.06 231.717 336.355 232.34 341.976C232.593 345.118 232.984 348.335 233.325 351.626Z" fill="#FFA8A7"/>
<path d="M236.066 350.073L233.325 351.626L197.4 372.005L192.499 374.762L184.225 379.456L178.528 382.685L143.941 402.306L140.152 404.455C140.341 389.751 140.468 375.345 140.455 366.305C140.455 357.897 140.644 350.421 141.112 343.79C142.034 330.7 143.954 320.852 147.163 313.401C150.927 305.246 155.381 297.416 160.477 289.992C160.477 289.992 163.635 300.474 187.256 302.125H187.408C188.798 302.225 190.263 302.287 191.804 302.311H193.598C223.005 302.311 226.251 295.022 226.251 295.022C229.124 305.741 231.397 316.607 233.06 327.571C233.683 331.446 234.285 335.585 234.866 339.99C235.296 343.218 235.7 346.571 236.066 350.073Z" fill="#BCE7FD"/>
<path opacity="0.4" d="M236.066 350.073L233.325 351.626L197.4 372.005L192.499 374.762L184.225 379.456L178.528 382.685L143.941 402.306L140.152 404.455C140.341 389.751 140.468 375.345 140.455 366.305C140.455 357.897 140.644 350.421 141.112 343.79C142.034 330.7 143.954 320.852 147.163 313.401C150.927 305.246 155.381 297.416 160.477 289.992C160.477 289.992 163.635 300.474 187.256 302.125H187.408C188.798 302.225 190.263 302.287 191.804 302.311H193.598C223.005 302.311 226.251 295.022 226.251 295.022C229.124 305.741 231.397 316.607 233.06 327.571C233.683 331.446 234.285 335.585 234.866 339.99C235.296 343.218 235.7 346.571 236.066 350.073Z" fill="black"/>
<path opacity="0.2" d="M219.203 333.594C219.203 333.594 215.918 343.852 202.099 349.602L201.442 352.743L197.4 372.005L192.499 374.762L195.429 353.513L196.693 344.274C205.233 343.403 213.195 339.625 219.203 333.594Z" fill="black"/>
<path d="M177.176 199.721L163.281 201.162C154.085 203.372 149.929 207.371 148.982 215.356C148.539 219.082 146.253 229.017 149.462 241.435C152.367 252.712 160.123 280.306 160.123 280.306C160.123 280.306 142.274 303.206 139.04 342.473C171.706 363.436 221.818 352.172 235.372 339.505C234.235 327.509 226.441 294.587 225.468 283.895C225.468 283.895 226.188 267.192 227.54 259.952C237.873 248.862 236.559 238.256 231.923 229.7C223.359 213.903 210.449 200.019 206.268 200.032L177.176 199.721Z" fill="#BCE7FD"/>
<path opacity="0.7" d="M177.176 199.721L163.281 201.162C154.085 203.372 149.929 207.371 148.982 215.356C148.539 219.082 146.253 229.017 149.462 241.435C152.367 252.712 160.123 280.306 160.123 280.306C160.123 280.306 142.274 303.206 139.04 342.473C171.706 363.436 221.818 352.172 235.372 339.505C234.235 327.509 226.441 294.587 225.468 283.895C225.468 283.895 226.188 267.192 227.54 259.952C237.873 248.862 236.559 238.256 231.923 229.7C223.359 213.903 210.449 200.019 206.268 200.032L177.176 199.721Z" fill="white"/>
<path d="M189.214 285.223C189.214 285.472 189.214 285.695 189.214 285.882V286.204C189.223 286.308 189.223 286.412 189.214 286.515C188.734 291.482 188.166 296.76 187.56 302.138C187.56 302.138 187.56 302.138 187.56 302.212C187.471 303.081 187.37 303.951 187.269 304.832C185.412 321.039 183.202 338.363 181.496 354.134C181.079 357.959 180.7 361.685 180.359 365.311C179.829 370.738 179.26 376.686 178.679 382.697L144.093 402.318L140.303 404.467L130.64 409.943C132.585 391.129 137.12 347.54 139.647 327.869C139.937 325.646 140.316 323.423 140.746 321.213L141.087 319.598L141.238 318.94C141.402 318.195 141.567 317.475 141.743 316.742C141.92 316.009 142.085 315.388 142.249 314.73C142.64 313.227 143.057 311.75 143.512 310.309C143.727 309.614 143.929 308.918 144.156 308.235C144.384 307.552 144.573 306.869 144.8 306.198C145.255 304.857 145.697 303.541 146.165 302.262C146.159 302.237 146.159 302.212 146.165 302.187C146.379 301.579 146.607 300.945 146.834 300.374C147.137 299.53 147.453 298.71 147.769 297.89L148.148 296.909C148.337 296.462 148.502 296.028 148.678 295.593C149.297 294.065 149.942 292.612 150.51 291.259C150.636 290.961 150.775 290.663 150.902 290.377C151.028 290.091 151.23 289.669 151.382 289.322C151.761 288.452 152.14 287.645 152.506 286.838C152.657 286.49 152.822 286.155 152.973 285.832C153.125 285.509 153.34 285.087 153.504 284.739L153.744 284.242L153.996 283.758C154.013 283.695 154.043 283.635 154.085 283.584C154.119 283.494 154.162 283.407 154.211 283.323C154.242 283.268 154.267 283.21 154.287 283.149C154.392 282.974 154.485 282.791 154.565 282.603L155.411 280.989C155.411 280.902 155.5 280.84 155.525 280.765L155.853 280.169L145.344 237.325L140.114 216.039V215.692C140.354 213.804 141.958 204.9 151.205 202.193C156.425 200.868 161.772 200.085 167.159 199.858C169.231 199.734 171.1 199.684 172.629 199.647H175.041H176.494C176.497 199.676 176.497 199.705 176.494 199.734C176.57 199.92 176.785 200.479 177.113 201.348C177.148 201.494 177.199 201.635 177.265 201.77C177.266 201.791 177.266 201.812 177.265 201.832C179.538 207.967 185.917 225.825 189.088 241.336C189.644 244.018 190.099 246.639 190.427 249.123C191.374 256.884 190.68 269.874 189.214 285.223Z" fill="#FAFAFA"/>
<path d="M156.194 259.654C156.194 259.654 157.458 253.531 159.314 240.305C161.475 225.055 160.704 217.517 158.367 212.699L145.192 237.4L155.702 280.244C155.702 280.244 144.901 299.691 140.543 321.225C150.876 292.526 162.182 283.969 162.182 283.969L156.194 259.654Z" fill="#E6E6E6"/>
<path d="M202.352 190.159C206.444 190.159 206.924 190.83 210.449 195.474C212.546 198.244 225.822 219.79 225.822 219.79C225.822 219.79 215.262 206.129 207.291 201.982C205.756 201.097 204.096 200.444 202.364 200.044L202.352 190.159Z" fill="#EBEBEB"/>
<path d="M172.085 235.946C172.085 234.705 171.959 232.022 171.744 228.644C170.696 212.078 170.191 197.176 175.875 195.934L176.368 198.219C172.224 199.1 173.589 220.423 174.107 228.446C174.334 231.898 174.511 234.655 174.448 235.996L172.085 235.946Z" fill="#BCE7FD"/>
<path d="M153.138 127.482L161.98 134.598C162.461 134.057 162.824 133.426 163.048 132.742C163.271 132.058 163.351 131.337 163.281 130.622C163.211 129.907 162.994 129.213 162.642 128.584C162.29 127.954 161.811 127.402 161.235 126.961C160.072 126.016 158.586 125.543 157.081 125.64C155.575 125.737 154.165 126.396 153.138 127.482Z" fill="#263238"/>
<path d="M176.229 191.215C176.229 185.763 163.306 177.554 156.637 166.092C149.967 154.629 153.302 135.778 162.447 132.884C162.523 132.884 162.776 130.463 162.814 130.289C163.319 128.102 164.172 126.006 165.34 124.08C169.066 117.771 176.961 112.903 184.288 111.885C213.253 107.737 226.567 118.802 231.885 130.972C233.609 135.066 234.377 139.488 234.134 143.912C233.985 147.162 232.758 150.274 230.642 152.774C228.525 155.274 225.635 157.025 222.411 157.759L176.229 191.215Z" fill="#263238"/>
<path d="M216.411 126.899C222.083 129.382 227.477 137.864 227.388 161.733C227.312 181.975 220.996 187.092 217.813 188.594C214.63 190.097 208.402 189.327 202.352 188.42V200.044C202.352 200.044 206.887 204.428 205.295 207.185C203.703 209.942 197.829 212.277 188.697 209.458C178.351 206.266 175.989 199.523 175.989 199.523L175.749 174.015C175.749 174.015 172.275 177.604 166.148 172.338C161.096 167.979 159.277 160.516 163.079 156.418C166.881 152.319 171.757 151.997 176.153 156.579L179.311 154.94C184.945 154.294 193.206 153.363 199.295 150.345C214.908 142.534 216.525 134.064 216.411 126.899Z" fill="#FFA8A7"/>
<path d="M176.241 153.276L176.317 164.452C177.047 164.471 177.774 164.344 178.451 164.076C179.129 163.809 179.745 163.409 180.259 162.899C180.774 162.39 181.177 161.782 181.444 161.114C181.711 160.446 181.836 159.731 181.812 159.013C181.798 157.54 181.215 156.127 180.18 155.062C179.146 153.996 177.737 153.358 176.241 153.276Z" fill="#263238"/>
<path d="M216.942 154.865C216.947 155.391 217.109 155.903 217.408 156.338C217.706 156.774 218.128 157.113 218.621 157.315C219.114 157.517 219.657 157.572 220.182 157.474C220.706 157.375 221.19 157.127 221.573 156.761C221.956 156.395 222.221 155.926 222.335 155.413C222.45 154.9 222.408 154.365 222.216 153.875C222.025 153.385 221.691 152.961 221.256 152.656C220.821 152.351 220.305 152.178 219.771 152.158C219.404 152.15 219.038 152.214 218.696 152.346C218.354 152.478 218.042 152.676 217.779 152.928C217.515 153.18 217.305 153.481 217.162 153.814C217.018 154.147 216.943 154.504 216.942 154.865Z" fill="black"/>
<path d="M195.151 156.058C195.129 156.443 195.185 156.828 195.314 157.192C195.444 157.556 195.645 157.891 195.907 158.178C196.169 158.466 196.486 158.699 196.839 158.866C197.193 159.033 197.577 159.129 197.968 159.15C198.366 159.153 198.76 159.079 199.129 158.932C199.497 158.785 199.832 158.568 200.115 158.294C200.398 158.019 200.623 157.692 200.777 157.332C200.931 156.972 201.011 156.585 201.013 156.194C201.025 155.816 200.962 155.439 200.826 155.085C200.69 154.73 200.485 154.406 200.221 154.13C199.958 153.853 199.642 153.631 199.291 153.475C198.94 153.319 198.562 153.232 198.177 153.22C197.792 153.208 197.408 153.27 197.048 153.404C196.688 153.537 196.358 153.739 196.077 153.998C195.796 154.257 195.57 154.568 195.411 154.912C195.252 155.257 195.164 155.63 195.151 156.008V156.058Z" fill="black"/>
<path d="M224.167 149.861L217.131 147.116C217.294 146.651 217.552 146.223 217.891 145.861C218.229 145.498 218.64 145.208 219.098 145.009C219.556 144.81 220.05 144.705 220.551 144.702C221.051 144.7 221.547 144.798 222.007 144.993C222.934 145.376 223.676 146.095 224.078 147.002C224.48 147.908 224.512 148.932 224.167 149.861Z" fill="black"/>
<path d="M210.272 152.68L209.918 169.246L218.975 167.272L210.272 152.68Z" fill="#F28F8F"/>
<path d="M199.598 172.624L208.44 175.319C208.312 175.911 208.06 176.472 207.702 176.965C207.344 177.458 206.887 177.874 206.358 178.186C205.83 178.498 205.242 178.7 204.631 178.779C204.02 178.858 203.399 178.813 202.806 178.647C201.593 178.232 200.586 177.378 199.99 176.26C199.394 175.141 199.254 173.841 199.598 172.624Z" fill="#B16668"/>
<path d="M204.486 178.796C204.476 177.587 203.981 176.431 203.108 175.58C202.235 174.728 201.055 174.251 199.825 174.251C199.703 174.245 199.581 174.245 199.459 174.251C199.504 175.221 199.845 176.156 200.438 176.933C201.03 177.71 201.847 178.294 202.781 178.61C203.33 178.788 203.911 178.851 204.486 178.796Z" fill="#F28F8F"/>
<path d="M202.352 188.483C195.972 187.737 182.823 184.136 180.688 178.883C181.543 181.52 183.185 183.843 185.4 185.552C189.366 188.905 202.352 192.394 202.352 192.394V188.483Z" fill="#F28F8F"/>
<path d="M175.926 190.221C174.258 189.886 172.78 190.606 171.416 192.866C170.052 195.126 167.058 199.945 167.058 199.945C167.058 199.945 165.504 215.828 167.058 219.815C168.397 223.242 183.164 236.095 183.164 236.095C183.164 236.095 179.311 250.364 179.172 255.046C179.033 259.728 188.014 277.499 189.101 286.589C189.101 286.589 192.297 258.027 190.92 247.732C188.545 229.886 180.031 206.837 176.014 199.51L175.926 190.221Z" fill="#EBEBEB"/>
<path d="M184.957 249.334C183.972 247.028 182.811 244.799 181.484 242.665C179.387 239.25 176.797 235.971 174.46 235.127C174.106 234.988 173.73 234.913 173.349 234.903H173.222C172.838 234.925 172.46 235.017 172.111 235.176C170.266 235.984 168.321 238.455 166.742 241.299C165.125 244.155 163.793 247.157 162.763 250.265C162.157 252.19 162.422 256.276 163.142 260.945C164.557 270.011 167.702 281.336 169.458 283.572C170.745 285.134 172.265 286.494 173.968 287.608C172.925 288.286 171.801 288.832 170.62 289.235C169.952 289.474 169.247 289.596 168.536 289.595V291.222H168.738C169.489 291.21 170.234 291.089 170.949 290.861C172.604 290.333 174.168 289.558 175.584 288.564C177.08 289.439 178.703 290.084 180.397 290.477C181.195 290.665 182.02 290.715 182.835 290.626L182.633 289.011C181.926 289.07 181.213 289.015 180.524 288.85C179.308 288.538 178.137 288.079 177.037 287.484C178.64 286.229 180.045 284.748 181.206 283.087C182.191 281.61 183.404 276.518 184.313 270.669C184.869 267.179 185.324 263.429 185.576 260.014C185.854 255.245 185.728 251.159 184.957 249.334ZM179.74 282.193C178.555 283.874 177.101 285.355 175.433 286.577C173.661 285.502 172.082 284.146 170.759 282.566C169.117 280.467 166.085 269.415 164.721 260.697C164.026 256.288 163.774 252.476 164.329 250.762C165.36 247.616 166.723 244.586 168.397 241.721C170.14 238.765 171.997 236.592 173.285 236.542C174.814 236.542 177.29 239.262 179.601 242.752C180.069 243.435 180.511 244.18 180.94 244.925C181.883 246.53 182.726 248.189 183.467 249.892C184.162 251.581 184.237 255.394 183.922 259.827C183.745 262.311 183.467 264.907 183.113 267.49C182.153 274.233 180.802 280.554 179.74 282.156V282.193Z" fill="#455A64"/>
<path d="M185.096 289.669C185.116 290.143 184.992 290.612 184.74 291.017C184.489 291.422 184.121 291.744 183.682 291.943C183.244 292.142 182.756 292.208 182.279 292.134C181.803 292.06 181.359 291.849 181.005 291.526C180.651 291.204 180.402 290.786 180.289 290.325C180.177 289.863 180.207 289.379 180.374 288.935C180.542 288.49 180.84 288.104 181.231 287.825C181.622 287.547 182.088 287.389 182.57 287.372C183.215 287.348 183.842 287.577 184.316 288.007C184.789 288.438 185.07 289.036 185.096 289.669Z" fill="#263238"/>
<path d="M170.936 290.315C170.958 290.789 170.836 291.26 170.586 291.666C170.336 292.072 169.969 292.396 169.531 292.597C169.093 292.798 168.605 292.866 168.127 292.794C167.65 292.721 167.205 292.511 166.85 292.189C166.494 291.867 166.244 291.449 166.131 290.988C166.017 290.526 166.046 290.042 166.213 289.596C166.38 289.15 166.678 288.764 167.069 288.485C167.46 288.206 167.927 288.048 168.41 288.03C168.728 288.017 169.046 288.065 169.346 288.173C169.645 288.281 169.92 288.445 170.155 288.657C170.389 288.87 170.579 289.125 170.713 289.41C170.847 289.694 170.923 290.002 170.936 290.315Z" fill="#263238"/>
<path d="M185.374 259.989L183.972 259.889C183.829 259.877 183.697 259.81 183.603 259.704C183.508 259.597 183.46 259.459 183.467 259.318C183.757 254.761 183.606 251.408 183.037 250.066C180.587 244.18 175.458 236.803 173.298 236.89C171.138 236.977 166.666 244.764 164.721 250.824C164.279 252.215 164.418 255.568 165.087 260.088C165.109 260.226 165.075 260.367 164.993 260.481C164.91 260.595 164.785 260.672 164.645 260.697L163.256 260.908C163.11 260.925 162.963 260.886 162.847 260.797C162.731 260.709 162.656 260.579 162.637 260.436C161.866 255.369 161.778 251.892 162.359 250.091C163.395 246.837 168.283 234.655 173.197 234.456C178.111 234.257 184.035 245.981 185.349 249.147C186.069 250.886 186.284 254.363 185.955 259.467C185.946 259.611 185.88 259.746 185.772 259.843C185.663 259.94 185.521 259.992 185.374 259.989Z" fill="#BCE7FD"/>
<path d="M155.083 202.031C145.836 201.882 141.567 204.95 135.705 212.661C131.057 218.784 112.968 251.867 106.968 261.529L74.3014 244.366C67.6948 239.883 65.56 232.804 61.3788 228.669C57.1977 224.534 52.8649 223.702 48.2669 220.287C43.6688 216.871 41.7993 214.214 40.4729 217.405C39.1466 220.597 44.2625 225.763 45.2352 227.042C46.2078 228.321 51.3364 231.165 44.6794 231.265C38.0223 231.364 24.8472 224.583 21.6387 223.379C18.4301 222.174 18.6196 225.937 20.1986 228.346C21.7776 230.755 21.7018 237.561 24.3672 241.498C27.1841 245.67 28.7252 247.483 35.0033 250.191C40.8393 252.674 53.0923 253.668 59.2946 257.48C65.4969 261.293 80.87 274.73 90.2176 282.789C102.104 293.035 110.302 294.91 116.922 288.763C123.351 282.144 129.869 274.382 133.053 270.445C141.63 259.827 155.196 235.673 155.196 235.673C155.196 235.673 161.07 223.255 155.083 202.031Z" fill="#FFA8A7"/>
<path d="M156.359 201.125C142.741 201.125 138.674 205.968 131.701 217.157C124.728 228.346 106.841 260.374 106.841 260.374L81.0847 247.111C81.0847 247.111 76.4487 257.145 71.5223 267.49C71.5223 267.49 86.0996 279.908 92.9966 285.782C99.8937 291.656 109.039 296.264 117.515 289.073C126.572 281.398 155.942 241.522 155.942 241.522C162.915 229.079 161.361 210.215 156.359 201.125Z" fill="#F0F0F0"/>
<path d="M106.841 260.374C111.048 265.242 116.138 270.719 115.911 275.028C115.911 275.028 118.791 271.203 108.673 257.108L106.841 260.374Z" fill="#E0E0E0"/>
<path d="M58.1197 140.944L47.5847 146.88L47.6225 134.983L39.7402 130.512L21.3607 140.944V161.807L2.98114 172.239V193.102L10.8635 197.573L21.3607 191.612V203.546L29.243 208.017L47.6225 197.573V176.71L66.0021 166.278V145.415L58.1197 140.944Z" fill="#BCE7FD"/>
<path d="M10.8635 176.71V197.573L29.243 187.141V208.017L47.6225 197.573V176.71L66.0021 166.278V145.415L47.5594 155.884L47.6225 134.983L29.243 145.415V166.278L10.8635 176.71Z" fill="#BCE7FD"/>
<g opacity="0.2">
<path opacity="0.2" d="M10.8634 197.573L2.98108 193.102V172.239L10.8634 176.709V197.573Z" fill="black"/>
<path opacity="0.2" d="M29.243 145.415L21.3607 140.944V161.807L29.243 166.278V145.415Z" fill="black"/>
<path opacity="0.2" d="M29.243 208.017L21.3606 203.546V191.612L29.243 187.141V208.017Z" fill="black"/>
</g>
<g opacity="0.5">
<path opacity="0.5" d="M29.2429 166.278L21.3606 161.807L2.98108 172.239L10.8634 176.71L29.2429 166.278Z" fill="white"/>
<path opacity="0.5" d="M47.6226 134.983L39.7402 130.512L21.3607 140.944L29.243 145.415L47.6226 134.983Z" fill="white"/>
<path opacity="0.5" d="M66.0021 145.415L58.1197 140.944L47.5847 146.88L47.5594 155.884L66.0021 145.415Z" fill="white"/>
</g>
<path d="M360.428 99.0685C360.095 98.7842 359.735 98.5307 359.354 98.3109C358.015 97.5285 351.952 94.101 351.636 93.9147C348.428 91.9029 343.35 92.35 338.827 94.5978C332.347 97.8142 326.953 104.607 322.835 115.921C322.835 115.921 318.667 112.977 317.315 112.195C313.968 110.394 310.052 111.264 305.643 114.083C300.679 117.262 297.294 121.385 294.199 127.619V127.731C291.517 133.024 290.051 138.832 289.904 144.744C289.904 157.821 295.348 164.055 302.435 168.737C304.456 170.078 309.799 172.897 310.33 173.245C314.606 176.021 319.336 178.054 324.313 179.255L331.299 180.857L338.284 171.332C343.37 164.309 348.039 157.003 352.268 149.451C359.354 136.722 364.9 124.253 364.799 111.226C364.698 105.65 363.068 101.552 360.428 99.0685Z" fill="#BCE7FD"/>
<path opacity="0.3" d="M360.428 99.0685C360.095 98.7842 359.735 98.5307 359.354 98.3109C358.015 97.5285 351.952 94.101 351.636 93.9147C348.428 91.9029 343.35 92.35 338.827 94.5978C332.347 97.8142 326.953 104.607 322.835 115.921C322.835 115.921 318.667 112.977 317.315 112.195C313.968 110.394 310.052 111.264 305.643 114.083C300.679 117.262 297.294 121.385 294.199 127.619V127.731C291.517 133.024 290.051 138.832 289.904 144.744C289.904 157.821 295.348 164.055 302.435 168.737C304.456 170.078 309.799 172.897 310.33 173.245C314.606 176.021 319.336 178.054 324.313 179.255L331.299 180.857L338.284 171.332C343.37 164.309 348.039 157.003 352.268 149.451C359.354 136.722 364.9 124.253 364.799 111.226C364.698 105.65 363.068 101.552 360.428 99.0685Z" fill="black"/>
<path d="M360.428 99.0684C360.094 98.7842 359.735 98.5306 359.354 98.3109C358.015 97.5285 351.952 94.101 351.636 93.9147C348.428 91.9029 343.35 92.35 338.827 94.5978C332.347 97.8142 326.953 104.607 322.835 115.92C322.835 115.92 318.667 112.977 317.315 112.195C313.968 110.394 310.052 111.264 305.643 114.083C300.679 117.262 297.293 121.385 294.199 127.619V127.731C294.06 128.004 293.946 128.277 293.82 128.55L346.874 158.628C348.756 155.623 350.588 152.58 352.331 149.451C359.418 136.722 364.963 124.253 364.862 111.226C364.698 105.65 363.068 101.552 360.428 99.0684Z" fill="#BCE7FD"/>
<path opacity="0.15" d="M360.428 99.0684C360.094 98.7842 359.735 98.5306 359.354 98.3109C358.015 97.5285 351.952 94.101 351.636 93.9147C348.428 91.9029 343.35 92.35 338.827 94.5978C332.347 97.8142 326.953 104.607 322.835 115.92C322.835 115.92 318.667 112.977 317.315 112.195C313.968 110.394 310.052 111.264 305.643 114.083C300.679 117.262 297.293 121.385 294.199 127.619V127.731C294.06 128.004 293.946 128.277 293.82 128.55L346.874 158.628C348.756 155.623 350.588 152.58 352.331 149.451C359.418 136.722 364.963 124.253 364.862 111.226C364.698 105.65 363.068 101.552 360.428 99.0684Z" fill="black"/>
<path d="M322.797 115.871L329.897 124.974L341.341 111.661L328.406 104.321C326.102 107.953 324.221 111.827 322.797 115.871Z" fill="#BCE7FD"/>
<path opacity="0.3" d="M322.797 115.871L329.897 124.974L341.341 111.661L328.406 104.321C326.102 107.953 324.221 111.827 322.797 115.871Z" fill="black"/>
<path d="M360.428 99.0685C357.333 96.3489 351.7 96.5848 346.723 99.0685C339.939 102.446 334.331 109.736 330.137 122.08C325.943 114.505 320.334 114.269 313.551 118.603C308.574 121.782 305.189 125.905 302.106 132.139L302.043 132.251C299.371 137.552 297.909 143.363 297.761 149.277C297.761 162.354 303.218 168.588 310.292 173.27C314.569 176.046 319.299 178.079 324.275 179.28L331.261 180.882L338.246 171.357C343.332 164.334 348.001 157.028 352.23 149.476C359.317 136.747 364.862 124.278 364.761 111.251C364.698 105.65 363.068 101.552 360.428 99.0685Z" fill="#BCE7FD"/>
<g opacity="0.07">
<path opacity="0.07" d="M354.466 97.8267C356.413 97.7391 358.328 98.343 359.86 99.5281C359.886 99.5816 359.925 99.6284 359.973 99.6647C362.575 101.999 364.028 106.147 364.041 111.313C364.041 124.912 357.725 138.113 351.598 149.215C347.401 156.743 342.761 164.024 337.703 171.022L330.996 180.199L324.465 178.697C319.562 177.513 314.901 175.513 310.683 172.785C304.367 168.563 298.405 162.85 298.456 149.339C298.59 143.529 300.008 137.817 302.612 132.599V132.487C305.719 126.216 309.066 122.254 313.816 119.224C316.022 117.615 318.654 116.667 321.395 116.492C324.604 116.492 327.244 118.442 329.467 122.453C329.522 122.56 329.607 122.65 329.713 122.712C329.818 122.773 329.938 122.804 330.061 122.801H330.124C330.254 122.789 330.378 122.74 330.481 122.661C330.584 122.582 330.662 122.475 330.705 122.353C334.709 110.568 340.027 103.167 346.95 99.7267C349.261 98.5365 351.82 97.8863 354.428 97.8267H354.466ZM354.428 97.1685C351.715 97.2235 349.052 97.8951 346.647 99.1307C339.863 102.509 334.255 109.798 330.061 122.142C327.635 117.746 324.73 115.821 321.395 115.821C318.533 116.006 315.785 116.993 313.475 118.665C308.498 121.844 305.113 125.967 302.03 132.201L301.967 132.313C299.295 137.614 297.834 143.425 297.685 149.339C297.685 162.416 303.142 168.65 310.216 173.332C314.493 176.108 319.223 178.141 324.2 179.342L331.185 180.944L338.171 171.419C343.256 164.396 347.925 157.09 352.154 149.538C359.241 136.809 364.786 124.34 364.685 111.313C364.685 105.713 363.03 101.552 360.39 99.1679C358.723 97.8327 356.614 97.1475 354.466 97.243L354.428 97.1685Z" fill="black"/>
</g>
<path d="M359.658 134.275L346.066 142L341.013 123.93C340.941 123.657 340.777 123.416 340.547 123.247C340.318 123.077 340.036 122.99 339.75 122.999C339.454 122.993 339.166 123.089 338.935 123.271C338.704 123.452 338.545 123.708 338.486 123.993L330.617 159.336L323.997 141.528C323.984 141.198 323.838 140.888 323.592 140.664C323.345 140.44 323.019 140.322 322.684 140.335C322.349 140.349 322.033 140.492 321.805 140.734C321.578 140.976 321.458 141.298 321.471 141.627L316.999 157.237L302.043 165.731C302.535 166.435 303.066 167.11 303.635 167.756L318.793 159.174C319.086 159.007 319.303 158.736 319.399 158.417L322.924 146.098L329.707 164.303C329.797 164.558 329.969 164.777 330.197 164.927C330.425 165.077 330.696 165.15 330.97 165.135C331.251 165.122 331.518 165.016 331.731 164.836C331.944 164.657 332.089 164.412 332.145 164.142L339.851 129.593L343.918 144.26C343.966 144.448 344.059 144.623 344.189 144.77C344.318 144.917 344.481 145.032 344.665 145.106C344.848 145.18 345.046 145.21 345.243 145.195C345.44 145.179 345.631 145.118 345.8 145.017L357.876 138.175C358.571 136.871 359.127 135.579 359.658 134.275Z" fill="white"/>
<path d="M416.704 466.398C416.186 468.081 416.142 469.871 416.577 471.577C417.083 472.62 420.241 476.047 426.683 477.289C433.125 478.531 441.98 477.289 445.795 477.066C449.61 476.842 461.585 478.308 465.387 478.779C471.375 479.574 475.973 478.283 478.209 476.159C478.571 475.732 478.838 475.235 478.992 474.7C479.147 474.165 479.185 473.605 479.106 473.054C479.092 471.637 478.88 470.229 478.474 468.869L416.704 466.398Z" fill="#263238"/>
<path d="M477.489 462.71C477.602 463.194 477.716 463.691 477.817 464.188C478.4 466.686 478.583 469.259 478.36 471.813C477.59 473.675 475.48 474.706 473.775 475.228C469.265 476.644 465.842 476.47 460.852 475.489C455.834 474.77 450.764 474.462 445.694 474.57C441.765 474.83 436.359 475.576 432.43 475.215C429.09 475.079 425.793 474.416 422.666 473.253C420.051 472.16 417.373 470.77 416.729 468.087C415.958 462.499 418.346 460.04 421.036 458.475C423.727 456.91 427.554 457.035 431.647 456.774C435.348 456.525 438.052 456.525 441.349 456.277C444.199 456.141 447.031 455.754 449.812 455.122C452.338 454.352 454.865 451.235 455.901 451.123C455.901 451.123 472.385 450.999 473.952 451.123C475.771 451.272 476.327 456.811 476.554 458.016C476.731 458.959 476.769 459.978 477.021 460.884C477.185 461.493 477.337 462.101 477.489 462.71Z" fill="#37474F"/>
<path d="M426.695 474.47C426.178 470.447 425.432 461.729 433.011 456.687H433.959C430.555 455.718 426.941 455.718 423.537 456.687C417.512 458.264 414.834 463.057 416.337 468.124C416.362 468.075 417.701 472.98 426.695 474.47Z" fill="#FAFAFA"/>
<path d="M448.688 455.408C446.25 457.531 445.403 462.362 445.403 462.362C445.088 464.175 441.753 464.448 442.069 462.697C442.578 460.29 443.56 458.004 444.961 455.967C446.104 455.374 447.417 455.177 448.688 455.408Z" fill="#FAFAFA"/>
<path d="M441.854 456.24C440.015 458.01 438.814 460.32 438.431 462.822C438.09 464.56 435.311 464.536 435.513 462.822C435.513 462.822 435.828 458.537 438.431 456.538C438.935 456.221 439.509 456.028 440.105 455.976C440.701 455.924 441.301 456.015 441.854 456.24Z" fill="#FAFAFA"/>
<path d="M474.457 439.338C474.457 439.338 474.015 449.757 473.434 453.172C473.08 455.209 470.364 457.345 463.606 457.121C458.856 456.96 455.117 457.345 455.307 453.694L455.724 443.051L474.457 439.338Z" fill="#FFA8A7"/>
<path d="M485.055 414.724C484.815 417.568 484.423 420.139 485.611 423.268C487.304 427.764 490.891 429.826 493.001 431.589C495.22 433.75 497.268 436.075 499.127 438.543C501.199 441.027 501.742 442.505 504.849 445.212C506.398 446.384 508.229 447.141 510.165 447.409C512.1 447.676 514.072 447.446 515.89 446.74C518.58 445.61 519.515 444.715 519.351 440.655C519.187 436.594 506.024 435.215 506.024 435.215L485.055 414.724Z" fill="#263238"/>
<path d="M517.646 428.559C518.77 428.956 519.048 430.955 519.225 434.929C519.351 437.935 520.703 442.381 516.269 444.231C512.694 445.758 506.984 444.74 504.572 441.909C501.565 438.369 499.519 435.252 495.224 430.943C491.434 427.217 487.645 425.976 485.965 418.462C484.891 413.644 485.737 411.657 489.199 410.278C493.961 408.378 501.426 414.575 505.165 415.556C508.374 416.388 516.521 428.161 517.646 428.559Z" fill="#37474F"/>
<path d="M505.165 415.556L504.534 415.345C502.404 415.423 500.332 416.048 498.524 417.157C496.716 418.266 495.234 419.82 494.226 421.666C493.594 422.97 495.489 423.989 496.752 422.97C499.405 418.003 504.862 416.935 507.047 416.699C506.51 416.191 505.868 415.802 505.165 415.556Z" fill="#FAFAFA"/>
<path d="M508.235 417.817C506.235 418.001 504.314 418.67 502.643 419.765C500.971 420.859 499.603 422.345 498.66 424.088C498.028 425.33 499.986 426.41 501.186 425.33C502.088 423.776 503.324 422.434 504.807 421.398C506.291 420.362 507.986 419.657 509.776 419.332C509.233 418.835 508.727 418.301 508.235 417.817Z" fill="#FAFAFA"/>
<path d="M518.29 421.381L517.646 429.764C517.646 429.764 512.227 433.651 504.458 430.086C504.23 429.627 503.574 422.126 503.574 422.126L518.29 421.381Z" fill="#FFA8A7"/>
<path d="M488.15 423.989C488.15 423.989 488.516 415.085 501.388 413.855L502.134 414.24C500.669 412.008 498.421 410.381 495.818 409.67C491.548 408.59 488.163 409.67 485.914 412.328C483.666 414.985 485.927 422.263 488.15 423.989Z" fill="#FAFAFA"/>
<path d="M522.042 365.547C520.197 350.88 519.515 342.709 519.515 342.709C519.515 342.709 519.149 322.057 520.425 302.969C520.981 294.599 521.271 285.335 521.448 276.89C521.684 267.591 520.93 258.293 519.2 249.147C519.2 249.147 453.147 236.232 452.326 260.051C451.328 288.613 451.454 337.431 450.33 356.071C449.711 366.54 450.785 375.221 451.454 395.562C451.997 412.427 451.833 453.93 451.833 453.93C459.109 463.753 476.289 456.265 476.289 456.265C476.289 456.265 481.594 397.984 482.377 385.938C483.211 372.985 481.821 366.428 481.821 366.428L488.63 306.086C488.63 306.086 489.148 325.447 489.729 335.891C490.31 346.335 491.864 352.756 494.63 372.24C497.03 389.154 502.134 432.322 502.134 432.322C510.976 437.463 519.515 432.322 519.515 432.322C519.515 432.322 523.886 380.213 522.042 365.547Z" fill="#455A64"/>
<path d="M513.022 282.206C513.022 282.206 504.749 292.588 494.074 297.046C494.074 297.046 489.451 333.544 489.489 332.824L488.289 296.09C488.289 296.09 504.18 289.185 513.022 282.206Z" fill="#37474F"/>
<path d="M512.795 164.887C519.907 163.322 527.953 168.315 533.309 179.454C538.489 190.109 552.636 217.02 552.977 224.558C553.344 232.37 517.999 256.064 518.871 255.605C519.149 255.468 512.77 237.685 512.77 237.685L529.937 223.714L520.602 204.813L512.795 164.887Z" fill="#FFA8A7"/>
<path d="M509.056 163.211C515.043 162.49 525.894 164.713 530.038 171.792C536.051 182.037 541.533 193.885 548.518 209.197C548.518 209.197 543.339 220.224 528.433 221.268L519.503 205.868L509.056 163.211Z" fill="#37474F"/>
<path d="M478.916 153.983L479.952 175.716L501.856 174.561L501.186 149.314L478.916 153.983Z" fill="#FFA8A7"/>
<path d="M523.368 174.151C521.524 168.228 515.157 163.347 507.111 163.111C505.317 163.111 501.553 163.111 501.553 163.111C500.643 166.775 489.236 168.079 479.484 165.88C476.541 166.65 464.326 169.606 461.8 170.351C454.789 172.636 452.629 179.665 451.542 202.143C451.542 202.143 451.757 246.452 451.542 267.601C463.871 273.997 482.92 273.202 496.474 271.848C517.772 269.737 520.943 262.149 520.943 262.149C520.046 249.818 520.589 245.173 520.943 233.003C521.208 223.851 523.886 214.176 524.732 203.807C525.983 188.395 524.618 178.225 523.368 174.151Z" fill="#BCE7FD"/>
<path d="M475.493 158.106C470.44 157.759 464.124 161.72 462.495 170.202L466.613 169.122L475.493 158.106Z" fill="#BCE7FD"/>
<path opacity="0.3" d="M475.493 158.106C470.44 157.759 464.124 161.72 462.495 170.202L466.613 169.122L475.493 158.106Z" fill="black"/>
<path d="M479.194 159.92C482.984 161.161 494.037 160.988 497.738 159.92C501.439 158.852 501.401 157.237 501.401 157.237V155.412C503.536 155.406 505.621 156.043 507.376 157.237C509.738 159.125 513.806 165.93 513.692 169.196C513.578 172.462 506.479 181.081 492.786 180.87C479.093 180.659 471.4 175.679 469.038 172.4L466.663 169.109C466.663 169.109 469.909 162.552 473.105 159.795C474.744 158.234 476.845 157.225 479.106 156.914L479.194 159.92Z" fill="#BCE7FD"/>
<path opacity="0.2" d="M479.194 159.92C482.984 161.161 494.037 160.988 497.738 159.92C501.439 158.852 501.401 157.237 501.401 157.237V155.412C503.536 155.406 505.621 156.043 507.376 157.237C509.738 159.125 513.806 165.93 513.692 169.196C513.578 172.462 506.479 181.081 492.786 180.87C479.093 180.659 471.4 175.679 469.038 172.4L466.663 169.109C466.663 169.109 469.909 162.552 473.105 159.795C474.744 158.234 476.845 157.225 479.106 156.914L479.194 159.92Z" fill="black"/>
<path d="M464.175 127.333C464.175 127.333 458.958 135.12 459.551 135.877C460.145 136.635 463.985 137.343 463.985 137.343L464.175 127.333Z" fill="#F28F8F"/>
<path d="M478.676 105.774C468.116 107.973 463.897 111.015 463.24 128.761C462.608 146.023 464.819 151.711 467.118 154.033C468.672 155.598 477.325 155.883 481.683 154.691C487.14 153.214 499.481 148.917 505.254 140.248C512.05 130.04 513.831 116.206 506.517 110.531C496.323 102.546 482.984 104.88 478.676 105.774Z" fill="#FFA8A7"/>
<path d="M467.118 154.021C468.381 155.263 474.432 155.734 478.979 155.188L478.916 152.617C475.149 153.984 471.108 154.464 467.118 154.021Z" fill="#F28F8F"/>
<path d="M461.838 112.443C464.469 114.298 467.732 115.068 470.933 114.592C470.869 115.983 471.249 117.359 472.019 118.528C473.091 120.123 474.716 121.279 476.592 121.782C475.435 124.01 474.821 126.471 474.798 128.972C474.727 129.757 474.899 130.545 475.291 131.233C475.412 131.482 475.603 131.693 475.841 131.841C476.079 131.989 476.355 132.067 476.636 132.067C476.918 132.067 477.193 131.989 477.431 131.841C477.669 131.693 477.86 131.482 477.981 131.233C478.575 129.912 479.321 128.662 480.205 127.507C481.349 126.16 482.96 125.276 484.727 125.023C491.359 124.316 492.192 132.847 489.54 136.386C485.194 142.173 481.506 138.249 481.506 138.249C481.336 140.962 481.756 143.679 482.736 146.221C483.716 148.762 485.234 151.069 487.19 152.99C491.904 154.356 496.901 154.48 501.679 153.35C507.565 145.39 511.267 141.515 514.412 134.648C521.056 120.106 517.848 110.978 512.707 107.128C511.696 100.435 506.328 97.4292 500.201 96.0507C491.055 93.9768 482.516 99.3168 473.446 97.2926C471.958 96.9863 470.486 96.6049 469.038 96.1501C468.48 95.8929 467.843 95.8529 467.257 96.0383C466.932 96.2507 466.677 96.5521 466.524 96.9052C466.372 97.2584 466.328 97.6478 466.398 98.0253C466.511 99.7391 468.28 101.639 469.177 102.558C467.196 102.736 465.199 102.623 463.252 102.223C462.576 102.098 461.882 102.098 461.206 102.223C460.464 102.52 459.837 103.041 459.415 103.71C458.993 104.379 458.797 105.163 458.856 105.948C458.864 107.176 459.133 108.388 459.647 109.507C460.16 110.625 460.907 111.626 461.838 112.443Z" fill="#263238"/>
<path d="M512.871 109.289L519.187 105.563C518.684 104.74 517.87 104.146 516.922 103.914C515.974 103.681 514.972 103.827 514.134 104.321C513.296 104.815 512.693 105.616 512.456 106.548C512.219 107.479 512.368 108.465 512.871 109.289Z" fill="#263238"/>
<path d="M430.561 207.11C429.129 201.58 427.748 196.041 426.418 190.494C425.154 185.39 423.209 179.479 424.99 174.263C426.002 171.985 427.274 169.827 428.78 167.83C430.083 165.725 431.182 163.505 432.064 161.199C432.506 160.081 432.91 158.938 433.327 157.808C433.744 156.678 434.338 156.033 434.06 154.952C433.138 151.413 428.489 156.057 427.542 157.51C427.121 158.273 426.631 158.996 426.076 159.671C425.47 160.305 423.992 161.099 423.285 160.168C423.049 159.794 422.918 159.366 422.906 158.926C422.426 153.474 424.422 148.594 426.076 143.502C426.338 142.834 426.495 142.13 426.544 141.416C426.574 141.059 426.525 140.7 426.401 140.364C426.276 140.027 426.08 139.721 425.824 139.466C425.412 139.156 424.924 138.957 424.41 138.892C423.895 138.827 423.372 138.896 422.893 139.094C421.958 139.404 421.15 139.988 420.215 140.273C419.28 140.559 418.586 140.559 417.765 140.77C415.817 141.197 413.941 141.895 412.194 142.844C409.162 144.595 407.823 147.153 407.027 150.407C406.071 154.403 405.747 158.521 406.067 162.614C406.282 165.334 406.775 168.016 407.116 170.699L408.253 179.678C409.023 185.663 409.251 215.567 410.299 221.516C411.348 227.464 413.369 231.451 418.156 233.425C425.104 236.207 436.334 223.639 442.713 217.132L430.561 207.11Z" fill="#FFA8A7"/>
<path d="M428.022 203.72C423.55 207.011 417.979 212.487 416.855 217.976C416.855 217.976 415.743 208.104 428.022 199.349V203.72Z" fill="#F28F8F"/>
<path d="M461.446 170.488C457.151 170.885 450.077 171.034 442.877 178.647C434.527 187.538 421.655 205.074 421.655 205.074C421.655 205.074 423.335 219.032 437.003 224.037C437.003 224.037 456.873 205.409 461.143 197.386C465.412 189.364 466.373 176.064 461.446 170.488Z" fill="#37474F"/>
<path d="M455.724 140.981L450.292 138.112L453.412 135.492L442.132 130.301L447.058 127.495L434.906 121.136L442.132 127.408L436.258 130.301L449.509 135.939L446.237 139.156L455.724 140.981Z" fill="#BCE7FD"/>
<path d="M458.49 133.94L454.953 130.612L456.886 129.208L453.778 125.582L456.759 124.589L455.724 119.994L457.82 124.949L455.724 125.843L459.084 129.469L456.81 131.059L458.49 133.94Z" fill="#BCE7FD"/>
<path d="M456.431 146.234L449.761 151.351L447.298 147.786L441.462 150.904L439.075 146.495L430.043 148.768L440.49 143.85L443.483 147.911L448.334 145.352L450.355 148.768L456.431 146.234Z" fill="#BCE7FD"/>
<path d="M410.059 237.797C410.262 237.631 410.524 237.551 410.786 237.574C411.049 237.597 411.292 237.722 411.461 237.921C412.753 239.347 414.431 240.382 416.298 240.905C418.166 241.429 420.147 241.419 422.009 240.876C422.136 240.832 422.271 240.814 422.405 240.823C422.54 240.831 422.671 240.866 422.791 240.926C422.911 240.986 423.018 241.069 423.105 241.17C423.191 241.271 423.256 241.389 423.296 241.516C423.335 241.642 423.348 241.776 423.333 241.907C423.319 242.039 423.277 242.166 423.211 242.282C423.145 242.397 423.056 242.498 422.95 242.579C422.843 242.66 422.72 242.719 422.59 242.752C420.357 243.401 417.981 243.41 415.743 242.776C413.505 242.143 411.498 240.893 409.958 239.175C409.872 239.079 409.806 238.966 409.764 238.844C409.722 238.722 409.705 238.593 409.715 238.465C409.724 238.337 409.759 238.211 409.818 238.097C409.878 237.982 409.959 237.88 410.059 237.797Z" fill="#E0E0E0"/>
<path d="M411.07 244.366C411.247 244.221 411.47 244.141 411.701 244.141C411.932 244.141 412.156 244.221 412.333 244.366C413.361 245.097 414.54 245.598 415.786 245.834C417.031 246.07 418.315 246.035 419.546 245.732C419.807 245.685 420.076 245.74 420.296 245.886C420.516 246.033 420.668 246.258 420.72 246.514C420.746 246.64 420.746 246.769 420.721 246.895C420.695 247.021 420.644 247.14 420.572 247.246C420.499 247.353 420.405 247.444 420.296 247.514C420.187 247.585 420.065 247.633 419.937 247.657C418.416 248.004 416.835 248.019 415.307 247.699C413.779 247.379 412.341 246.733 411.095 245.807C410.995 245.723 410.913 245.621 410.854 245.506C410.795 245.392 410.76 245.266 410.75 245.138C410.741 245.01 410.758 244.881 410.799 244.759C410.841 244.637 410.907 244.525 410.994 244.428C411.016 244.404 411.042 244.383 411.07 244.366Z" fill="#E0E0E0"/>
<path d="M535.103 169.097C534.986 169.156 534.859 169.192 534.728 169.203C534.597 169.213 534.465 169.197 534.34 169.157C534.216 169.116 534.1 169.052 534.001 168.967C533.902 168.882 533.822 168.778 533.764 168.662C532.842 166.982 531.454 165.593 529.762 164.656C528.069 163.72 526.141 163.275 524.202 163.372C524.071 163.379 523.939 163.361 523.815 163.319C523.691 163.276 523.577 163.21 523.479 163.124C523.282 162.951 523.162 162.707 523.147 162.447C523.132 162.187 523.222 161.931 523.399 161.737C523.575 161.542 523.823 161.425 524.088 161.41C526.416 161.29 528.731 161.826 530.761 162.954C532.79 164.083 534.45 165.757 535.545 167.781C535.661 168.013 535.679 168.281 535.596 168.527C535.514 168.773 535.337 168.977 535.103 169.097Z" fill="#E0E0E0"/>
<path d="M535.659 162.515C535.447 162.624 535.203 162.654 534.97 162.6C534.738 162.545 534.534 162.409 534.396 162.217C533.58 161.28 532.569 160.527 531.432 160.009C530.294 159.49 529.056 159.218 527.802 159.212C527.671 159.207 527.542 159.177 527.423 159.123C527.304 159.069 527.196 158.993 527.107 158.898C527.018 158.803 526.949 158.693 526.903 158.572C526.858 158.451 526.837 158.322 526.842 158.193C526.847 158.065 526.878 157.938 526.932 157.821C526.987 157.704 527.065 157.598 527.161 157.511C527.257 157.423 527.37 157.355 527.493 157.31C527.616 157.265 527.747 157.245 527.878 157.25C529.435 157.265 530.971 157.615 532.376 158.276C533.782 158.937 535.023 159.892 536.013 161.074C536.155 161.285 536.208 161.541 536.161 161.789C536.114 162.038 535.97 162.258 535.76 162.403L535.659 162.515Z" fill="#E0E0E0"/>
<path d="M553.318 234.096C553.192 233.868 553.162 233.601 553.235 233.352C553.309 233.103 553.479 232.893 553.71 232.767C555.374 231.784 556.719 230.356 557.589 228.649C558.459 226.943 558.818 225.029 558.624 223.13C558.608 223.002 558.619 222.872 558.655 222.748C558.691 222.623 558.752 222.508 558.834 222.407C558.917 222.306 559.019 222.223 559.135 222.161C559.25 222.1 559.377 222.062 559.508 222.05C559.771 222.022 560.035 222.098 560.241 222.261C560.447 222.424 560.578 222.661 560.607 222.919C560.832 225.19 560.398 227.477 559.354 229.515C558.309 231.553 556.698 233.258 554.708 234.431C554.595 234.501 554.469 234.547 554.337 234.568C554.205 234.589 554.071 234.583 553.941 234.552C553.812 234.521 553.69 234.464 553.583 234.386C553.476 234.308 553.386 234.209 553.318 234.096Z" fill="#E0E0E0"/>
<path d="M560.026 234.332C559.913 234.13 559.875 233.895 559.919 233.669C559.963 233.442 560.086 233.237 560.266 233.09C561.183 232.247 561.902 231.219 562.375 230.076C562.849 228.933 563.064 227.703 563.007 226.471C563.007 226.211 563.112 225.961 563.299 225.777C563.487 225.593 563.74 225.49 564.005 225.49C564.27 225.49 564.524 225.593 564.711 225.777C564.898 225.961 565.003 226.211 565.003 226.471C565.057 228 564.774 229.522 564.172 230.933C563.57 232.343 562.664 233.609 561.517 234.642C561.414 234.722 561.296 234.781 561.17 234.817C561.044 234.852 560.912 234.862 560.781 234.847C560.651 234.832 560.525 234.792 560.411 234.729C560.296 234.666 560.196 234.582 560.114 234.481L560.026 234.332Z" fill="#E0E0E0"/>
<path d="M443.824 352.408C444.06 352.525 444.24 352.729 444.325 352.975C444.41 353.221 444.394 353.49 444.279 353.724C443.479 355.463 443.199 357.389 443.472 359.278C443.745 361.168 444.559 362.941 445.82 364.392C445.991 364.592 446.075 364.85 446.054 365.11C446.032 365.371 445.908 365.612 445.707 365.783C445.507 365.951 445.247 366.036 444.985 366.017C444.722 365.998 444.478 365.878 444.304 365.683C442.79 363.937 441.814 361.803 441.492 359.53C441.17 357.257 441.514 354.942 442.485 352.855C442.605 352.623 442.812 352.446 443.062 352.363C443.312 352.279 443.586 352.295 443.824 352.408Z" fill="#E0E0E0"/>
<path d="M438.165 355.947C438.381 356.047 438.553 356.22 438.651 356.434C438.748 356.648 438.764 356.89 438.696 357.115C438.431 358.321 438.434 359.57 438.707 360.774C438.98 361.979 439.515 363.112 440.275 364.094C440.424 364.307 440.482 364.57 440.437 364.825C440.392 365.08 440.248 365.308 440.035 365.46C439.819 365.61 439.551 365.669 439.29 365.624C439.03 365.58 438.798 365.436 438.645 365.224C437.709 363.996 437.056 362.582 436.734 361.08C436.411 359.579 436.425 358.026 436.776 356.531C436.815 356.406 436.878 356.291 436.963 356.19C437.048 356.09 437.152 356.008 437.27 355.948C437.387 355.887 437.516 355.851 437.648 355.84C437.78 355.83 437.913 355.845 438.039 355.885L438.165 355.947Z" fill="#E0E0E0"/>
<path d="M369.586 11.4554C369.524 10.2974 369.184 9.17032 368.593 8.16656C368.003 7.16281 367.178 6.31092 366.188 5.68073L363.434 4.10356C362.382 3.58556 361.22 3.31586 360.043 3.31586C358.865 3.31586 357.704 3.58556 356.651 4.10356L292.67 40.4528C291.681 41.0845 290.858 41.9367 290.268 42.9402C289.677 43.9436 289.336 45.0699 289.272 46.2275V78.7518C289.337 79.9091 289.679 81.035 290.269 82.0383C290.86 83.0416 291.682 83.8941 292.67 84.5265L295.437 86.0912C296.487 86.6178 297.649 86.8923 298.828 86.8923C300.007 86.8923 301.17 86.6178 302.22 86.0912L366.188 49.7544C367.178 49.1242 368.003 48.2723 368.593 47.2685C369.184 46.2648 369.524 45.1377 369.586 43.9797V11.4554Z" fill="#BCE7FD"/>
<path opacity="0.5" d="M369.586 11.4554C369.524 10.2974 369.184 9.17032 368.593 8.16656C368.003 7.16281 367.178 6.31092 366.188 5.68073L363.434 4.10356C362.382 3.58556 361.22 3.31586 360.043 3.31586C358.865 3.31586 357.704 3.58556 356.651 4.10356L292.67 40.4528C291.681 41.0845 290.858 41.9367 290.268 42.9402C289.677 43.9436 289.336 45.0699 289.272 46.2275V78.7518C289.337 79.9091 289.679 81.035 290.269 82.0383C290.86 83.0416 291.682 83.8941 292.67 84.5265L295.437 86.0912C296.487 86.6178 297.649 86.8923 298.828 86.8923C300.007 86.8923 301.17 86.6178 302.22 86.0912L366.188 49.7544C367.178 49.1242 368.003 48.2723 368.593 47.2685C369.184 46.2648 369.524 45.1377 369.586 43.9797V11.4554Z" fill="white"/>
<path opacity="0.2" d="M289.272 78.7518C289.337 79.9091 289.679 81.035 290.269 82.0383C290.86 83.0416 291.682 83.894 292.67 84.5264L295.437 86.0912C296.392 86.5646 297.439 86.8337 298.508 86.8808C299.577 86.9279 300.644 86.7519 301.639 86.3644C300.035 86.9605 298.822 86.0788 298.822 84.1663V51.642C298.863 50.4792 299.207 49.3461 299.82 48.351L290.27 42.9365C289.655 43.9309 289.312 45.0644 289.272 46.2274V78.7518Z" fill="black"/>
<path opacity="0.3" d="M369.473 10.5115C369.081 9.09578 367.767 8.63629 366.201 9.53043L302.22 45.8673C301.213 46.4747 300.385 47.3311 299.82 48.351L290.283 42.9365C290.847 41.9198 291.67 41.0641 292.67 40.4528L356.639 4.11592C357.689 3.58931 358.851 3.31476 360.03 3.31476C361.209 3.31476 362.372 3.58931 363.422 4.11592L366.201 5.68066C367.05 6.22657 367.778 6.93615 368.34 7.76648C368.903 8.59681 369.288 9.53064 369.473 10.5115Z" fill="white"/>
<path d="M298.834 62.1605L289.297 56.746L277.802 67.6247C277.629 67.7958 277.498 68.0033 277.419 68.2316C277.339 68.4598 277.314 68.7028 277.345 68.9422C277.375 69.1815 277.46 69.4109 277.594 69.6129C277.728 69.815 277.907 69.9844 278.118 70.1084L287.503 75.4733C287.892 75.6732 288.329 75.7634 288.766 75.734L298.872 73.834V62.1605H298.834Z" fill="#BCE7FD"/>
<path opacity="0.5" d="M298.834 62.1605L289.297 56.746L277.802 67.6247C277.629 67.7958 277.498 68.0033 277.419 68.2316C277.339 68.4598 277.314 68.7028 277.345 68.9422C277.375 69.1815 277.46 69.4109 277.594 69.6129C277.728 69.815 277.907 69.9844 278.118 70.1084L287.503 75.4733C287.892 75.6732 288.329 75.7634 288.766 75.734L298.872 73.834V62.1605H298.834Z" fill="white"/>
<path opacity="0.3" d="M287.504 75.4732L282.451 72.6294L281.857 72.2444L279.154 70.7045L278.826 70.5058L278.106 70.096C277.895 69.972 277.716 69.8025 277.582 69.6005C277.448 69.3984 277.363 69.169 277.332 68.9297C277.302 68.6904 277.327 68.4474 277.407 68.2192C277.486 67.9909 277.617 67.7834 277.79 67.6123L289.285 56.7336L298.835 62.1605L287.34 72.9895C287.157 73.149 287.014 73.3473 286.921 73.5693C286.828 73.7914 286.788 74.0313 286.804 74.2708C286.82 74.5104 286.891 74.7432 287.012 74.9516C287.134 75.16 287.302 75.3384 287.504 75.4732Z" fill="white"/>
<path d="M317.517 52.1636C316.197 53.0076 315.099 54.1458 314.311 55.4859C313.523 56.826 313.068 58.3299 312.982 59.8755C312.982 62.707 315.016 63.8619 317.517 62.4462C318.836 61.6016 319.932 60.4628 320.718 59.1227C321.504 57.7826 321.957 56.279 322.04 54.7342C322.04 51.878 320.018 50.7479 317.517 52.1636Z" fill="white"/>
<path d="M334.204 42.6756C332.886 43.5202 331.789 44.6589 331.003 45.9991C330.218 47.3392 329.765 48.8428 329.682 50.3875C329.682 53.219 331.703 54.3739 334.204 52.9458C335.521 52.1024 336.616 50.9656 337.402 49.6278C338.188 48.29 338.642 46.7888 338.726 45.2462C338.701 42.4024 336.705 41.2474 334.204 42.6756Z" fill="white"/>
<path d="M350.891 33.1755C349.575 34.0223 348.48 35.1615 347.694 36.5012C346.909 37.8409 346.455 39.3434 346.369 40.8874C346.369 43.7313 348.39 44.8738 350.891 43.4581C352.212 42.6129 353.312 41.4726 354.1 40.1303C354.888 38.7879 355.343 37.2814 355.426 35.7337C355.426 32.9147 353.392 31.7597 350.891 33.1755Z" fill="white"/>
<path d="M492.735 75.2124L488.15 66.7802L491.839 56.3113V49.866L480.546 56.274V62.682L485.396 70.9528C485.476 71.0764 485.59 71.1753 485.725 71.2384L492.735 75.2124Z" fill="#BCE7FD"/>
<path opacity="0.2" d="M492.735 75.2124L488.15 66.7802L491.839 56.3113V49.866L480.546 56.274V62.682L485.396 70.9528C485.476 71.0764 485.59 71.1753 485.725 71.2384L492.735 75.2124Z" fill="black"/>
<path d="M527.031 8.13802C526.969 6.98327 526.629 5.85941 526.041 4.85805C525.453 3.85668 524.632 3.00615 523.646 2.37579L520.892 0.811048C519.844 0.28454 518.684 0.0100098 517.507 0.0100098C516.33 0.0100098 515.17 0.28454 514.121 0.811048L450.292 37.0609C449.31 37.6991 448.494 38.5531 447.906 39.5554C447.318 40.5577 446.976 41.6808 446.907 42.8356V75.2854C446.969 76.4402 447.309 77.564 447.897 78.5654C448.485 79.5667 449.306 80.4173 450.292 81.0476L453.046 82.6124C454.097 83.1284 455.256 83.397 456.431 83.397C457.606 83.397 458.765 83.1284 459.817 82.6124L487.607 66.7166L492.458 74.9625C492.527 75.0728 492.627 75.1617 492.746 75.219C492.864 75.2764 492.997 75.2999 493.129 75.287C493.26 75.274 493.385 75.2252 493.49 75.1459C493.595 75.0666 493.675 74.96 493.721 74.8383L498.849 60.321L523.583 46.3501C524.569 45.7197 525.39 44.8692 525.978 43.8678C526.566 42.8664 526.906 41.7426 526.968 40.5878L527.031 8.13802Z" fill="#BCE7FD"/>
<path d="M466.031 49.1209L517.065 20.1483C518.58 19.2914 519.806 19.8999 519.806 21.5143C519.737 22.4169 519.453 23.2908 518.977 24.0654C518.501 24.8399 517.845 25.4933 517.065 25.9726L466.031 54.9452C464.528 55.8021 463.303 55.1936 463.303 53.5792C463.371 52.678 463.654 51.8051 464.127 51.0308C464.601 50.2565 465.253 49.6023 466.031 49.1209Z" fill="white"/>
<path d="M466.031 62.0238L517.065 33.0636C518.58 32.2067 519.806 32.8153 519.806 34.4173C519.739 35.322 519.456 36.1984 518.98 36.9753C518.503 37.7521 517.847 38.4075 517.065 38.8879L466.031 67.8481C464.528 68.7174 463.303 68.0965 463.303 66.4945C463.369 65.5911 463.651 64.7158 464.125 63.9392C464.599 63.1626 465.252 62.5064 466.031 62.0238Z" fill="white"/>
<path opacity="0.2" d="M446.907 75.2868C446.969 76.4416 447.309 77.5654 447.897 78.5668C448.485 79.5682 449.306 80.4187 450.292 81.049L453.046 82.6138C454 83.0854 455.044 83.3535 456.111 83.4006C457.178 83.4477 458.242 83.2727 459.235 82.887C457.644 83.4707 456.431 82.589 456.431 80.6889V48.2391C456.472 47.0818 456.811 45.9537 457.416 44.9606L447.892 39.5461C447.286 40.5437 446.947 41.6758 446.907 42.837V75.2868Z" fill="black"/>
<path opacity="0.2" d="M526.918 7.17087C526.526 5.75515 525.212 5.30807 523.646 6.1898L459.817 42.4521C458.812 43.0585 457.988 43.9154 457.429 44.9358L447.905 39.5337C448.471 38.5187 449.293 37.6635 450.292 37.05L514.109 0.787707C515.162 0.269698 516.323 0 517.501 0C518.678 0 519.839 0.269698 520.892 0.787707L523.646 2.35245C524.496 2.89424 525.225 3.60109 525.788 4.42965C526.35 5.25821 526.735 6.19102 526.918 7.17087Z" fill="white"/>
</svg>
