<svg width="189" height="292" viewBox="0 0 189 292" fill="none" xmlns="http://www.w3.org/2000/svg">
<path d="M50.8224 291.86C78.8908 291.86 101.645 278.722 101.645 262.515C101.645 246.308 78.8908 233.17 50.8224 233.17C22.7539 233.17 0 246.308 0 262.515C0 278.722 22.7539 291.86 50.8224 291.86Z" fill="#E0E0E0"/>
<path d="M143.692 241.212C168.521 241.212 188.648 229.593 188.648 215.26C188.648 200.927 168.521 189.308 143.692 189.308C118.864 189.308 98.7363 200.927 98.7363 215.26C98.7363 229.593 118.864 241.212 143.692 241.212Z" fill="#E0E0E0"/>
<path d="M36.5415 82.965C32.0422 81.8961 27.083 85.1027 24.187 92.1624C21.291 99.2221 15.4867 117.269 14.2438 121.992C13.6969 124.105 29.7552 142.823 29.1586 142.55C28.9846 142.463 34.3912 133.414 34.3912 133.414L26.5982 121.42L31.5699 108.407L36.5415 82.965Z" fill="#B16668"/>
<path d="M26.1258 250.508C25.5168 250.745 25.3552 251.901 25.2682 254.237C25.1937 255.99 24.8208 259.035 26.8716 259.644C28.9224 260.253 31.9178 259.942 33.2353 258.302C34.8213 256.092 36.518 253.964 38.3187 251.925C40.3447 249.738 42.5322 247.712 43.3525 244.654C44.0983 241.895 43.4768 240.702 41.6 239.894C39.0024 238.8 34.9381 242.38 32.8997 242.964C31.1721 243.436 26.7349 250.285 26.1258 250.508Z" fill="#263238"/>
<path d="M26.1259 248.371V251.205C27.1905 251.886 28.4206 252.264 29.684 252.299C30.9475 252.334 32.1967 252.025 33.2974 251.403C33.4217 251.13 34.0432 247.339 34.0432 247.339L26.1259 248.371Z" fill="#B16668"/>
<path d="M47.2304 265.585C46.7389 267.104 46.3241 268.648 45.9875 270.209C45.6271 271.924 45.1299 274.795 45.7389 276.075C46.348 277.355 48.6722 278.2 52.3139 278.176C54.663 278.176 58.3296 279.754 60.8402 281.159C63.3633 282.396 66.2165 282.792 68.9813 282.29C72.2128 281.904 75.5687 280.027 76.0907 278.698C76.6127 277.368 75.9415 276.709 68.3225 273.465C68.248 273.465 60.2934 269.836 56.602 265.771L47.2304 265.585Z" fill="#263238"/>
<path d="M47.2303 262.515C47.2303 262.515 47.2303 264.615 47.2303 265.821C47.2303 267.027 48.6473 268.817 52.3263 268.692C54.9115 268.593 56.7137 267.897 56.6019 265.771V262.714L47.2303 262.515Z" fill="#B16668"/>
<path d="M23.3294 209.045C23.9387 204.067 25.1019 199.173 26.7971 194.453C26.7971 194.453 25.1937 181.9 24.3113 169.844C22.6582 148.23 23.9881 141.17 28.2389 131.476C28.2389 131.476 64.4944 127.747 65.6006 142.873C66.9802 161.641 65.1531 197.909 64.656 204.533C64.1588 211.158 63.5373 214.154 61.2007 228C59.4109 238.539 56.6516 262.714 56.6516 262.714C55.1936 263.454 53.5756 263.823 51.941 263.788C50.3063 263.753 48.7055 263.316 47.2802 262.515C47.2802 262.515 44.3221 232.337 44.6328 224.693C44.8515 219.037 45.8084 213.434 47.479 208.026C47.479 208.026 45.2294 177.438 44.5831 172.566C44.5831 172.566 43.4396 182.273 42.9424 188.898C42.4452 195.522 40.4566 201.861 38.5674 214.178C36.9019 224.855 33.8071 248.731 33.8071 248.731C28.997 251.341 26.1259 248.396 26.1259 248.396C26.1259 248.396 22.0368 218.305 23.3294 209.045Z" fill="#BCE76F"/>
<g opacity="0.35">
<path opacity="0.35" d="M23.3294 209.045C23.9387 204.067 25.1019 199.173 26.7971 194.453C26.7971 194.453 25.1937 181.9 24.3113 169.844C22.6582 148.23 23.9881 141.17 28.2389 131.476C28.2389 131.476 64.4944 127.747 65.6006 142.873C66.9802 161.641 65.1531 197.909 64.656 204.533C64.1588 211.158 63.5373 214.154 61.2007 228C59.4109 238.539 56.6516 262.714 56.6516 262.714C55.1936 263.454 53.5756 263.823 51.941 263.788C50.3063 263.753 48.7055 263.316 47.2802 262.515C47.2802 262.515 44.3221 232.337 44.6328 224.693C44.8515 219.037 45.8084 213.434 47.479 208.026C47.479 208.026 45.2294 177.438 44.5831 172.566C44.5831 172.566 43.4396 182.273 42.9424 188.898C42.4452 195.522 40.4566 201.861 38.5674 214.178C36.9019 224.855 33.8071 248.731 33.8071 248.731C28.997 251.341 26.1259 248.396 26.1259 248.396C26.1259 248.396 22.0368 218.305 23.3294 209.045Z" fill="black"/>
</g>
<path d="M55.0731 78.0803L53.3703 92.0879L41.0531 90.9817L42.4576 75.433L55.0731 78.0803Z" fill="#B16668"/>
<path d="M27.5303 89.9501C28.8851 86.2214 33.4962 82.1571 38.2317 83.0395L41.7118 83.6734C41.8113 86.905 47.9263 88.5705 53.9669 86.6191C55.7815 87.1411 57.4594 87.6756 58.9385 88.21C63.2762 89.7637 65.0163 96.9103 65.153 109.016C65.2897 121.122 66.5326 151.113 66.5326 151.113L61.3994 152.742L59.0379 143.954L58.0809 154.482C52.3173 155.826 46.3183 155.796 40.5683 154.395C27.5427 151.548 23.4908 144.526 23.4908 144.526C25.0842 136.397 28.2508 128.658 32.8126 121.744C26.2998 104.38 25.5292 95.4561 27.5303 89.9501Z" fill="#EBEBEB"/>
<path d="M64.2333 60.2819C64.9702 58.6084 65.2712 56.7755 65.1082 54.9541C64.9452 53.1328 64.3235 51.3825 63.3011 49.8664C59.1622 43.3784 51.1952 42.2722 41.7491 44.8078C38.4521 45.8176 35.5473 47.8209 33.4316 50.5438C31.316 53.2668 30.0928 56.5766 29.9291 60.0209C29.4692 66.9439 48.7964 72.0522 48.349 76.8001L64.2333 60.2819Z" fill="#263238"/>
<path d="M64.6434 62.9169C64.6434 62.9169 67.266 67.1179 66.8931 67.5529C66.2435 67.9558 65.5284 68.2418 64.7802 68.3981L64.6434 62.9169Z" fill="#9A4A4D"/>
<path d="M56.6516 49.6053C59.2617 51.0471 63.7858 53.7069 64.7056 63.5259C65.6502 73.5934 63.3135 77.0238 61.9091 78.304C60.9644 79.1741 56.1793 79.3605 53.7183 78.5277C50.6359 77.4713 43.9739 73.9663 40.9537 68.6964C37.3989 62.4818 36.8521 54.3408 41.2271 51.2957C43.4444 49.7305 46.0231 48.7542 48.7211 48.4586C51.419 48.1629 54.1479 48.5575 56.6516 49.6053Z" fill="#B16668"/>
<path d="M57.4221 50.0404C57.4221 50.0404 59.4854 59.2627 56.5521 64.9552C56.5521 64.9552 55.0358 61.3384 51.9285 62.283C48.8213 63.2276 48.9828 67.3665 51.3568 69.5416C51.9632 70.1634 52.7332 70.6008 53.5778 70.8032C54.4225 71.0056 55.3072 70.9646 56.1295 70.685C55.0826 73.295 53.5134 75.6635 51.5183 77.6453C51.5183 77.6453 42.3333 81.7345 34.3911 72.7607C27.1698 64.6197 28.5122 50.3884 39.5616 47.0698C50.611 43.7513 57.4221 50.0404 57.4221 50.0404Z" fill="#263238"/>
<path d="M31.2341 50.9974C31.6685 51.3704 31.9373 51.9003 31.9816 52.4712C32.0259 53.042 31.842 53.6071 31.4703 54.0425L28.189 51.2211C28.3736 51.0055 28.599 50.8285 28.8523 50.7005C29.1057 50.5724 29.3818 50.4958 29.6649 50.475C29.948 50.4542 30.2324 50.4896 30.5017 50.5793C30.7711 50.669 31.02 50.8111 31.2341 50.9974Z" fill="#263238"/>
<path d="M90.1478 110.446C91.9376 108.407 92.6336 103.858 94.9951 100.751C97.3567 97.6437 98.2516 95.3691 99.1962 96.7239C100.439 98.5261 97.6301 102.118 98.2516 102.479C98.873 102.839 101.21 107.574 101.446 110.209C101.682 112.844 94.7093 119.457 94.7093 119.457L90.1478 110.446Z" fill="#B16668"/>
<path d="M98.0527 102.068C98.0527 102.068 106.48 101.347 107.71 102.068C108.941 102.789 108.568 106.443 107.71 108.681C106.853 110.918 102.552 112.409 98.5623 115.069C98.5623 114.671 98.0527 102.068 98.0527 102.068Z" fill="#B16668"/>
<path d="M57.8945 87.8744C61.5114 89.1173 64.6808 90.5964 68.0615 96.9476C72.3992 105.114 80.3041 121.097 80.3041 121.097L90.1479 110.446C90.1479 110.446 91.5773 108.432 94.2371 112.832C96.8969 117.232 95.7286 118.45 95.7286 118.45C95.7286 118.45 84.2814 133.787 82.1809 135.739C80.0804 137.69 76.6251 136.174 74.363 133.104C72.1009 130.034 57.8945 112.248 57.8945 112.248C57.8945 112.248 50.1264 102.031 57.8945 87.8744Z" fill="#B16668"/>
<path opacity="0.2" d="M44.5829 172.541L43.8869 165.22C39.942 164.633 36.1694 163.205 32.8251 161.032C32.8251 161.032 35.1866 164.76 41.6497 166.525L42.3208 175.847L42.7186 191.135L44.5829 172.541Z" fill="black"/>
<path d="M18.7678 85.9355C20.4462 85.9404 22.109 85.6143 23.6612 84.9757C25.2134 84.3372 26.6244 83.3989 27.8135 82.2144C29.0026 81.0299 29.9464 79.6226 30.591 78.0729C31.2355 76.5232 31.5681 74.8617 31.5697 73.1833V53.8064C30.1071 53.3317 28.5528 53.21 27.0341 53.4511C25.5153 53.6922 24.0752 54.2893 22.8315 55.1937C21.5877 56.098 20.5756 57.2838 19.878 58.6542C19.1804 60.0246 18.817 61.5407 18.8175 63.0785L18.7678 85.9355Z" fill="#263238"/>
<path d="M65.4265 121.706C65.4265 121.706 58.3544 112.583 56.0923 108.917L65.6751 129.151L65.4265 121.706Z" fill="#E0E0E0"/>
<path d="M127.435 46.784C124.75 54.7013 119.021 78.3165 119.021 78.3165C119.021 78.3165 108.095 92.846 105.088 95.6177C103.422 97.1589 99.6561 99.9306 99.6561 99.9306L102.788 102.242C102.788 102.242 108.008 100.651 108.443 103.485C113.887 99.106 119.035 94.3727 123.855 89.3162C125.072 88.0463 125.929 86.4766 126.341 84.7671L131.002 64.7191C131.002 64.7191 131.002 48.5613 133.488 46.4484C135.974 44.3354 134.992 39.5503 134.992 39.5503C133.289 39.6 129.548 40.5819 127.435 46.784Z" fill="#FFA8A7"/>
<path d="M135.079 38.7548C135.84 40.8931 136.763 42.9705 137.838 44.9693C138.932 46.8461 130.567 80.591 130.008 83.1017C129.448 85.6123 113.229 100.241 113.229 100.241C110.298 99.0012 107.97 96.6635 106.741 93.7285L118.449 78.4905C118.449 78.4905 122.09 62.5067 124.005 55.1736C125.919 47.8405 127.957 39.5503 135.079 38.7548Z" fill="#BCE76F"/>
<path opacity="0.1" d="M135.079 38.7548C135.84 40.8931 136.763 42.9705 137.838 44.9693C138.932 46.8461 130.567 80.591 130.008 83.1017C129.448 85.6123 113.229 100.241 113.229 100.241C110.298 99.0012 107.97 96.6635 106.741 93.7285L118.449 78.4905C118.449 78.4905 122.09 62.5067 124.005 55.1736C125.919 47.8405 127.957 39.5503 135.079 38.7548Z" fill="black"/>
<path d="M169.333 197.337H161.254V211.183H169.333V197.337Z" fill="#FFA8A7"/>
<path d="M136.272 200.693L128.193 200.979L127.796 186.325L136.272 186.051V200.693Z" fill="#FFA8A7"/>
<path d="M168.202 98.5385C168.202 106.257 168.737 151.151 168.737 151.151C168.923 153.363 171.061 157.365 171.223 165.32C171.459 176.929 169.669 204.26 169.669 204.26C168.273 204.945 166.744 205.315 165.189 205.345C163.634 205.375 162.092 205.064 160.67 204.434C160.67 204.434 154.319 165.78 152.877 154.283C151.634 144.265 147.247 117.505 147.247 117.505L141.032 151.387C141.97 155.602 142.309 159.929 142.039 164.238C141.654 169.546 136.732 196.156 136.732 196.156C135.324 196.953 133.758 197.431 132.145 197.555C130.532 197.68 128.911 197.448 127.398 196.877C127.398 196.877 126.913 155.103 126.826 150.231C126.714 144.675 129.138 96.8606 129.138 96.8606L168.202 98.5385Z" fill="#37474F"/>
<path d="M161.254 207.193V206.037C160.819 206.037 160.558 206.46 160.384 207.492C160.27 208.262 160.112 209.026 159.912 209.779C159.556 211.194 159.086 212.578 158.508 213.917C157.364 216.739 156.407 217.783 153.785 221.077C152.896 221.989 152.066 222.956 151.299 223.972C150.814 224.842 150.64 227.254 151.473 227.813C154.518 229.851 159.154 229.901 162.435 228.944C163.656 228.601 164.754 227.916 165.597 226.968C166.441 226.021 166.996 224.852 167.196 223.6C167.32 222.854 167.27 222.083 167.357 221.338C167.646 219.632 168.341 218.02 169.383 216.639C169.988 215.842 170.509 214.984 170.937 214.079C171.608 212.426 171.073 210.549 170.638 208.896C170.266 207.467 169.855 205.901 169.395 206.037V206.907C168.244 207.819 166.812 208.302 165.344 208.275C164.113 208.324 161.242 208.088 161.254 207.193Z" fill="#263238"/>
<path d="M128.106 198.481C127.684 198.481 127.348 199.09 126.416 200.096C125.032 201.489 123.428 202.644 121.668 203.514C118.635 205.031 112.756 207.355 110.084 208.56C108.419 209.306 108.506 211.32 110.221 212.463C111.936 213.607 116.1 214.427 121.084 213.321C123.793 212.712 127.298 210.201 129.573 210.338C131.847 210.475 135.999 210.437 137.652 209.294C139.305 208.15 138.646 205.727 138.174 203.639C137.664 201.364 137.03 197.797 136.272 197.958V198.742C135.303 200.221 130.281 200.817 128.156 199.736L128.106 198.481Z" fill="#263238"/>
<path d="M147.259 117.505C143.074 116.213 139.222 114.019 135.974 111.079C135.974 111.079 138.149 115.156 144.674 118.935L141.542 149.075L147.259 117.505Z" fill="#263238"/>
<path d="M154.182 39.3017C156.942 39.9729 162.485 40.8802 163.728 46.3614C165.219 52.9363 165.704 67.267 165.704 67.267L166.214 99.16C160.645 103.212 140.2 105.375 128.479 96.8606C128.479 96.8606 129.921 58.5791 129.921 52.6132C129.921 46.6473 133.227 39.4881 142.35 38.9413L154.182 39.3017Z" fill="#F5F5F5"/>
<path d="M142.499 38.3447C139.985 40.4505 138.166 43.2663 137.279 46.4235C136.16 51.246 136.036 105.101 136.036 105.101C136.036 105.101 130.318 104.045 127.646 101.944C127.646 101.944 127.982 59.4367 128.529 52.4019C129.361 41.7502 129.274 38.73 142.536 37.5492L142.499 38.3447Z" fill="#BCE76F"/>
<path d="M156.593 37.5492C156.593 37.5492 148.974 42.2349 148.887 60.8909C148.813 77.0487 148.278 105.101 148.278 105.101C148.278 105.101 160.894 106.953 168.886 102.18C168.886 102.18 169.843 63.0785 169.681 57.0255C169.507 50.0901 167.892 41.1288 165.667 40.2339C162.713 39.1145 159.68 38.2172 156.593 37.5492Z" fill="#BCE76F"/>
<path d="M184.932 80.3797C177.35 49.3817 171.745 39.0407 162.56 39.165C159.862 42.3717 160.608 52.0912 164.859 57.9826C164.859 57.9826 174.342 77.9685 175.846 85.0779C177.176 91.2924 178.68 99.1849 178.593 104.554C178.562 105.504 178.186 106.409 177.537 107.102C175.809 108.979 175.797 110.495 174.678 112.571C173.795 114.187 172.838 114.796 173.112 115.169C173.474 115.553 173.967 115.788 174.494 115.827C175.021 115.867 175.543 115.707 175.958 115.38C176.767 114.79 177.491 114.092 178.108 113.304C177.811 115.292 177.238 117.229 176.406 119.059C174.454 123.446 174.926 125.684 180.855 124.118C184.584 123.136 186.896 120.053 187.443 111.129C187.716 107.846 187.749 104.548 187.542 101.261C186.734 92.8088 186.162 85.3762 184.932 80.3797Z" fill="#FFA8A7"/>
<path d="M160.956 38.6554C160.956 38.6554 167.059 38.3819 170.365 41.7253C173.671 45.0688 178.133 52.1036 182.458 67.4783C186.784 82.8531 188.114 94.0889 188.325 102.74C188.325 102.74 182.906 105.225 177.909 102.392C177.909 102.392 175.697 89.0054 173.733 81.8836C171.769 74.7617 164.449 59.7599 164.449 59.7599C164.449 59.7599 157.451 49.3568 160.956 38.6554Z" fill="#BCE76F"/>
<path opacity="0.1" d="M160.956 38.6554C160.956 38.6554 167.059 38.3819 170.365 41.7253C173.671 45.0688 178.133 52.1036 182.458 67.4783C186.784 82.8531 188.114 94.0889 188.325 102.74C188.325 102.74 182.906 105.225 177.909 102.392C177.909 102.392 175.697 89.0054 173.733 81.8836C171.769 74.7617 164.449 59.7599 164.449 59.7599C164.449 59.7599 157.451 49.3568 160.956 38.6554Z" fill="black"/>
<path opacity="0.1" d="M157.451 47.7534L153.959 52.0663L155.711 56.9882L151.125 68.7461L156.643 56.9882L154.717 52.3398L157.451 47.7534Z" fill="black"/>
<path opacity="0.1" d="M132.842 46.3614L133.6 50.8234L130.58 54.7634L134.781 67.9879L131.524 54.9126L134.308 51.2336L132.842 46.3614Z" fill="black"/>
<path d="M152.082 14.5287C153.066 8.47124 148.952 2.7636 142.895 1.78034C136.837 0.797071 131.13 4.91052 130.146 10.968C129.163 17.0255 133.277 22.7331 139.334 23.7164C145.392 24.6996 151.099 20.5862 152.082 14.5287Z" fill="#263238"/>
<path d="M160.31 20.6332C160.31 20.6332 158.508 29.0974 157.824 30.4895C157.34 31.3427 156.549 31.9786 155.612 32.2668L155.736 26.3133L160.31 20.6332Z" fill="#263238"/>
<path d="M158.048 8.51493C158.68 8.44419 159.321 8.51944 159.92 8.7349C160.519 8.95037 161.06 9.30031 161.503 9.75783C162.982 11.2742 162.162 15.9724 160.26 20.6581L156.867 21.0434L158.048 8.51493Z" fill="#263238"/>
<path d="M155.86 21.031C156.544 21.4287 157.513 20.1237 158.346 19.2536C158.674 18.8682 159.095 18.5737 159.57 18.3985C160.044 18.2232 160.556 18.1731 161.056 18.253C161.555 18.333 162.026 18.5402 162.422 18.8548C162.818 19.1694 163.127 19.5807 163.318 20.0491C164.71 22.9823 162.075 26.8602 159.962 27.5065C156.233 28.6749 155.686 26.2636 155.686 26.2636L155.413 40.0723C152.84 43.366 147.073 47.2439 143.966 46.6846C141.48 46.2495 140.945 42.0609 143.319 39.3141V35.2623C141.676 35.5237 140.009 35.6071 138.348 35.5108C135.613 35.0882 133.898 32.938 133.065 29.9799C131.735 25.232 131.226 21.4039 132.357 12.0572C133.6 1.81569 145.507 1.71624 151.933 5.75569C158.358 9.79513 155.86 21.031 155.86 21.031Z" fill="#FFA8A7"/>
<path d="M155.86 22.1745C156.208 22.1745 157.513 20.0242 158.346 19.2536C159.514 18.1847 157.998 8.51493 157.998 8.51493C158.404 7.66447 158.544 6.7114 158.4 5.78014C158.256 4.84889 157.834 3.98272 157.19 3.29473C155.587 1.52981 153.35 -0.632837 146.004 0.237196C140.809 0.84622 135.153 2.462 130.58 0.237196C130.157 1.72808 130.189 3.31125 130.671 4.78382C131.154 6.2564 132.066 7.55129 133.289 8.50251C135.162 9.4324 137.204 9.97357 139.292 10.0934C143.309 10.3971 147.346 10.3222 151.348 9.86971C152.591 9.6957 152.877 10.9137 153.561 14.2572C154.257 17.178 154.754 22.1496 155.86 22.1745Z" fill="#263238"/>
<path d="M158.048 9.2731L162.162 7.06074C162.03 6.78352 161.843 6.53589 161.613 6.33277C161.383 6.12966 161.114 5.97525 160.822 5.87886C160.531 5.78247 160.223 5.74609 159.917 5.77192C159.611 5.79774 159.313 5.88523 159.042 6.02912C158.496 6.34329 158.09 6.85294 157.905 7.4551C157.721 8.05725 157.772 8.70702 158.048 9.2731Z" fill="#263238"/>
<path d="M143.344 35.2623C146.153 34.7265 148.907 33.9361 151.572 32.9008C152.826 32.2466 153.853 31.2284 154.518 29.9799C154.197 31.2292 153.627 32.4005 152.84 33.4228C151.286 35.4114 143.344 36.878 143.344 36.878V35.2623Z" fill="#F28F8F"/>
<path d="M144.811 19.5022C144.811 19.8319 144.942 20.148 145.175 20.3811C145.408 20.6142 145.724 20.7451 146.054 20.7451C146.383 20.7451 146.699 20.6142 146.933 20.3811C147.166 20.148 147.297 19.8319 147.297 19.5022C147.297 19.1726 147.166 18.8564 146.933 18.6233C146.699 18.3903 146.383 18.2593 146.054 18.2593C145.724 18.2593 145.408 18.3903 145.175 18.6233C144.942 18.8564 144.811 19.1726 144.811 19.5022Z" fill="#263238"/>
<path d="M146.104 14.891L148.714 16.3328C148.899 15.9731 148.94 15.5558 148.826 15.1671C148.713 14.7785 148.455 14.4483 148.105 14.2447C147.932 14.1512 147.742 14.0937 147.546 14.0757C147.35 14.0578 147.153 14.0796 146.966 14.14C146.779 14.2004 146.606 14.2981 146.458 14.4272C146.31 14.5563 146.189 14.7141 146.104 14.891Z" fill="#263238"/>
<path d="M143.891 27.9415L141.107 28.9856C141.166 29.1736 141.262 29.3478 141.39 29.4976C141.518 29.6473 141.675 29.7695 141.852 29.8567C142.028 29.9438 142.221 29.9942 142.418 30.0047C142.615 30.0152 142.811 29.9856 142.996 29.9177C143.372 29.7676 143.675 29.478 143.841 29.1097C144.008 28.7413 144.026 28.3227 143.891 27.9415Z" fill="#F28F8F"/>
<path d="M133.911 15.9102L136.297 14.0707C136.185 13.9098 136.041 13.7732 135.874 13.6693C135.708 13.5654 135.522 13.4962 135.328 13.466C135.134 13.4358 134.936 13.4452 134.746 13.4936C134.556 13.542 134.377 13.6284 134.221 13.7476C133.903 14.0002 133.694 14.365 133.636 14.7671C133.578 15.1692 133.677 15.5782 133.911 15.9102Z" fill="#263238"/>
<path d="M134.644 19.1045C134.644 19.4341 134.775 19.7503 135.008 19.9833C135.241 20.2164 135.557 20.3474 135.887 20.3474C136.216 20.3474 136.533 20.2164 136.766 19.9833C136.999 19.7503 137.13 19.4341 137.13 19.1045C137.13 18.7748 136.999 18.4587 136.766 18.2256C136.533 17.9925 136.216 17.8616 135.887 17.8616C135.557 17.8616 135.241 17.9925 135.008 18.2256C134.775 18.4587 134.644 18.7748 134.644 19.1045Z" fill="#263238"/>
<path d="M140.871 17.9983L140.473 25.3439L136.633 24.0388L140.871 17.9983Z" fill="#F28F8F"/>
<path d="M139.541 45.8891C140.287 47.6789 141.679 48.3749 144.177 48.6856C145.441 48.7635 146.708 48.5833 147.9 48.1559C149.093 47.7286 150.185 47.063 151.112 46.1998L148.005 43.105L144.04 46.0755L143.705 42.757L139.541 45.8891Z" fill="#BCE76F"/>
<path opacity="0.1" d="M139.541 45.8891C140.287 47.6789 141.679 48.3749 144.177 48.6856C145.441 48.7635 146.708 48.5833 147.9 48.1559C149.093 47.7286 150.185 47.063 151.112 46.1998L148.005 43.105L144.04 46.0755L143.705 42.757L139.541 45.8891Z" fill="black"/>
<path d="M141.505 44.9196C141.138 45.9937 140.999 47.1322 141.095 48.263C141.213 49.2702 141.6 50.2272 142.213 51.0347C142.607 51.2885 143.055 51.4475 143.521 51.4993C143.986 51.551 144.458 51.4941 144.898 51.333C145.702 50.6421 146.349 49.7861 146.793 48.8231C147.236 47.8601 147.468 46.8128 147.471 45.7524L144.04 46.1377L141.505 44.9196Z" fill="#BCE76F"/>
<path d="M142.188 51.0347C142.188 51.0347 138.124 73.407 137.962 75.2465C137.801 77.086 140.287 83.4745 141.84 83.5243C143.394 83.574 146.427 77.7696 146.464 76.0668C146.501 74.364 144.873 51.2709 144.873 51.2709L142.188 51.0347Z" fill="#BCE76F"/>
<path opacity="0.1" d="M144.898 51.333C144.464 51.525 143.987 51.5985 143.515 51.5461C143.044 51.4937 142.594 51.3173 142.213 51.0347V51.3952C142.601 51.7046 143.058 51.9159 143.544 52.0112C144.031 52.1064 144.534 52.0827 145.01 51.942L144.898 51.333Z" fill="black"/>
<path d="M144.04 46.1377L155.475 37.4373V34.8521C155.475 34.8521 158.135 35.8588 158.731 40.5446C156.897 44.6082 153.762 47.945 149.82 50.028L147.421 45.7524L144.04 46.1377Z" fill="#E0E0E0"/>
<path d="M143.344 36.0328C141.85 36.269 140.509 37.0866 139.615 38.3074C138.472 40.1841 138.733 47.4054 138.733 47.4054L141.467 44.9196L143.953 46.1625C143.717 43.7637 143.245 39.3887 143.245 39.3887L143.344 36.0328Z" fill="#E0E0E0"/>
<path d="M98.6866 115.144C99.7545 113.644 100.379 111.873 100.489 110.035C100.812 107.686 107.25 105.163 107.462 106.916C107.673 108.668 108.257 110.122 106.219 112.248C104.18 114.373 101.682 116.722 98.6866 115.144Z" fill="#FFA8A7"/>
<path d="M99.0222 99.9679C97.481 101.957 96.5364 105.822 95.7161 107.127C94.8958 108.432 93.9263 109.613 95.7161 109.799C97.5059 109.986 100.104 106.555 101.073 104.442C101.449 103.607 102.02 102.873 102.739 102.305C103.021 102.078 103.335 101.894 103.671 101.758C102.838 101.472 103.273 98.1159 102.689 97.6561C102.689 97.6561 99.6561 98.899 99.0222 99.9679Z" fill="#FFA8A7"/>
</svg>
