<svg width="269" height="260" viewBox="0 0 269 260" fill="none" xmlns="http://www.w3.org/2000/svg">
<path d="M164.78 259.231L267.577 199.878L102.797 104.793L3.05176e-05 164.146L164.78 259.231Z" fill="#E0E0E0"/>
<path d="M157.226 159.303C157.068 157.247 158.695 154.889 162.314 152.127C168.992 146.995 193.274 130.109 202.707 123.86C202.708 123.839 202.716 123.819 202.729 123.803C202.743 123.787 202.762 123.776 202.782 123.772C210.002 118.557 211.61 82.8435 215.551 65.7621C215.589 65.6045 215.86 64.293 216.408 62.6094L216.49 62.3824C216.566 62.1491 216.648 61.9158 216.736 61.6762C216.774 61.5627 216.812 61.4366 216.856 61.3294C217.532 59.3606 218.588 57.5439 219.965 55.9824C220.44 55.4599 220.985 55.0058 221.585 54.6331C222.399 54.0845 224.391 53.0882 224.82 52.7919C229.732 49.2924 242.191 58.1704 250.987 62.1113C256.461 64.5704 261.208 67.6285 264.437 73.7763C266.204 77.3163 267.394 81.116 267.962 85.0315C269.406 93.7582 269.115 123.053 268.346 135.916C267.457 157.386 264.292 157.676 259.966 161.605C252.532 168.358 230.697 182.173 223.395 185.735C210.154 192.192 198.369 184.802 189.73 181.359C181.092 177.917 164.723 169.902 161.022 167.639C158.827 166.289 157.623 164.846 157.516 163.225C157.497 162.588 157.276 159.978 157.226 159.303Z" fill="#263238"/>
<path d="M189.44 177.393C180.802 173.957 164.433 165.93 160.732 163.666C155.731 160.615 155.883 157.065 162.308 152.127C171.236 145.267 207.884 120.43 207.884 120.43C207.884 120.43 250.477 140.954 260.572 149.921C262.098 151.276 262.161 154.145 261.631 154.814C256.095 161.75 231.466 177.683 223.105 181.769C209.895 188.226 198.079 180.836 189.44 177.393Z" fill="#455A64"/>
<path d="M221.592 54.6268L221.73 54.5448C222.828 53.8559 224.086 53.4628 225.381 53.4035C229.845 53.0441 236.895 56.1653 247.45 62.9878C250.688 64.9948 253.719 67.3181 256.498 69.9237L256.662 70.0814C257.503 70.881 258.277 71.7477 258.976 72.6729C259.096 72.8242 259.21 72.9756 259.323 73.1332C259.437 73.2908 259.456 73.3098 259.512 73.398C259.657 73.6061 259.802 73.8142 259.941 74.0286C260.219 74.4573 260.49 74.905 260.755 75.3653L260.836 75.5103L261.139 76.0778L264.418 73.8079C261.19 67.6601 256.221 64.4948 251.12 61.361C242.292 55.9635 232.513 48.9519 226.27 51.9785C225.822 52.1551 222.411 54.0782 221.592 54.6268Z" fill="#455A64"/>
<path d="M215.57 65.7558C216.144 63.5048 218.092 53.7755 225.4 53.4035C229.864 53.0441 236.914 56.1716 247.469 62.9878C252.381 66.1405 258.043 70.2264 260.855 75.4851C264.992 82.0175 265.641 100.139 265.395 117.574C265.149 135.008 264.021 151.743 261.662 154.826C257.52 143.199 208.533 120.317 202.801 123.772C210.002 118.557 211.623 82.8435 215.57 65.7558Z" fill="#37474F"/>
<path d="M245.937 122.587C250.243 132.436 251.082 142.518 250.004 148.161C248.926 153.805 247.904 161.598 233.849 170.476C217.802 180.609 206.112 186.461 206.112 186.461L152.812 152.31L189.175 130.197L245.937 122.587Z" fill="#BCE7DF"/>
<path opacity="0.15" d="M245.937 122.587C250.243 132.436 251.082 142.518 250.004 148.161C248.926 153.805 247.904 161.598 233.849 170.476C217.802 180.609 206.112 186.461 206.112 186.461L152.812 152.31L189.175 130.197L245.937 122.587Z" fill="black"/>
<path opacity="0.35" d="M232.45 159.524C232.891 159.045 233.313 158.565 233.711 158.086C229.631 157.008 227.229 151.938 227.733 146.213C228.029 142.934 228.364 139.208 227.916 135.689L228.628 135.595C229.082 139.195 228.748 142.959 228.452 146.276C227.941 152.052 230.344 156.718 234.24 157.474C242.053 148.111 240.848 139.018 237.046 126.95L237.733 126.736C241.901 139.977 242.538 149.675 232.979 160.009C226.674 166.806 209.555 176.082 199.529 182.261L198.854 181.832C208.861 175.678 226.15 166.327 232.45 159.524Z" fill="black"/>
<path opacity="0.35" d="M188.715 140.135C190.897 147.152 195.437 150.52 195.437 150.52C186.95 156.699 179.988 162.437 175.133 166.649L169.193 162.866L190.046 148.868C187.612 143.861 188.715 140.135 188.715 140.135Z" fill="black"/>
<path d="M164.78 244.735L258.396 190.685L102.476 100.688L8.8593 154.744L164.78 244.735Z" fill="#BCE7DF"/>
<path opacity="0.8" d="M164.78 244.735L258.396 190.685L102.476 100.688L8.8593 154.744L164.78 244.735Z" fill="white"/>
<path d="M258.396 190.685V197.438L164.78 251.488V244.735L258.396 190.685Z" fill="#BCE7DF"/>
<path opacity="0.5" d="M258.396 190.685V197.438L164.78 251.488V244.735L258.396 190.685Z" fill="white"/>
<path d="M164.78 251.488L8.85922 161.497V154.744L164.78 244.735V251.488Z" fill="#BCE7DF"/>
<path opacity="0.65" d="M164.78 244.735L8.85922 154.744V161.497L164.78 251.488V244.735Z" fill="white"/>
<path opacity="0.2" d="M70.873 150.242L111.53 126.748C111.886 126.542 112.289 126.434 112.7 126.434C113.111 126.434 113.514 126.542 113.87 126.748L184.478 167.506C184.556 167.553 184.621 167.619 184.666 167.698C184.712 167.777 184.735 167.866 184.735 167.957C184.735 168.048 184.712 168.138 184.666 168.217C184.621 168.296 184.556 168.362 184.478 168.408L143.411 192.135L70.873 150.242Z" fill="#BCE7DF"/>
<path d="M73.9122 145.292V146.207C73.9162 146.867 74.0929 147.515 74.4247 148.085C74.7566 148.656 75.232 149.13 75.8038 149.46L141.557 187.419C142.131 187.753 142.784 187.925 143.448 187.917C144.112 187.92 144.765 187.746 145.34 187.413L181.18 166.794C181.753 166.463 182.229 165.988 182.561 165.416C182.893 164.844 183.069 164.195 183.072 163.534V162.273C183.071 162.356 183.049 162.438 183.007 162.51C182.965 162.582 182.905 162.642 182.832 162.683L143.474 185.414L73.9122 145.292Z" fill="#37474F"/>
<path d="M73.9052 145.286L112.892 122.776C113.232 122.581 113.618 122.478 114.011 122.478C114.404 122.478 114.789 122.581 115.13 122.776L182.781 161.869C182.855 161.913 182.917 161.976 182.96 162.051C183.003 162.127 183.026 162.212 183.026 162.298C183.026 162.385 183.003 162.47 182.96 162.545C182.917 162.62 182.855 162.683 182.781 162.727L143.429 185.426L73.9052 145.286Z" fill="#455A64"/>
<path d="M143.411 185.42V187.942C142.747 187.947 142.094 187.775 141.519 187.444L75.7661 149.486C75.1934 149.155 74.7173 148.68 74.3854 148.108C74.0535 147.536 73.8773 146.887 73.8745 146.226V145.286L143.411 185.42Z" fill="#263238"/>
<path d="M143.77 182.11L164.799 169.984L103.314 134.485L82.1787 146.547L143.77 182.11Z" fill="#37474F"/>
<path d="M82.1786 146.547L82.9794 147.014L103.314 135.412L163.991 170.445L164.792 169.984L103.314 134.485L82.1786 146.547Z" fill="#263238"/>
<path d="M154.105 148.376L153.72 148.596L143.411 154.549L125.081 143.968L124.702 143.748L135.396 137.575L154.105 148.376Z" fill="#263238"/>
<path d="M153.72 148.596L143.411 154.549L125.081 143.968L135.396 138.016L153.72 148.596Z" fill="#37474F"/>
<path d="M130.1 127.625C132.029 124.785 134.316 122.206 136.903 119.951C139.974 117.429 141.235 116.666 146.778 114.018L154.975 125.09L152.503 125.834C151.469 126.2 150.908 126.3 150.504 127.265C150.282 128.354 150.128 129.455 150.044 130.563C149.84 132.408 149.439 134.226 148.846 135.986C147.976 138.596 147.415 138.413 145.844 140.494C144.394 142.386 143.808 143.691 143.001 143.59C142.194 143.489 141.191 141.906 141.601 140.135C142.011 138.363 143.493 135.815 143.707 135.09C143.883 134.46 144.199 133.268 142.288 133.867C140.283 134.498 136.828 138.848 135.094 140.639C133.36 142.43 132.288 145.166 130.68 146.371C129.072 147.575 126.626 147.512 127.307 144.895C127.048 143.382 126.115 140.765 125.888 138.338C125.661 135.91 128.309 130.222 130.1 127.625Z" fill="#FFA8A7"/>
<path d="M142.351 185.975C141.731 186.215 141.064 186.313 140.401 186.261C139.738 186.21 139.094 186.011 138.518 185.679L73.0673 147.884C72.5 147.556 72.0121 147.106 71.6383 146.568C71.2644 146.03 71.0139 145.415 70.9046 144.769L63.7353 102.037C63.6979 101.795 63.6789 101.551 63.6786 101.306C63.6777 100.719 63.7937 100.138 64.02 99.5967C64.2463 99.0554 64.5782 98.5646 64.9964 98.1531L133.007 137.417C133.427 137.661 133.788 137.994 134.064 138.393C134.341 138.791 134.527 139.246 134.608 139.725L142.351 185.975Z" fill="#37474F"/>
<path d="M143.409 185.42L142.961 185.679C142.766 185.786 142.558 185.887 142.331 185.975L134.588 139.725C134.506 139.246 134.321 138.791 134.044 138.392C133.767 137.994 133.406 137.661 132.986 137.417L64.9632 98.1404C65.2326 97.8687 65.5381 97.6353 65.8712 97.4469L134.033 136.799C134.453 137.043 134.814 137.376 135.09 137.775C135.367 138.173 135.553 138.628 135.634 139.107L143.409 185.42Z" fill="#455A64"/>
<path d="M133.971 138.293L135.031 137.663C135.349 138.082 135.565 138.57 135.661 139.088L143.417 185.401L142.969 185.66C142.774 185.767 142.566 185.868 142.339 185.956L134.595 139.706C134.503 139.192 134.289 138.708 133.971 138.293Z" fill="#263238"/>
<path d="M104.134 145.74C103.768 143.558 101.511 140.652 99.0898 139.258C96.6685 137.865 95.0102 138.501 95.3759 140.689C95.7417 142.877 97.999 145.778 100.42 147.171C102.842 148.565 104.5 147.928 104.134 145.74Z" fill="#BCE7DF"/>
<path d="M190.979 57.3318C186.647 58.3533 180.259 60.3647 177.466 69.104C174.137 79.5521 170.656 103.197 170.656 103.197L146.79 114.018L154.987 125.09C154.987 125.09 172.567 120.726 181.048 118.255C190.197 115.588 189.875 112.838 192.82 97.7432C194.711 87.9635 196.735 75.9517 196.735 75.9517C195.796 67.7357 190.979 57.3318 190.979 57.3318Z" fill="#FFA8A7"/>
<path d="M190.348 57.1615C183.412 58.7694 180.89 61.4555 178.614 64.7974C176.337 68.1393 174.049 79.5836 172.308 88.4553C170.568 97.3271 169.748 102.788 169.748 102.788L156.929 109.408C156.929 109.408 160.082 108.822 163.02 114.617C164.912 118.293 163.947 122.814 163.947 122.814C163.947 122.814 180.682 119.383 183.879 118.267C187.076 117.151 189.276 116.054 190.947 110.701C192.618 105.348 197.883 74.6969 197.883 74.6969L190.348 57.1615Z" fill="#EBEBEB"/>
<path d="M184.213 65.8819C187.366 60.4719 189.932 57.9875 190.966 57.3318C194.119 56.386 204.68 55.5662 209.996 56.7769C219.378 58.0947 226.169 59.6269 232.948 62.1113C235.217 62.9436 236.504 65.3901 237.097 66.8466C238.32 69.9489 238.572 77.6226 238.641 81.7653C238.793 91.7341 238.427 99.2817 239.902 106.18C240.798 110.392 247.469 120.102 249.991 136.238C226.938 157.525 190.808 138.546 189.169 130.222C189.169 130.222 190.172 124.497 191.477 117.744C191.477 115.524 188.274 107.145 188.368 107.277C172.51 98.9791 175.215 80.4411 184.213 65.8819Z" fill="#263238"/>
<path d="M195.437 105.612C198.987 109.471 212.84 111.691 220.658 102.409C219.435 110.241 203.073 116.168 195.437 105.612Z" fill="black"/>
<path d="M177.05 26.0254C178.879 29.0709 177.863 31.5489 179.534 34.6764C180.165 35.8177 210.923 43.359 216.219 45.528C217.304 42.0089 218.66 38.579 220.274 35.2691C223.155 29.4807 224.442 23.6356 223.622 19.2659C222.682 14.2216 219.429 12.5128 217.821 12.5128C217.821 8.3954 213.294 2.73944 203.949 0.690175C185.342 -3.40204 168.279 11.4283 177.05 26.0254Z" fill="#263238"/>
<path d="M181.123 14.7324C180.52 14.9519 179.97 15.2986 179.512 15.749C179.054 16.1994 178.698 16.7429 178.469 17.3428C177.409 19.9154 175.947 26.0002 178.267 37.5643C180.285 47.6025 183.759 52.1424 187.366 53.5864C189.535 54.4565 194.566 54.0908 197.625 53.2774C197.791 53.7008 197.931 54.1347 198.041 54.5763C198.488 56.1653 197.29 56.3797 197.29 56.3797C197.29 56.3797 189.018 67.6664 200.235 69.3688C205.113 70.0463 210.068 68.8573 214.107 66.0396C217.274 63.9659 220.292 61.6713 223.136 59.173C219.422 58.2019 219.038 57.2813 218.092 54.0151C216.446 48.1952 214.971 38.8821 214.971 38.8821C214.971 38.8821 217.89 41.4737 220.721 37.9552C224.013 33.8567 224.347 27.8666 220.721 25.7542C216.308 23.1879 213.445 26.265 212.442 29.3799C211.522 32.2236 208.413 32.6839 207.266 29.4366C205.632 24.7958 205.91 18.7174 200.695 15.3881C197.41 13.2758 192.385 13.2947 187.681 18.6796C185.304 14.8774 183.078 14.0766 181.123 14.7324Z" fill="#FFA8A7"/>
<path d="M196.937 40.7422L191.061 43.0121C191.195 43.4043 191.407 43.7655 191.684 44.0742C191.961 44.3829 192.297 44.6329 192.672 44.8094C193.047 44.9858 193.454 45.0851 193.868 45.1013C194.282 45.1175 194.696 45.0503 195.083 44.9038C195.869 44.5818 196.499 43.9696 196.845 43.1946C197.19 42.4195 197.223 41.5411 196.937 40.7422Z" fill="#B16668"/>
<path d="M197.063 42.4825C196.818 42.4905 196.573 42.52 196.332 42.5708C195.665 42.7175 195.041 43.0171 194.509 43.446C193.977 43.875 193.552 44.4215 193.268 45.0425C193.87 45.1935 194.505 45.1538 195.084 44.929C195.596 44.7251 196.047 44.3929 196.393 43.9645C196.74 43.5361 196.971 43.0258 197.063 42.4825Z" fill="#F28F8F"/>
<path d="M195.285 22.5763L199.806 24.0581C199.918 23.7673 199.969 23.4567 199.957 23.1454C199.945 22.8341 199.869 22.5285 199.734 22.2475C199.6 21.9666 199.409 21.716 199.174 21.5112C198.939 21.3065 198.665 21.1518 198.369 21.0567C197.758 20.8732 197.1 20.9279 196.528 21.2099C195.956 21.4918 195.512 21.9801 195.285 22.5763Z" fill="#263238"/>
<path d="M183.816 25.1867L179.597 27.4189C179.438 27.1512 179.334 26.8537 179.293 26.5446C179.253 26.2355 179.276 25.9214 179.361 25.6215C179.446 25.3216 179.591 25.0422 179.788 24.8004C179.985 24.5587 180.229 24.3597 180.505 24.2157C181.077 23.9268 181.738 23.8664 182.352 24.0467C182.967 24.2271 183.49 24.6347 183.816 25.1867Z" fill="#263238"/>
<path d="M184.837 30.3004C184.838 30.78 184.657 31.2421 184.331 31.5933C184.004 31.9445 183.556 32.1585 183.078 32.1921C182.842 32.21 182.605 32.1803 182.381 32.1048C182.158 32.0292 181.951 31.9092 181.775 31.7521C181.598 31.5949 181.455 31.4038 181.354 31.1902C181.253 30.9765 181.196 30.7447 181.186 30.5085C181.185 30.03 181.365 29.5687 181.69 29.2177C182.016 28.8667 182.462 28.652 182.939 28.6169C183.175 28.5989 183.412 28.6286 183.637 28.7041C183.861 28.7796 184.068 28.8995 184.245 29.0565C184.422 29.2136 184.566 29.4046 184.667 29.6183C184.769 29.832 184.827 30.064 184.837 30.3004Z" fill="#263238"/>
<path d="M198.545 29.5249C198.627 30.0016 198.522 30.4914 198.254 30.8937C197.985 31.2959 197.573 31.5801 197.101 31.6876C196.871 31.7402 196.632 31.7459 196.399 31.7045C196.167 31.6631 195.945 31.5755 195.747 31.4467C195.548 31.3179 195.378 31.1506 195.246 30.9548C195.114 30.759 195.022 30.5386 194.976 30.3067C194.895 29.8291 195 29.3385 195.27 28.9361C195.54 28.5337 195.954 28.2502 196.427 28.144C196.657 28.0906 196.895 28.0842 197.128 28.1253C197.36 28.1663 197.582 28.254 197.78 28.383C197.978 28.5119 198.148 28.6796 198.279 28.8758C198.411 29.072 198.501 29.2928 198.545 29.5249Z" fill="#263238"/>
<path d="M190.197 28.0809L190.947 38.8506L184.528 37.6526L190.197 28.0809Z" fill="#F28F8F"/>
<path d="M212.568 40.7422C212.568 40.7422 213.615 46.3855 210.437 49.7337C206.654 53.6998 200.576 55.1816 198.072 55.6482C198.168 55.2957 198.157 54.9225 198.041 54.5763C197.93 54.1347 197.791 53.7008 197.625 53.2774C200.304 52.5396 205.702 50.9885 208.754 48.3339C209.879 47.4001 210.798 46.2435 211.455 44.937C212.112 43.6305 212.491 42.2023 212.568 40.7422Z" fill="#F28F8F"/>
<path d="M216.396 36.2401C216.396 36.497 216.472 36.7482 216.615 36.9618C216.757 37.1754 216.96 37.3419 217.198 37.4402C217.435 37.5385 217.696 37.5642 217.948 37.5141C218.2 37.464 218.432 37.3403 218.613 37.1586C218.795 36.977 218.919 36.7455 218.969 36.4935C219.019 36.2416 218.993 35.9804 218.895 35.7431C218.796 35.5057 218.63 35.3029 218.416 35.1601C218.203 35.0174 217.952 34.9412 217.695 34.9412C217.35 34.9412 217.02 35.0781 216.776 35.3217C216.533 35.5653 216.396 35.8956 216.396 36.2401Z" fill="#BCE7DF"/>
<path d="M218.155 54.0466C218.155 54.0466 217.865 58.8262 216.566 62.3068C214.126 68.8076 210.62 76.8534 205.179 84.1298C199.737 91.4063 191.742 100.707 191.742 100.707C191.742 100.707 185.922 84.5964 192.309 67.288C193.567 63.9758 195.018 60.7398 196.654 57.5966C196.968 57.0412 197.37 56.5407 197.845 56.1148C198.091 55.8752 198.28 55.4212 198.047 54.5763L197.795 53.7188C196.977 54.3479 196.099 54.8929 195.172 55.3456C193.84 55.9694 192.469 56.5044 191.067 56.9471C190.544 57.1237 190.386 57.1615 190.386 57.1615C187.545 59.7925 185.069 62.791 183.021 66.0774C178.753 73.4295 176.054 82.0806 176.281 88.0013C176.672 98.3422 180.55 102.535 185.108 107.22C187.996 110.178 188.81 126.137 185.903 129.863C182.996 133.59 176.949 137.575 176.949 137.575C176.949 137.575 185.48 139.025 201.067 146.686C216.654 154.347 225.501 161.188 227.992 165.356C229.464 167.757 230.297 170.494 230.413 173.307C230.413 173.307 242.141 167.33 246.58 161.478C251.019 155.627 252.684 146.585 251.7 138.274C250.716 129.964 232.784 61.3799 232.784 61.3799C232.784 61.3799 225.141 57.2624 221.831 54.8096C220.173 53.5864 218.243 52.382 217.739 52.4892L218.155 54.0466Z" fill="#FAFAFA"/>
<path d="M201.509 94.2816L211.181 87.3456C212.789 86.1917 214.372 85.0126 215.942 83.8335C217.501 82.702 218.992 81.4787 220.406 80.17C220.564 80.0124 220.709 79.8548 220.829 79.7097C220.948 79.5647 220.948 79.5647 220.974 79.5206V79.4575C220.974 79.3819 220.974 79.3251 220.974 79.2368C220.967 79.0585 220.944 78.8812 220.904 78.7072C220.694 77.853 220.376 77.0289 219.958 76.2544C219.055 74.5753 218.02 72.9708 216.863 71.4559L216.818 71.4055C216.675 71.2076 216.597 70.9703 216.594 70.7261C216.591 70.4819 216.663 70.2427 216.801 70.0412C216.939 69.8397 217.136 69.6857 217.365 69.6004C217.594 69.515 217.843 69.5024 218.079 69.5643C218.893 69.8039 219.763 70.0246 220.602 70.1949C221.395 70.3693 222.204 70.4581 223.017 70.4597L223.307 70.4282V70.2453V69.5769C223.307 68.6753 223.307 67.7862 223.307 66.8908C223.307 65.1001 223.181 63.303 222.998 61.5186C222.82 59.7199 222.529 57.934 222.128 56.1716C222.904 57.8324 223.512 59.5666 223.944 61.3484C224.388 63.135 224.716 64.9484 224.927 66.7773C225.047 67.6916 225.116 68.6059 225.179 69.5265L225.217 70.2138V70.5543C225.222 70.6214 225.222 70.6889 225.217 70.756C225.216 70.9007 225.197 71.0447 225.16 71.1848C225.077 71.4766 224.913 71.7389 224.688 71.9415C224.515 72.0932 224.319 72.2166 224.107 72.3072C223.808 72.4264 223.494 72.5049 223.174 72.5405C222.268 72.622 221.355 72.5902 220.457 72.4459C221.03 73.2971 221.566 74.1799 222.071 75.1131C222.605 76.0823 223.012 77.1165 223.281 78.1901C223.348 78.4995 223.39 78.8137 223.408 79.1296C223.417 79.304 223.417 79.4787 223.408 79.653L223.37 79.9367V80.0755C223.355 80.1595 223.331 80.2418 223.3 80.3214C223.26 80.4512 223.205 80.576 223.136 80.6934C223.073 80.8069 223.023 80.8762 222.972 80.9519C222.879 81.0913 222.776 81.224 222.664 81.3492C222.479 81.5696 222.284 81.7801 222.077 81.9797C220.566 83.3562 218.969 84.6366 217.298 85.8134C215.677 86.9862 214.012 88.0959 212.354 89.1994C210.696 90.3028 209.019 91.3685 207.31 92.4152C205.601 93.4619 203.924 94.5023 202.209 95.5111C198.785 97.5352 195.317 99.4898 191.78 101.312C195.058 98.9098 198.28 96.5894 201.509 94.2816ZM223.363 70.6804C223.363 70.6804 223.363 70.7119 223.363 70.7182C223.363 70.7245 223.363 70.7056 223.363 70.6804Z" fill="#E0E0E0"/>
<path d="M192.549 104.414C192.694 107.346 193.009 110.266 193.337 113.179C193.665 116.092 194.062 118.999 194.283 121.906C194.415 123.362 194.504 124.819 194.51 126.269C194.537 127.715 194.403 129.159 194.113 130.576C193.795 131.996 193.339 133.381 192.751 134.712C192.205 136.067 191.409 137.308 190.405 138.369C190.976 137.902 191.475 137.354 191.887 136.742C192.312 136.14 192.694 135.508 193.028 134.851C193.682 133.522 194.204 132.133 194.585 130.702C194.935 129.257 195.103 127.774 195.084 126.288C195.084 124.806 195.027 123.337 194.907 121.874C194.636 118.942 194.277 116.035 193.816 113.135C193.356 110.234 192.952 107.321 192.549 104.414Z" fill="#E0E0E0"/>
<path d="M181.785 71.7397C181.97 71.2374 182.218 70.7607 182.523 70.321C183.047 69.5576 183.636 68.8404 184.282 68.1771C184.913 67.5466 185.543 66.916 186.212 66.3612C186.88 65.8063 187.612 65.1758 188.33 64.6146C188.184 64.5643 188.041 64.5054 187.902 64.438C187.794 64.3932 187.693 64.336 187.599 64.2678C187.483 64.1932 187.377 64.1042 187.284 64.0029C187.042 63.7627 186.891 63.4465 186.855 63.1076C186.834 62.9302 186.847 62.7505 186.893 62.5779C186.91 62.5038 186.935 62.4319 186.968 62.3635L187.05 62.1933C187.147 62.0289 187.255 61.8709 187.372 61.7204C187.586 61.4556 187.807 61.2159 188.003 60.989C188.444 60.5413 188.898 60.1314 189.352 59.7279C190.281 58.9418 191.227 58.183 192.189 57.4516C193.154 56.7265 194.131 56.0203 195.14 55.3519L192.669 57.9876C191.849 58.864 191.029 59.7405 190.254 60.6358C189.863 61.0772 189.472 61.5249 189.125 61.9789C188.954 62.1942 188.796 62.4195 188.652 62.6536C188.621 62.702 188.594 62.7526 188.57 62.8049H188.62C188.824 62.8737 189.036 62.9161 189.251 62.931C189.779 62.9814 190.312 62.9814 190.84 62.931C191.051 62.9108 191.264 62.9586 191.446 63.0675C191.628 63.1763 191.771 63.3406 191.853 63.5363C191.936 63.732 191.953 63.9488 191.904 64.1553C191.854 64.3617 191.74 64.547 191.578 64.6839L191.508 64.747C190.247 65.8126 188.942 66.9097 187.725 68.0699C187.095 68.6437 186.552 69.2427 185.997 69.8355C185.46 70.4017 184.973 71.0135 184.541 71.664C184.362 71.9282 184.214 72.2116 184.099 72.509C184.035 72.8072 184.003 73.1117 184.005 73.4169C184.002 74.2151 184.042 75.0128 184.125 75.8067C184.289 77.4461 184.585 79.1044 184.875 80.7565C185.165 82.4085 185.506 84.0668 185.89 85.7188C186.275 87.3708 186.659 89.0102 187.082 90.6497C187.87 93.9555 188.963 97.1809 190.348 100.284C189.267 98.9223 188.345 97.4414 187.599 95.8705C186.817 94.332 186.155 92.7178 185.531 91.1226C184.907 89.5273 184.377 87.869 183.866 86.2232C183.355 84.5775 182.946 82.894 182.555 81.1789C182.188 79.5064 181.906 77.8165 181.71 76.1157C181.596 75.2123 181.543 74.3022 181.552 73.3917C181.551 72.8328 181.63 72.2766 181.785 71.7397ZM188.52 62.9121V62.9436C188.518 62.9227 188.518 62.9016 188.52 62.8806V62.9121Z" fill="#E0E0E0"/>
<path d="M225.93 103.229C225.93 103.229 213.987 105.19 205.796 102.851V98.5882C213.994 100.934 225.93 98.9728 225.93 98.9728V103.229Z" fill="#E0E0E0"/>
<path d="M255.925 112.983C253.333 98.109 250.817 85.8386 247.356 75.1509C245.319 68.8455 240.42 65.3271 232.954 62.1113C224.915 67.8366 228.307 85.744 229.442 89.9371L235.747 115.392C235.747 115.392 228.874 120.935 221.547 126.307C215.356 130.847 211.188 133.571 203.892 134.434C196.597 135.298 193.621 135.065 189.806 136.711C187.776 137.594 183.147 139.636 181.565 140.431C179.982 141.225 177.151 144.088 174.534 146.011C172.069 147.972 175.165 149.063 177.056 148.533C179.579 147.802 181.098 146.711 182.807 145.746C184.421 144.838 186.048 144.485 187.738 143.855C187.199 145.732 186.848 147.658 186.691 149.605C186.691 150.658 186.451 151.932 187.366 152.701C188.049 153.113 188.791 153.419 189.566 153.609C189.585 153.989 189.74 154.349 190.001 154.624C190.546 155.023 191.224 155.197 191.893 155.11C192.253 155.081 192.611 155.028 192.965 154.952C193.013 155.285 193.147 155.6 193.354 155.865C193.561 156.131 193.833 156.338 194.144 156.466C195.597 156.923 197.146 156.978 198.627 156.623C198.848 156.535 200.519 155.64 201.011 155.362C201.717 154.996 202.347 154.788 202.656 154.328C202.965 153.868 202.026 152.518 201.137 152.38C200.183 152.284 199.22 152.346 198.287 152.563C198.67 151.782 198.952 150.956 199.125 150.103C199.901 148.842 205.513 150.103 210.475 149.271C214.258 148.641 216.963 145.047 218.672 144.284C229.442 139.416 237.74 136.017 248.692 129.409C258.693 123.406 257.249 120.701 255.925 112.983Z" fill="#FFA8A7"/>
<path d="M186.741 144.176C187.322 142.758 188.211 141.061 189.295 140.671C188.624 141.643 188.092 142.704 187.713 143.823C187.385 143.962 187.063 144.069 186.741 144.176Z" fill="#F28F8F"/>
<path d="M189.541 153.597C189.374 152.573 189.342 151.532 189.447 150.501C189.524 149.468 189.659 148.441 189.85 147.424C190.013 146.392 190.294 145.383 190.689 144.416C191.076 143.43 191.731 142.571 192.58 141.938C192.225 142.304 191.939 142.731 191.735 143.199C191.497 143.644 191.301 144.111 191.149 144.593C190.85 145.559 190.621 146.545 190.462 147.543C190.266 148.546 190.102 149.549 189.932 150.557C189.742 151.562 189.611 152.577 189.541 153.597Z" fill="#F28F8F"/>
<path d="M192.914 154.933C192.807 153.921 192.807 152.9 192.914 151.888C193.006 150.875 193.157 149.869 193.368 148.874C193.577 147.876 193.855 146.894 194.201 145.936C194.579 145.009 194.932 143.975 195.758 143.331C195.448 143.723 195.217 144.17 195.077 144.649C194.907 145.116 194.762 145.595 194.636 146.074C194.384 147.045 194.157 148.016 193.955 149C193.539 150.967 193.154 152.928 192.914 154.933Z" fill="#F28F8F"/>
<path d="M201.067 152.411C200.641 152.418 200.218 152.477 199.806 152.588C199.403 152.682 199.113 152.89 198.602 153.048L198.81 152.72C198.837 152.934 198.809 153.151 198.728 153.351C198.66 153.523 198.562 153.681 198.438 153.817C198.213 154.084 197.915 154.279 197.58 154.379C197.781 154.138 197.955 153.876 198.097 153.597C198.153 153.469 198.195 153.336 198.224 153.199C198.238 153.084 198.238 152.968 198.224 152.853L198.192 152.619L198.432 152.518C198.811 152.375 199.211 152.292 199.617 152.273C200.104 152.175 200.608 152.223 201.067 152.411Z" fill="#F28F8F"/>
<path d="M232.79 61.3799C242.879 66.1404 244.713 67.7925 247.734 73.2088C250.754 78.6252 252.274 85.4981 254.336 97.3334C256.265 108.418 258.882 119.074 257.381 122.479C255.88 125.884 254.449 126.515 249.184 129.863C243.919 133.211 230.999 138.735 230.999 138.735C230.999 138.735 230.81 133.842 228.143 130.538C224.101 125.569 221.566 126.282 221.566 126.282L234.379 115.052C234.379 115.052 228.912 91.9485 227.556 86.4943C226.201 81.0402 224.397 66.0269 232.79 61.3799Z" fill="#EBEBEB"/>
<path opacity="0.2" d="M184.043 227.496L151.109 208.53C149.811 207.779 149.811 206.562 151.109 205.812L198.596 178.345C199.324 177.975 200.13 177.783 200.948 177.783C201.765 177.783 202.571 177.975 203.299 178.345L236.207 197.325C237.506 198.075 237.506 199.292 236.207 200.042L188.728 227.509C188 227.873 187.197 228.061 186.384 228.059C185.57 228.057 184.768 227.864 184.043 227.496Z" fill="#BCE7DF"/>
<path d="M157.894 207.193L187.082 223.675L231.901 197.955L202.719 181.473L157.894 207.193Z" fill="#BCE7DF"/>
<path opacity="0.6" d="M157.894 207.193L187.082 223.675L231.901 197.955L202.719 181.473L157.894 207.193Z" fill="black"/>
<path d="M187.397 222.471L159.193 206.449C159.893 204.456 159.824 203.857 159.048 201.209L187.082 217.067C187.082 217.067 187.593 217.029 187.397 222.471Z" fill="#F5F5F5"/>
<path d="M185.714 214.898C186.458 215.381 187.078 216.032 187.525 216.799C187.972 217.566 188.232 218.426 188.286 219.312V222.78C188.286 224.413 187.132 225.075 185.714 224.255L157.901 208.46V207.199L185.361 222.704C186.218 223.19 186.905 222.792 186.905 221.815V218.725C186.875 218.192 186.719 217.673 186.451 217.21C186.182 216.748 185.809 216.356 185.361 216.064L157.932 200.559V199.071L185.714 214.898Z" fill="#BCE7DF"/>
<path opacity="0.5" d="M185.714 214.898C186.458 215.381 187.078 216.032 187.525 216.799C187.972 217.566 188.232 218.426 188.286 219.312V222.78C188.286 224.413 187.132 225.075 185.714 224.255L157.901 208.46V207.199L185.361 222.704C186.218 223.19 186.905 222.792 186.905 221.815V218.725C186.875 218.192 186.719 217.673 186.451 217.21C186.182 216.748 185.809 216.356 185.361 216.064L157.932 200.559V199.071L185.714 214.898Z" fill="black"/>
<path d="M157.893 199.071L202.718 173.352L230.531 189.153C231.275 189.636 231.896 190.287 232.342 191.054C232.789 191.821 233.05 192.681 233.104 193.567V197.035C233.137 197.353 233.085 197.674 232.953 197.966C232.821 198.257 232.614 198.508 232.354 198.693L187.528 224.413C187.791 224.23 188 223.979 188.133 223.687C188.267 223.395 188.319 223.073 188.285 222.755V219.287C188.23 218.4 187.969 217.539 187.521 216.773C187.073 216.006 186.451 215.355 185.706 214.873L157.893 199.071Z" fill="#BCE7DF"/>
<path opacity="0.35" d="M157.893 199.071L202.718 173.352L230.531 189.153C231.275 189.636 231.896 190.287 232.342 191.054C232.789 191.821 233.05 192.681 233.104 193.567V197.035C233.137 197.353 233.085 197.674 232.953 197.966C232.821 198.257 232.614 198.508 232.354 198.693L187.528 224.413C187.791 224.23 188 223.979 188.133 223.687C188.267 223.395 188.319 223.073 188.285 222.755V219.287C188.23 218.4 187.969 217.539 187.521 216.773C187.073 216.006 186.451 215.355 185.706 214.873L157.893 199.071Z" fill="black"/>
<path d="M187.536 216.809C188.001 217.57 188.261 218.439 188.293 219.331V222.799C188.326 223.118 188.274 223.44 188.141 223.731C188.008 224.023 187.799 224.274 187.536 224.457L232.361 198.737C232.622 198.552 232.829 198.301 232.961 198.01C233.093 197.718 233.145 197.397 233.111 197.079V193.611C233.082 192.72 232.824 191.851 232.361 191.089L187.536 216.809Z" fill="#BCE7DF"/>
<path opacity="0.45" d="M187.536 216.809C188.001 217.57 188.261 218.439 188.293 219.331V222.799C188.326 223.118 188.274 223.44 188.141 223.731C188.008 224.023 187.799 224.274 187.536 224.457L232.361 198.737C232.622 198.552 232.829 198.301 232.961 198.01C233.093 197.718 233.145 197.397 233.111 197.079V193.611C233.082 192.72 232.824 191.851 232.361 191.089L187.536 216.809Z" fill="black"/>
<path d="M226.289 194.525C227.128 198.157 227.115 199.57 226.289 202.23L224.152 203.491C224.978 200.831 224.99 199.412 224.152 195.786L226.289 194.525Z" fill="#BCE7DF"/>
<path d="M196.9 211.417C197.738 215.043 197.726 216.418 196.9 219.078L194.768 220.308C195.588 217.647 195.601 216.279 194.768 212.653L196.9 211.417Z" fill="#BCE7DF"/>
<path d="M152.005 198.668L181.193 215.144L226.012 189.424L196.83 172.942L152.005 198.668Z" fill="#BCE7DF"/>
<path opacity="0.4" d="M152.005 198.668L181.193 215.144L226.012 189.424L196.83 172.942L152.005 198.668Z" fill="black"/>
<path d="M181.521 213.94L153.323 197.918C154.023 195.931 153.953 195.042 153.178 192.394L181.205 208.252C181.205 208.252 181.704 208.53 181.521 213.94Z" fill="#F5F5F5"/>
<path d="M179.824 206.083C180.569 206.566 181.191 207.217 181.639 207.983C182.087 208.75 182.349 209.611 182.403 210.497V214.28C182.403 215.913 181.249 216.575 179.824 215.762L152.011 199.96V198.699L179.477 214.198C180.329 214.69 181.022 214.293 181.022 213.309V209.942C180.991 209.402 180.83 208.878 180.555 208.413C180.28 207.948 179.897 207.556 179.44 207.268L152.011 191.763V190.307L179.824 206.083Z" fill="#BCE7DF"/>
<path opacity="0.25" d="M179.824 206.083C180.569 206.566 181.191 207.217 181.639 207.983C182.087 208.75 182.349 209.611 182.403 210.497V214.28C182.403 215.913 181.249 216.575 179.824 215.762L152.011 199.96V198.699L179.477 214.198C180.329 214.69 181.022 214.293 181.022 213.309V209.942C180.991 209.402 180.83 208.878 180.555 208.413C180.28 207.948 179.897 207.556 179.44 207.268L152.011 191.763V190.307L179.824 206.083Z" fill="black"/>
<path d="M152.011 190.282L196.83 164.562L224.643 180.363C225.389 180.846 226.01 181.497 226.458 182.263C226.906 183.03 227.168 183.891 227.222 184.777V188.529C227.256 188.847 227.203 189.168 227.07 189.458C226.937 189.749 226.728 189.998 226.466 190.181L181.647 215.901C181.908 215.717 182.116 215.468 182.249 215.177C182.382 214.887 182.435 214.566 182.403 214.249V210.465C182.349 209.58 182.089 208.719 181.642 207.952C181.195 207.186 180.575 206.535 179.831 206.051L152.011 190.282Z" fill="#BCE7DF"/>
<path d="M181.647 207.994C182.111 208.756 182.371 209.624 182.403 210.516V214.299C182.435 214.617 182.382 214.937 182.249 215.228C182.116 215.518 181.908 215.768 181.647 215.951L226.466 190.231C226.728 190.049 226.937 189.799 227.07 189.509C227.203 189.218 227.256 188.897 227.222 188.579V184.827C227.189 183.936 226.929 183.068 226.466 182.305L181.647 207.994Z" fill="#BCE7DF"/>
<path opacity="0.15" d="M181.647 207.994C182.111 208.756 182.371 209.624 182.403 210.516V214.299C182.435 214.617 182.382 214.937 182.249 215.228C182.116 215.518 181.908 215.768 181.647 215.951L226.466 190.231C226.728 190.049 226.937 189.799 227.07 189.509C227.203 189.218 227.256 188.897 227.222 188.579V184.827C227.189 183.936 226.929 183.068 226.466 182.305L181.647 207.994Z" fill="black"/>
<path d="M220.412 185.71C221.245 189.342 221.232 191.045 220.412 193.706L218.275 194.935C219.101 192.274 219.114 190.572 218.275 186.946L220.412 185.71Z" fill="#BCE7DF"/>
<path d="M191.016 202.628C191.849 206.253 191.836 207.899 191.016 210.56L188.879 211.789C189.705 209.129 189.718 207.477 188.879 203.845L191.016 202.628Z" fill="#BCE7DF"/>
<g opacity="0.4">
<path opacity="0.4" d="M220.412 185.71C221.245 189.342 221.232 191.045 220.412 193.706L218.275 194.935C219.101 192.274 219.114 190.572 218.275 186.946L220.412 185.71Z" fill="white"/>
<path opacity="0.4" d="M191.016 202.628C191.849 206.253 191.836 207.899 191.016 210.56L188.879 211.789C189.705 209.129 189.718 207.477 188.879 203.845L191.016 202.628Z" fill="white"/>
</g>
<path opacity="0.2" d="M91.3909 181.177L126.323 201.354L131.165 202.338C131.193 202.342 131.222 202.339 131.248 202.328C131.274 202.317 131.296 202.299 131.313 202.276C131.329 202.253 131.339 202.226 131.341 202.198C131.342 202.17 131.336 202.142 131.323 202.117L129.81 199.342L94.8714 179.165C93.9193 178.61 90.6468 180.741 91.3909 181.177Z" fill="black"/>
<path d="M94.7517 177.154C94.7277 177.605 94.5975 178.044 94.3718 178.435C94.1461 178.826 93.8312 179.158 93.4528 179.405C93.2336 179.549 92.9678 179.606 92.7088 179.562C92.7476 179.607 92.7947 179.643 92.8475 179.67L92.5385 179.493L92.4944 179.455L92.4313 179.411L92.3998 179.373L92.3683 179.335C92.3239 179.275 92.2878 179.21 92.2611 179.14V179.077C92.2611 179.077 92.2611 179.039 92.2611 179.02C92.2347 178.915 92.222 178.807 92.2232 178.699C92.2483 178.249 92.3789 177.811 92.6046 177.421C92.8302 177.031 93.1446 176.7 93.5222 176.454C93.6955 176.343 93.8963 176.281 94.1022 176.277H94.1905H94.2662H94.3103H94.3608H94.4112L94.6824 176.435C94.64 176.409 94.5928 176.392 94.5436 176.384C94.6281 176.492 94.69 176.616 94.7258 176.748C94.7615 176.88 94.7704 177.018 94.7517 177.154Z" fill="#BCE7DF"/>
<path d="M128.315 195.919L126.481 199.071L126.172 198.895L92.8474 179.644C92.7947 179.618 92.7476 179.582 92.7087 179.537C92.5371 179.334 92.4512 179.071 92.4691 178.806C92.4931 178.356 92.6234 177.918 92.8491 177.527C93.0749 177.137 93.3898 176.806 93.768 176.561C93.9426 176.452 94.1426 176.391 94.3481 176.384C94.4026 176.378 94.4576 176.378 94.5121 176.384C94.5613 176.392 94.6085 176.409 94.6508 176.435L128.315 195.919Z" fill="#F0F0F0"/>
<path d="M127.395 196.007C128.114 195.597 128.694 195.931 128.694 196.757C128.669 197.208 128.539 197.647 128.313 198.038C128.087 198.429 127.773 198.761 127.395 199.008C126.682 199.418 126.096 199.084 126.096 198.258C126.121 197.807 126.252 197.369 126.477 196.978C126.703 196.587 127.017 196.254 127.395 196.007Z" fill="#BCE7DF"/>
<path d="M130.188 197.936V197.899L128.53 196.083V196.045C128.382 195.928 128.198 195.864 128.01 195.864C127.821 195.864 127.637 195.928 127.489 196.045C127.112 196.292 126.797 196.625 126.572 197.016C126.346 197.407 126.216 197.845 126.19 198.296C126.166 198.479 126.202 198.665 126.293 198.825C126.384 198.986 126.525 199.112 126.695 199.185H126.789L129.192 199.708C129.337 199.734 129.486 199.702 129.608 199.62C129.821 199.481 129.998 199.295 130.127 199.076C130.256 198.858 130.333 198.612 130.352 198.359C130.352 198.203 130.293 198.052 130.188 197.936Z" fill="#E0E0E0"/>
<path d="M108.977 186.12H108.933C108.882 186.105 108.829 186.101 108.776 186.109C108.724 186.117 108.674 186.135 108.63 186.164C108.496 186.252 108.384 186.37 108.304 186.51C108.224 186.649 108.178 186.805 108.17 186.965C108.164 187.016 108.171 187.068 108.19 187.117C108.209 187.165 108.238 187.208 108.277 187.242L108.334 187.28L128.044 198.63L129.343 197.88L108.977 186.12Z" fill="#455A64"/>
<path d="M126.216 197.571L128.044 198.63L129.343 197.88L126.865 196.448C126.571 196.771 126.349 197.154 126.216 197.571Z" fill="#37474F"/>
<path d="M130.837 198.8L129.337 197.148L129.299 197.104C129.191 197.025 129.061 196.983 128.927 196.983C128.793 196.983 128.663 197.025 128.555 197.104C128.288 197.278 128.066 197.513 127.908 197.789C127.749 198.065 127.657 198.375 127.641 198.693C127.627 198.821 127.653 198.95 127.715 199.063C127.777 199.175 127.872 199.266 127.987 199.324H128.044L130.245 199.803C130.326 199.815 130.409 199.797 130.478 199.752C130.6 199.673 130.701 199.566 130.773 199.44C130.846 199.314 130.887 199.172 130.894 199.027C130.903 198.947 130.883 198.867 130.837 198.8Z" fill="#BCE7DF"/>
<path opacity="0.1" d="M130.837 198.8L129.337 197.148L129.299 197.104C129.191 197.025 129.061 196.983 128.927 196.983C128.793 196.983 128.663 197.025 128.555 197.104C128.288 197.278 128.066 197.513 127.908 197.789C127.749 198.065 127.657 198.375 127.641 198.693C127.627 198.821 127.653 198.95 127.715 199.063C127.777 199.175 127.872 199.266 127.987 199.324H128.044L130.245 199.803C130.326 199.815 130.409 199.797 130.478 199.752C130.6 199.673 130.701 199.566 130.773 199.44C130.846 199.314 130.887 199.172 130.894 199.027C130.903 198.947 130.883 198.867 130.837 198.8Z" fill="black"/>
<path d="M130.92 199.071C130.912 199.217 130.871 199.358 130.799 199.484C130.726 199.61 130.625 199.717 130.503 199.797C130.434 199.841 130.351 199.859 130.27 199.847L129.16 199.601C128.984 199.57 128.87 199.399 128.87 199.134C128.883 198.903 128.95 198.678 129.066 198.477C129.182 198.277 129.344 198.107 129.539 197.981C129.614 197.92 129.707 197.887 129.803 197.887C129.9 197.887 129.993 197.92 130.068 197.981H130.1L130.844 198.8C130.875 198.837 130.899 198.881 130.912 198.927C130.925 198.974 130.927 199.023 130.92 199.071Z" fill="#BCE7DF"/>
<path opacity="0.1" d="M130.503 198.8C130.737 198.668 130.92 198.8 130.92 199.04C130.912 199.185 130.871 199.326 130.799 199.452C130.726 199.578 130.625 199.686 130.503 199.765C130.276 199.897 130.087 199.765 130.087 199.525C130.095 199.38 130.137 199.239 130.209 199.113C130.281 198.987 130.382 198.88 130.503 198.8Z" fill="black"/>
<path d="M97.4566 179.462C97.4043 179.436 97.3461 179.426 97.2882 179.431C97.2303 179.437 97.1751 179.458 97.1287 179.493C96.9953 179.58 96.8842 179.698 96.8043 179.836C96.7243 179.974 96.6778 180.128 96.6684 180.288C96.6607 180.345 96.6697 180.404 96.6943 180.456C96.7189 180.509 96.758 180.553 96.8071 180.584L108.27 187.211C108.232 187.176 108.202 187.133 108.184 187.085C108.165 187.037 108.158 186.985 108.163 186.933C108.172 186.773 108.218 186.617 108.298 186.478C108.378 186.339 108.489 186.221 108.623 186.133C108.668 186.104 108.718 186.085 108.77 186.077C108.822 186.07 108.876 186.074 108.926 186.089L97.4566 179.462Z" fill="#FAFAFA"/>
<path d="M97.589 179.758C97.5796 179.917 97.5331 180.072 97.4532 180.21C97.3733 180.348 97.2621 180.465 97.1287 180.552C97.0827 180.586 97.0287 180.606 96.9722 180.611C96.9157 180.617 96.8588 180.607 96.8072 180.584C96.7591 180.552 96.7208 180.507 96.6963 180.455C96.6719 180.403 96.6622 180.345 96.6684 180.288C96.6778 180.128 96.7244 179.974 96.8043 179.836C96.8842 179.698 96.9953 179.58 97.1287 179.493C97.1752 179.458 97.2304 179.437 97.2882 179.431C97.3461 179.426 97.4044 179.436 97.4566 179.462C97.503 179.495 97.5397 179.54 97.563 179.592C97.5862 179.644 97.5952 179.701 97.589 179.758Z" fill="#F5F5F5"/>
<path d="M96.5614 177.791L94.6698 176.687H94.6257C94.4968 176.636 94.3572 176.618 94.2196 176.634C94.0819 176.651 93.9506 176.702 93.8375 176.782C93.4966 177.003 93.2128 177.302 93.009 177.653C92.8053 178.005 92.6873 178.4 92.6647 178.806C92.6483 178.951 92.6719 179.099 92.733 179.232C92.7941 179.366 92.8904 179.48 93.0115 179.562L94.9535 180.685C95.0851 180.739 95.2281 180.758 95.3693 180.742C95.5105 180.725 95.6451 180.673 95.7606 180.59C96.1009 180.37 96.384 180.073 96.5868 179.722C96.7896 179.371 96.9062 178.977 96.9271 178.572C96.9414 178.421 96.915 178.269 96.8507 178.132C96.7864 177.994 96.6866 177.876 96.5614 177.791Z" fill="#BCE7DF"/>
<path opacity="0.05" d="M96.5614 177.791L94.6698 176.687H94.6257C94.4968 176.636 94.3572 176.618 94.2196 176.634C94.0819 176.651 93.9506 176.702 93.8375 176.782C93.4966 177.003 93.2128 177.302 93.009 177.653C92.8053 178.005 92.6873 178.4 92.6647 178.806C92.6483 178.951 92.6719 179.099 92.733 179.232C92.7941 179.366 92.8904 179.48 93.0115 179.562L94.9535 180.685C95.0851 180.739 95.2281 180.758 95.3693 180.742C95.5105 180.725 95.6451 180.673 95.7606 180.59C96.1009 180.37 96.384 180.073 96.5868 179.722C96.7896 179.371 96.9062 178.977 96.9271 178.572C96.9414 178.421 96.915 178.269 96.8507 178.132C96.7864 177.994 96.6866 177.876 96.5614 177.791Z" fill="black"/>
<path opacity="0.1" d="M95.7101 177.86C96.3406 177.488 96.8766 177.784 96.8766 178.535C96.8557 178.939 96.7391 179.333 96.5363 179.684C96.3335 180.035 96.0503 180.332 95.7101 180.552C95.0795 180.924 94.5436 180.628 94.5436 179.878C94.566 179.473 94.6832 179.08 94.8859 178.73C95.0885 178.379 95.3709 178.081 95.7101 177.86Z" fill="black"/>
<path d="M131.449 199.5L130.661 199.021C130.637 199.007 130.61 199 130.582 199C130.555 199 130.527 199.007 130.503 199.021C130.441 199.062 130.389 199.117 130.352 199.181C130.314 199.246 130.293 199.318 130.289 199.393C130.287 199.42 130.292 199.446 130.303 199.47C130.314 199.495 130.331 199.516 130.352 199.532L131.14 200.011C131.188 200.034 131.239 200.047 131.292 200.049C131.372 200.047 131.449 200.014 131.506 199.956C131.563 199.898 131.594 199.821 131.594 199.74C131.592 199.691 131.578 199.643 131.553 199.601C131.527 199.559 131.492 199.525 131.449 199.5Z" fill="#455A64"/>
<path d="M131.5 199.532L131.462 199.5C131.44 199.49 131.416 199.485 131.392 199.485C131.368 199.485 131.345 199.49 131.323 199.5C131.261 199.542 131.21 199.597 131.173 199.661C131.135 199.726 131.114 199.798 131.109 199.872C131.107 199.899 131.111 199.925 131.122 199.95C131.133 199.974 131.15 199.995 131.172 200.011H131.203C131.237 200.018 131.271 200.018 131.304 200.011C131.365 200.009 131.424 199.99 131.473 199.955C131.523 199.92 131.562 199.871 131.584 199.815C131.606 199.758 131.611 199.697 131.598 199.637C131.586 199.578 131.556 199.524 131.512 199.481L131.5 199.532Z" fill="#263238"/>
<path opacity="0.2" d="M111.272 197.665C110.919 198.617 109.904 199.21 108.207 199.431L77.9414 181.807L74.7887 178.654C74.7513 178.615 74.7281 178.564 74.7227 178.51C74.7174 178.456 74.7301 178.401 74.7589 178.355C74.7878 178.309 74.8311 178.274 74.8821 178.255C74.9331 178.236 74.989 178.235 75.0409 178.251L80.823 180.143L111.272 197.665Z" fill="black"/>
<path d="M80.6338 177.986L75.4886 176.977C75.456 176.973 75.4228 176.978 75.3932 176.992C75.3636 177.007 75.3391 177.03 75.3228 177.058C75.3065 177.087 75.2991 177.12 75.3017 177.152C75.3043 177.185 75.3167 177.216 75.3372 177.242L78.8304 181.196L80.6338 177.986Z" fill="#FFA8A7"/>
<path d="M75.3184 177.242C75.2978 177.216 75.2854 177.185 75.2828 177.152C75.2803 177.12 75.2876 177.087 75.304 177.058C75.3203 177.03 75.3448 177.007 75.3744 176.992C75.4039 176.978 75.4372 176.973 75.4697 176.977L76.4723 177.173C76.3345 177.259 76.2233 177.382 76.1509 177.528C76.0786 177.674 76.048 177.837 76.0624 177.999V178.087L75.3184 177.242Z" fill="#263238"/>
<path d="M104.109 195.679L103.686 195.44L103.176 195.149L78.8116 181.196C78.6412 180.628 78.6931 180.017 78.9566 179.487C79.0915 179.121 79.3128 178.794 79.6016 178.533C79.8903 178.272 80.238 178.084 80.6149 177.986L104.966 191.934L105.938 192.495C105.294 192.167 103.459 195.345 104.109 195.679Z" fill="#455A64"/>
<path d="M102.501 194.765L101.562 194.223C101.284 194.077 101.442 193.396 101.77 192.69C102.198 191.751 103.031 190.849 103.409 191.038L104.103 191.442L104.349 191.587C103.983 191.391 103.132 192.299 102.703 193.233C102.394 193.907 102.236 194.569 102.476 194.746L102.501 194.765Z" fill="#EBEBEB"/>
<path d="M102.268 194.658C101.637 194.317 103.472 191.139 104.115 191.505L105.055 192.041C104.424 191.7 102.533 194.878 103.207 195.225L102.268 194.658Z" fill="#BCE7DF"/>
<path d="M104.109 195.679L103.176 195.149C102.545 194.815 104.298 191.732 104.966 191.934H105.011L105.938 192.476C105.294 192.167 103.459 195.345 104.109 195.679Z" fill="#EBEBEB"/>
<path opacity="0.15" d="M75.2995 177.065L75.4697 176.977L79.2025 179.02L104.594 193.579C104.632 193.523 104.658 193.516 104.683 193.579C104.134 194.431 103.718 195.509 104.084 195.698L103.661 195.458L103.151 195.168L78.7864 181.214L75.2932 177.261C75.2731 177.232 75.2628 177.197 75.264 177.162C75.2651 177.127 75.2776 177.093 75.2995 177.065Z" fill="black"/>
<path d="M108.05 197.936L104.109 195.679C103.832 195.534 103.983 194.859 104.304 194.159C104.727 193.22 105.565 192.306 105.938 192.495L109.897 194.759C110.685 195.212 109.96 196.921 109.084 197.684C108.957 197.826 108.791 197.926 108.606 197.971C108.421 198.016 108.227 198.004 108.05 197.936Z" fill="#F28F8F"/>
<path opacity="0.1" d="M107.817 196.713C107.917 196.287 108.115 195.889 108.393 195.552C108.672 195.214 109.025 194.945 109.424 194.765C109.522 194.728 109.628 194.717 109.731 194.731C109.835 194.745 109.933 194.785 110.017 194.847C110.61 195.395 109.916 196.965 109.09 197.684C108.966 197.824 108.803 197.923 108.622 197.969C108.441 198.015 108.251 198.006 108.075 197.943C107.747 197.772 107.665 197.319 107.817 196.713Z" fill="black"/>
<path opacity="0.2" d="M31.628 157.569C31.7574 158.199 32.015 158.796 32.3847 159.322C33.1185 160.37 34.0854 161.233 35.2095 161.844C40.0962 164.669 48.0221 164.669 52.9152 161.844C54.0381 161.232 55.0047 160.369 55.74 159.322C56.1034 158.794 56.3564 158.197 56.484 157.569C56.9191 155.45 55.7274 153.237 52.9088 151.61C48.0158 148.786 40.0899 148.786 35.2032 151.61C32.391 153.237 31.193 155.45 31.628 157.569Z" fill="#BCE7DF"/>
<path d="M34.415 148.149H53.9618L51.944 156.567C51.7927 157.582 51.0424 158.578 49.6993 159.354C46.6601 161.106 41.7293 161.106 38.6901 159.354C37.2398 158.515 36.4895 157.43 36.4201 156.34L34.415 148.149Z" fill="#E0E0E0"/>
<path d="M33.3935 145.652C33.4991 146.196 33.7136 146.713 34.024 147.171C34.6626 148.078 35.502 148.825 36.4768 149.353C40.7204 151.8 47.5996 151.8 51.8431 149.353C52.8179 148.825 53.6574 148.078 54.296 147.171C54.6068 146.713 54.8214 146.196 54.9265 145.652C55.3048 143.811 54.2644 141.869 51.8179 140.481C47.5744 138.029 40.6952 138.029 36.4516 140.481C34.0555 141.894 33.0152 143.811 33.3935 145.652Z" fill="#FAFAFA"/>
<path d="M34.0493 147.171C34.6879 148.078 35.5273 148.825 36.5021 149.353C40.7457 151.8 47.6249 151.8 51.8684 149.353C52.8432 148.825 53.6827 148.078 54.3212 147.171C54.6321 146.713 54.8466 146.196 54.9518 145.652L54.4663 148.968C54.2456 150.299 53.2556 151.598 51.4838 152.619C47.4357 154.952 40.8844 154.952 36.8363 152.619C35.0897 151.61 34.0998 150.33 33.8602 149.013V148.842L33.3935 145.652C33.5069 146.198 33.73 146.715 34.0493 147.171Z" fill="#EBEBEB"/>
<path d="M37.7569 141.219C41.2943 139.176 47.0259 139.176 50.5632 141.219C52.5621 142.373 53.4322 143.937 53.1674 145.444C52.9656 146.598 52.0955 147.726 50.5632 148.596C47.0259 150.639 41.2943 150.639 37.7569 148.596C36.2247 147.714 35.3546 146.585 35.1528 145.444C34.9132 143.937 35.777 142.373 37.7569 141.219Z" fill="#E0E0E0"/>
<path d="M52.5999 146.844C52.07 147.575 51.3826 148.179 50.5884 148.609C47.0511 150.652 41.3195 150.652 37.7821 148.609C36.9897 148.178 36.3044 147.575 35.777 146.844C35.777 145.62 36.6219 144.403 38.2361 143.47C41.5212 141.579 46.8493 141.579 50.1344 143.47C51.7486 144.403 52.5683 145.62 52.5999 146.844Z" fill="#BCE7DF"/>
<path d="M46.9187 133.665C47.0889 128.671 48.9742 120.909 50.7776 117.776C47.37 121.975 45.383 127.148 45.1027 132.549L46.9187 133.665Z" fill="#263238"/>
<path d="M41.496 144.447C41.332 140.973 38.772 139.845 35.8968 140.973C33.8538 141.78 30.9029 144.813 29.9697 149.656C30.8839 147.159 37.5173 138.741 41.496 144.447Z" fill="#455A64"/>
<path d="M41.3447 146.106C41.1808 144.845 40.0143 143.117 37.9839 143.533C35.9536 143.949 31.1741 147.682 29.1563 153.811C29.5221 149.7 30.8588 146.156 33.6017 143.855C36.3445 141.553 38.3497 141.206 40.3548 142.398C42.0699 143.432 41.3447 146.106 41.3447 146.106Z" fill="#37474F"/>
<path d="M44.9893 147.796C46.6413 142.272 46.8809 132.032 45.2983 126.458C43.0472 118.608 38.3623 115.171 34.9006 114.339C38.1984 115.714 41.6789 120.745 42.6563 125.689C43.6336 130.632 43.0724 147.821 43.0724 147.821L44.9893 147.796Z" fill="#455A64"/>
<path d="M43.6337 142.411C43.4193 139.321 41.6159 132.467 38.0471 129.705C36.777 128.7 35.1806 128.2 33.5641 128.3C31.9477 128.4 30.4252 129.094 29.2888 130.248C30.2463 129.517 31.4218 129.129 32.6261 129.148C33.8305 129.166 34.9936 129.589 35.9284 130.349C37.8201 131.9 39.7117 136.553 40.6701 140.973L43.6337 142.411Z" fill="#263238"/>
<path d="M38.7721 130.342C36.5274 128.142 34.7745 126.654 31.9875 126.799C29.2005 126.944 25.4803 130.834 23.3238 139.082C25.5496 133.842 28.4375 129.239 33.0594 128.747C34.0701 128.606 35.0991 128.675 36.082 128.949C37.065 129.224 37.9807 129.698 38.7721 130.342Z" fill="#37474F"/>
<path d="M63.874 125.449C59.4724 125.272 55.1592 126.72 51.7551 129.516C48.351 132.312 46.0934 136.262 45.4117 140.614L47.8835 140.217C47.8835 140.217 49.939 133.722 53.5205 130.342C56.6732 127.354 59.0252 126.162 63.874 125.449Z" fill="#455A64"/>
<path d="M44.8 139.063C44.6109 136.276 45.9224 130.418 50.1849 126.452C54.4473 122.486 55.9795 121.616 60.3618 120.493C56.8118 122.33 53.6997 124.911 51.2379 128.06C48.4193 131.742 48.2932 136.105 48.2932 137.751C47.814 139.063 46.08 141.749 44.8 139.063Z" fill="#37474F"/>
<path d="M44.9892 140.431C45.5441 136.881 43.6335 130.525 41.4014 127.417C38.7027 123.633 34.724 120.84 30.3039 120.077C35.033 121.887 39.7936 127.164 41.1934 132.146C42.026 135.456 42.2228 138.895 41.7734 142.278L44.9892 140.431Z" fill="#37474F"/>
<path d="M43.4823 147.796C44.0813 144.479 43.022 137.568 37.5615 133.76C32.101 129.951 28.2988 130.973 26.8927 131.389C31.1174 131.105 35.3672 133.457 37.9588 136.37C39.7621 138.394 41.452 141.705 41.5591 147.197L43.4823 147.796Z" fill="#455A64"/>
<path d="M43.4319 148.073C43.4319 148.073 42.0006 148.035 41.4268 147.367C41.4268 145.223 40.8467 140.929 37.839 138.394C34.8313 135.859 32.4857 136.345 32.0128 137.341C32.0128 135.878 33.8476 134.58 35.878 135.015C39.2577 135.733 44.0624 140.135 43.4319 148.073Z" fill="#263238"/>
<path d="M37.6307 135.67C35.7769 134.661 34.188 133.779 32.1198 134.756C32.0315 134.699 30.8587 134.403 30.411 134.933C28.6834 136.969 29.2382 142.039 32.4036 146.913C30.947 143.268 30.8776 136.547 33.5638 135.5C34.8888 135.018 36.3505 135.08 37.6307 135.67Z" fill="#37474F"/>
<path d="M32.1199 134.756C31.2876 135.134 29.5977 138.054 30.6822 142.121C29.6608 139.05 30.0517 136.093 31.7542 134.661C31.8795 134.678 32.0023 134.71 32.1199 134.756Z" fill="#263238"/>
<path d="M47.0448 147.083C47.2087 145.791 48.3752 144.088 50.4056 144.504C52.4359 144.92 57.2154 148.66 59.2332 154.782C58.9946 151 57.4656 147.414 54.9013 144.624C52.6944 142.297 49.7939 141.175 47.4925 142.411C45.191 143.647 47.0448 147.083 47.0448 147.083Z" fill="#263238"/>
<path d="M47.8836 139.34C49.668 137.556 50.9165 135.847 54.189 136.522C57.4615 137.196 59.7188 140.765 60.6079 145.576C60.053 143.685 58.3632 139.466 55.0087 138.741C51.6542 138.016 50.0274 138.268 47.8836 139.34Z" fill="#455A64"/>
<path d="M47.0449 147.083C47.5115 143.93 48.7095 139.447 52.0577 139.264C55.4059 139.082 59.0819 141.194 60.6141 145.57C59.8323 141.579 56.4273 137.77 52.8774 137.764C49.3274 137.757 45.8342 138.527 44.9893 147.789L47.0449 147.083Z" fill="#37474F"/>
<path d="M49.8697 133.728C51.1535 132.534 52.7572 131.738 54.4853 131.439C55.6265 131.244 57.846 130.367 60.2232 132.581C62.6003 134.794 65.1036 139.964 64.2397 143.584C63.8362 139.737 58.6847 128.98 49.8697 133.728Z" fill="#37474F"/>
<path d="M44.5163 148.111C44.5163 145.192 46.6475 135.935 50.0146 133.577C54.2266 130.632 57.0452 133.142 57.0452 133.142C56.2008 132.871 55.3046 132.802 54.4286 132.94C53.5526 133.078 52.7211 133.419 52.0008 133.936C49.8255 135.532 47.7951 140.185 47.0196 147.083C46.7088 147.435 46.3215 147.71 45.8875 147.888C45.4535 148.066 44.9844 148.143 44.5163 148.111Z" fill="#263238"/>
<path d="M46.4269 139.416C46.6287 140.273 45.7459 146.635 45.0586 148.073C44.3848 148.176 43.6985 148.166 43.0283 148.042C42.3977 146.926 43.0283 139.725 41.7672 139.586C42.7319 139.17 45.954 137.947 46.4269 139.416Z" fill="#37474F"/>
<path d="M46.4269 139.416C45.4306 138.394 41.3825 140.412 40.6385 146.421C39.6359 143.571 40.0836 140.04 41.0862 139.151C41.3609 138.896 41.7074 138.732 42.0786 138.681C42.4498 138.631 42.8277 138.695 43.1607 138.867C43.1607 138.867 46.2882 137.493 46.4269 139.416Z" fill="#455A64"/>
<path d="M43.1606 138.867C41.8996 139.391 40.5124 141.106 40.525 144.031C40.4304 142.531 40.7204 139.901 42.8391 138.741C42.9497 138.774 43.0573 138.816 43.1606 138.867Z" fill="#37474F"/>
</svg>
