<svg width="658" height="701" viewBox="0 0 658 701" fill="none" xmlns="http://www.w3.org/2000/svg">
<path d="M551.29 366.892C409.621 290.653 180.714 290.653 39.967 366.892C-100.78 443.131 -100.02 566.73 41.584 642.969C183.188 719.208 412.16 719.208 552.907 642.969C693.654 566.73 692.942 443.131 551.29 366.892Z" fill="#F5F5F5"/>
<path d="M455.287 557.625C491.912 577.341 492.106 609.296 455.723 629.011C419.34 648.727 360.14 648.727 323.498 629.011C286.856 609.296 286.678 577.341 323.078 557.625C359.477 537.91 418.661 537.91 455.287 557.625Z" fill="#E6E6E6"/>
<path d="M484.911 505.609C512.093 520.229 556.06 520.229 583.049 505.609C596.551 498.283 603.262 488.697 603.197 479.11C603.132 469.524 596.308 459.937 582.725 452.612C555.527 437.991 511.576 437.991 484.587 452.612C471.085 459.937 464.374 469.524 464.423 479.11C464.471 488.697 471.311 498.283 484.911 505.609Z" fill="#E6E6E6"/>
<path d="M-27.1077 533.72C-11.2769 542.251 14.3208 542.251 30.0384 533.72C37.9133 529.469 41.8266 523.877 41.7942 518.3C41.7619 512.723 37.784 507.116 29.8605 502.865C14.0297 494.334 -11.568 494.334 -27.3017 502.865C-35.1605 507.116 -39.0738 512.708 -39.0414 518.3C-39.0091 523.892 -35.0312 529.469 -27.1077 533.72Z" fill="#E6E6E6"/>
<path d="M31.8333 566.383L40.9695 571.357C41.9853 571.902 43.1367 572.189 44.3087 572.189C45.4807 572.189 46.6321 571.902 47.6479 571.357L297.577 438.398C297.842 438.272 298.064 438.079 298.219 437.843C298.375 437.606 298.457 437.334 298.457 437.057C298.457 436.779 298.375 436.507 298.219 436.27C298.064 436.034 297.842 435.842 297.577 435.715L288.425 430.741C287.413 430.193 286.264 429.904 285.093 429.904C283.923 429.904 282.774 430.193 281.762 430.741L31.8494 563.685C31.5796 563.808 31.3521 564 31.1924 564.237C31.0327 564.475 30.9473 564.749 30.9456 565.029C30.9439 565.309 31.0261 565.585 31.1829 565.824C31.3397 566.063 31.5649 566.257 31.8333 566.383Z" fill="#E6E6E6"/>
<path d="M355.709 71.6571L361.337 68.6123L420.73 100.462V106.521L355.709 71.6571Z" fill="#F5F5F5"/>
<path d="M355.709 71.657L420.73 106.521V113.424L355.693 78.6056L355.709 71.657Z" fill="#E0E0E0"/>
<path d="M454.688 124.729L460.316 121.684L519.709 153.534V159.593L454.688 124.729Z" fill="#F5F5F5"/>
<path d="M454.688 124.729L519.709 159.593V166.511L454.672 131.678L454.688 124.729Z" fill="#E0E0E0"/>
<path d="M553.667 177.816L559.294 174.756L618.688 206.606V212.665L553.667 177.816Z" fill="#F5F5F5"/>
<path d="M553.667 177.816L618.688 212.665V219.583L553.651 184.765L553.667 177.816Z" fill="#E0E0E0"/>
<path d="M356.033 13.4603L361.644 10.4155L361.321 167.205L355.693 170.235L356.033 13.4603Z" fill="#F0F0F0"/>
<path d="M355.693 170.235L361.321 167.205L426.018 201.812L420.407 204.857L355.693 170.235Z" fill="#F5F5F5"/>
<path d="M349.581 3.04468L427.199 44.6311L426.827 215.273L349.209 173.686L349.581 3.04468ZM420.407 204.857L420.731 48.0979L356.049 13.43L355.71 170.189L420.391 204.857" fill="#E0E0E0"/>
<path d="M349.581 3.04475L355.208 0L432.842 41.5864L427.215 44.6312L349.581 3.04475Z" fill="#F5F5F5"/>
<path d="M427.215 44.6312L432.842 41.5864L432.47 212.228L426.843 215.273L427.215 44.6312Z" fill="#F0F0F0"/>
<path d="M455.012 66.5323L460.623 63.4875L460.299 220.277L454.672 223.322L455.012 66.5323Z" fill="#F0F0F0"/>
<path d="M454.672 223.322L460.299 220.277L524.997 254.9L519.386 257.944L454.672 223.322Z" fill="#F5F5F5"/>
<path d="M448.56 56.1318L526.177 97.7032L525.805 268.345L448.188 226.773L448.56 56.1318ZM519.386 257.944L519.709 101.185L455.028 66.5171L454.688 223.276L519.37 257.944" fill="#E0E0E0"/>
<path d="M448.56 56.1319L454.187 53.0872L531.821 94.6736L526.194 97.7183L448.56 56.1319Z" fill="#F5F5F5"/>
<path d="M526.194 97.7183L531.821 94.6736L531.449 265.3L525.822 268.345L526.194 97.7183Z" fill="#F0F0F0"/>
<path d="M553.99 119.619L559.602 116.575L559.278 273.349L553.651 276.394L553.99 119.619Z" fill="#F0F0F0"/>
<path d="M553.651 276.394L559.278 273.349L623.976 307.972L618.365 311.016L553.651 276.394Z" fill="#F5F5F5"/>
<path d="M547.538 109.279L625.156 150.866L624.784 321.507L547.167 279.921L547.538 109.279ZM618.365 311.092L618.688 154.332L554.007 119.665L553.667 276.424L618.348 311.092" fill="#E0E0E0"/>
<path d="M547.538 109.204L553.166 106.159L630.8 147.746L625.172 150.79L547.538 109.204Z" fill="#F5F5F5"/>
<path d="M625.172 150.79L630.8 147.746L630.428 318.387L624.8 321.432L625.172 150.79Z" fill="#F0F0F0"/>
<path d="M30.378 468.454L-0.345705 469.283L-31.0694 468.454C-32.3954 487.777 -28.3528 507.463 -22.774 517.079C-21.4552 519.552 -19.3256 521.569 -16.6939 522.837C-7.63853 527.706 6.99564 527.706 16.0025 522.837C18.673 521.551 20.807 519.472 22.0664 516.928C27.6775 507.206 31.6878 487.611 30.378 468.454Z" fill="white"/>
<path d="M21.3064 456.742C33.3371 463.208 33.4018 473.699 21.4519 480.165C9.50202 486.632 -9.91858 486.647 -21.9493 480.165C-33.9801 473.684 -34.0448 463.208 -22.0949 456.742C-10.145 450.276 9.2918 450.26 21.3064 456.742Z" fill="#EBEBEB"/>
<path d="M16.5523 459.304C25.9311 464.354 25.9796 472.554 16.6655 477.588C7.35135 482.622 -7.81645 482.637 -17.1953 477.588C-26.5741 472.538 -26.6226 464.354 -17.3085 459.304C-7.99432 454.255 7.17348 454.27 16.5523 459.304Z" fill="#E0E0E0"/>
<g opacity="0.15">
<path opacity="0.15" d="M16.5523 459.304C25.9311 464.354 25.9796 472.554 16.6655 477.588C7.35135 482.622 -7.81645 482.637 -17.1953 477.588C-26.5741 472.538 -26.6226 464.354 -17.3085 459.304C-7.99432 454.255 7.17348 454.27 16.5523 459.304Z" fill="black"/>
</g>
<path d="M50.1381 346.377C-19.0226 367.48 -19.6532 410.619 -4.06498 441.337C-0.119413 447.547 11.782 450.894 22.131 412.699L3.97169 414.869L25.1387 404.876L30.6366 389.547L12.9786 390.767L35.3907 381.98C39.5101 369.839 44.4354 357.949 50.1381 346.377Z" fill="#BCE7FD"/>
<path opacity="0.2" d="M50.1381 346.377C-19.0226 367.48 -19.6532 410.619 -4.06498 441.337C-0.119413 447.547 11.782 450.894 22.131 412.699L3.97169 414.869L25.1387 404.876L30.6366 389.547L12.9786 390.767L35.3907 381.98C39.5101 369.839 44.4354 357.949 50.1381 346.377Z" fill="black"/>
<path d="M30.5719 357.155C-5.92457 382.96 -9.15864 412.548 1.10954 443.433C-2.5288 416.241 -6.47436 388.748 30.5719 357.155Z" fill="white"/>
<path d="M-67 390.195C1.17425 399.133 9.43731 439.212 0.398079 470.232C-2.15684 476.623 -12.6514 481.582 -29.0967 447.623L-11.7944 446.824L-33.301 440.795L-41.1436 427.319L-24.4881 425.812L-46.9164 421.094C-52.919 410.417 -59.6264 400.097 -67 390.195Z" fill="#BCE7FD"/>
<path opacity="0.2" d="M-67 390.195C1.17425 399.133 9.43731 439.212 0.398079 470.232C-2.15684 476.623 -12.6514 481.582 -29.0967 447.623L-11.7944 446.824L-33.301 440.795L-41.1436 427.319L-24.4881 425.812L-46.9164 421.094C-52.919 410.417 -59.6264 400.097 -67 390.195Z" fill="white"/>
<path d="M-46.8679 397.174C-8.3016 415.563 0.0261383 442.604 -4.04879 472.961C-5.50412 447.095 -6.73308 420.883 -46.8679 397.174Z" fill="white"/>
<path d="M70.0762 405.207C7.56157 406.157 -4.71174 441.382 -0.281064 470.308C1.33597 476.337 10.1165 481.899 29.0196 453.004L13.4799 450.487L33.5959 447.291L42.2793 436.016L27.4511 432.836L48.2462 430.937C54.9476 421.95 62.2381 413.357 70.0762 405.207Z" fill="#BCE7FD"/>
<path d="M51.0921 409.428C14.1267 421.968 3.37337 445.407 3.40571 473.262C7.82022 450.08 12.0892 426.581 51.0921 409.428Z" fill="white"/>
<path d="M529.314 422.375C529.751 467.414 530.268 510.779 530.268 510.779C530.295 511.068 530.405 511.346 530.588 511.582C530.77 511.818 531.017 512.004 531.303 512.12C532.075 512.484 532.928 512.674 533.794 512.674C534.659 512.674 535.512 512.484 536.284 512.12C536.566 512.001 536.809 511.814 536.988 511.578C537.167 511.342 537.276 511.066 537.303 510.779C537.303 510.779 537.82 467.429 538.257 422.391C535.314 422.496 532.322 422.496 529.314 422.375Z" fill="#E0E0E0"/>
<path d="M470.632 478.296C470.661 478.586 470.772 478.863 470.954 479.099C471.135 479.335 471.382 479.521 471.667 479.638C472.439 480.002 473.292 480.192 474.157 480.192C475.023 480.192 475.876 480.002 476.648 479.638C476.929 479.517 477.171 479.33 477.35 479.094C477.529 478.859 477.638 478.584 477.666 478.296C477.666 478.296 479.914 447.321 483.116 410.468C480.098 408.726 477.276 406.706 474.691 404.439C472.104 443.9 470.632 478.296 470.632 478.296Z" fill="#E0E0E0"/>
<path d="M589.97 478.297C589.998 478.584 590.107 478.859 590.286 479.095C590.465 479.33 590.707 479.518 590.988 479.638C591.76 480.002 592.613 480.192 593.478 480.192C594.344 480.192 595.197 480.002 595.969 479.638C596.251 479.517 596.495 479.33 596.676 479.095C596.858 478.86 596.97 478.585 597.004 478.297C597.004 478.297 595.613 444.036 592.945 404.71C590.356 406.951 587.534 408.945 584.52 410.664C587.738 447.412 589.97 478.297 589.97 478.297Z" fill="#E0E0E0"/>
<path opacity="0.1" d="M529.314 422.375C529.751 467.414 530.268 510.779 530.268 510.779C530.295 511.068 530.405 511.346 530.588 511.582C530.77 511.818 531.017 512.004 531.303 512.12C532.075 512.484 532.928 512.674 533.794 512.674C534.659 512.674 535.512 512.484 536.284 512.12C536.566 512.001 536.809 511.814 536.988 511.578C537.167 511.342 537.276 511.066 537.303 510.779C537.303 510.779 537.82 467.429 538.257 422.391C535.314 422.496 532.322 422.496 529.314 422.375Z" fill="black"/>
<path opacity="0.1" d="M470.632 478.296C470.661 478.586 470.772 478.863 470.954 479.099C471.135 479.335 471.382 479.521 471.667 479.638C472.439 480.002 473.292 480.192 474.157 480.192C475.023 480.192 475.876 480.002 476.648 479.638C476.929 479.517 477.171 479.33 477.35 479.094C477.529 478.859 477.638 478.584 477.666 478.296C477.666 478.296 479.914 447.321 483.116 410.468C480.098 408.726 477.276 406.706 474.691 404.439C472.104 443.9 470.632 478.296 470.632 478.296Z" fill="black"/>
<path opacity="0.1" d="M589.97 478.297C589.998 478.584 590.107 478.859 590.286 479.095C590.465 479.33 590.707 479.518 590.988 479.638C591.76 480.002 592.613 480.192 593.478 480.192C594.344 480.192 595.197 480.002 595.969 479.638C596.251 479.517 596.495 479.33 596.676 479.095C596.858 478.86 596.97 478.585 597.004 478.297C597.004 478.297 595.613 444.036 592.945 404.71C590.356 406.951 587.534 408.945 584.52 410.664C587.738 447.412 589.97 478.297 589.97 478.297Z" fill="black"/>
<path d="M603.197 377.729C603.197 387.316 596.551 396.902 583.049 404.213C556.028 418.849 512.093 418.849 484.911 404.213C471.311 396.902 464.488 387.316 464.423 377.729V385.01C464.423 391.778 467.899 398.575 474.691 404.514C477.276 406.781 480.098 408.801 483.116 410.543L484.911 411.553C497.297 418.216 513.176 421.833 529.347 422.421C532.322 422.542 535.314 422.542 538.289 422.421C554.605 421.893 570.63 418.261 583.049 411.538L584.52 410.694C587.534 408.975 590.356 406.981 592.945 404.74C599.817 398.711 603.245 391.883 603.197 385.04V377.729Z" fill="#E0E0E0"/>
<path opacity="0.1" d="M603.197 377.729C603.197 387.316 596.551 396.902 583.049 404.213C556.028 418.849 512.093 418.849 484.911 404.213C471.311 396.902 464.488 387.316 464.423 377.729V385.01C464.423 391.778 467.899 398.575 474.691 404.514C477.276 406.781 480.098 408.801 483.116 410.543L484.911 411.553C497.297 418.216 513.176 421.833 529.347 422.421C532.322 422.542 535.314 422.542 538.289 422.421C554.605 421.893 570.63 418.261 583.049 411.538L584.52 410.694C587.534 408.975 590.356 406.981 592.945 404.74C599.817 398.711 603.245 391.883 603.197 385.04V377.729Z" fill="black"/>
<path d="M484.911 404.213C512.093 418.848 556.06 418.848 583.049 404.213C596.551 396.902 603.262 387.316 603.197 377.729C603.132 368.143 596.308 358.556 582.725 351.231C555.527 336.61 511.576 336.61 484.587 351.231C471.085 358.556 464.374 368.143 464.423 377.729C464.471 387.316 471.311 396.902 484.911 404.213Z" fill="#E0E0E0"/>
<g opacity="0.3">
<path opacity="0.3" d="M529.314 422.375C529.314 425.39 529.314 428.405 529.395 431.419C532.322 431.525 535.249 431.525 538.176 431.419C538.176 428.405 538.176 425.39 538.257 422.375C535.314 422.496 532.322 422.496 529.314 422.375Z" fill="black"/>
<path opacity="0.3" d="M474.691 404.514C474.513 407.393 474.319 410.242 474.141 413.045C476.664 415.311 479.427 417.331 482.388 419.075C482.614 416.256 482.873 413.392 483.116 410.498C480.1 408.77 477.278 406.766 474.691 404.514Z" fill="black"/>
<path opacity="0.3" d="M592.945 404.71C590.356 406.95 587.534 408.945 584.52 410.664C584.779 413.558 585.027 416.417 585.264 419.24C588.221 417.497 590.978 415.477 593.495 413.211C593.317 410.438 593.139 407.589 592.945 404.71Z" fill="black"/>
</g>
<g opacity="0.5">
<path opacity="0.5" d="M529.314 422.375C529.751 467.414 530.268 510.779 530.268 510.779C530.295 511.068 530.405 511.346 530.588 511.582C530.77 511.818 531.017 512.004 531.303 512.12C532.075 512.484 532.928 512.674 533.794 512.674C534.659 512.674 535.512 512.484 536.284 512.12C536.566 512.001 536.809 511.814 536.988 511.578C537.167 511.342 537.276 511.066 537.303 510.779C537.303 510.779 537.82 467.429 538.257 422.391C535.314 422.496 532.322 422.496 529.314 422.375Z" fill="#E0E0E0"/>
<path opacity="0.5" d="M470.632 478.296C470.661 478.586 470.772 478.863 470.954 479.099C471.135 479.335 471.382 479.521 471.667 479.638C472.439 480.002 473.292 480.192 474.157 480.192C475.023 480.192 475.876 480.002 476.648 479.638C476.929 479.517 477.171 479.33 477.35 479.094C477.529 478.859 477.638 478.584 477.666 478.296C477.666 478.296 479.914 447.321 483.116 410.468C480.098 408.726 477.276 406.706 474.691 404.439C472.104 443.9 470.632 478.296 470.632 478.296Z" fill="#E0E0E0"/>
<path opacity="0.5" d="M589.97 478.297C589.998 478.584 590.107 478.859 590.286 479.095C590.465 479.33 590.707 479.518 590.988 479.638C591.76 480.002 592.613 480.192 593.478 480.192C594.344 480.192 595.197 480.002 595.969 479.638C596.251 479.517 596.495 479.33 596.676 479.095C596.858 478.86 596.97 478.585 597.004 478.297C597.004 478.297 595.613 444.036 592.945 404.71C590.356 406.951 587.534 408.945 584.52 410.664C587.738 447.412 589.97 478.297 589.97 478.297Z" fill="#E0E0E0"/>
<path opacity="0.5" d="M603.197 377.729C603.197 387.316 596.551 396.902 583.049 404.213C556.028 418.849 512.093 418.849 484.911 404.213C471.311 396.902 464.488 387.316 464.423 377.729V385.01C464.423 391.778 467.899 398.575 474.691 404.514C477.276 406.781 480.098 408.801 483.116 410.543L484.911 411.553C497.297 418.216 513.176 421.833 529.347 422.421C532.322 422.542 535.314 422.542 538.289 422.421C554.605 421.893 570.63 418.261 583.049 411.538L584.52 410.694C587.534 408.975 590.356 406.981 592.945 404.74C599.817 398.711 603.245 391.883 603.197 385.04V377.729Z" fill="white"/>
<path opacity="0.5" d="M484.911 404.213C512.093 418.848 556.06 418.848 583.049 404.213C596.551 396.902 603.262 387.316 603.197 377.729C603.132 368.143 596.308 358.556 582.725 351.231C555.527 336.61 511.576 336.61 484.587 351.231C471.085 358.556 464.374 368.143 464.423 377.729C464.471 387.316 471.311 396.902 484.911 404.213Z" fill="white"/>
</g>
<path d="M557.063 337.771L533.68 338.389L510.298 337.756C509.296 352.467 512.368 367.48 516.621 374.805C517.627 376.685 519.246 378.221 521.245 379.192C525.105 381.021 529.374 381.975 533.705 381.975C538.035 381.975 542.304 381.021 546.164 379.192C548.202 378.205 549.829 376.614 550.789 374.67C555.025 367.329 558.065 352.407 557.063 337.771Z" fill="white"/>
<path d="M550.158 328.833C559.327 333.762 559.375 341.765 550.271 346.694C541.167 351.623 526.355 351.623 517.203 346.694C508.05 341.765 507.986 333.777 517.09 328.833C526.194 323.889 541.006 323.904 550.158 328.833Z" fill="#EBEBEB"/>
<path d="M546.536 330.852C553.683 334.696 553.732 340.936 546.617 344.78C539.502 348.623 527.972 348.623 520.825 344.78C513.678 340.936 513.629 334.696 520.744 330.852C527.859 327.009 539.389 326.948 546.536 330.852Z" fill="#E0E0E0"/>
<g opacity="0.15">
<path opacity="0.15" d="M546.536 330.852C553.683 334.696 553.732 340.936 546.617 344.78C539.502 348.623 527.972 348.623 520.825 344.78C513.678 340.936 513.629 334.696 520.744 330.852C527.859 327.009 539.389 326.948 546.536 330.852Z" fill="black"/>
</g>
<path d="M531.724 338.389C533.603 339.85 535.828 340.874 538.214 341.377C540.601 341.88 543.082 341.848 545.453 341.283C547.734 340.638 549.806 339.474 551.483 337.895C553.161 336.316 554.389 334.372 555.058 332.239C552.289 331.014 549.754 329.375 547.555 327.386C551.062 326.577 554.741 326.697 558.179 327.732C559.131 326.341 559.703 324.754 559.844 323.108C559.985 321.463 559.691 319.811 558.987 318.297C554.996 316.642 550.509 316.349 546.31 317.468C548.053 316.055 550.09 314.991 552.293 314.343C554.496 313.694 556.819 313.475 559.116 313.699C559.447 307.453 558.401 301.21 556.044 295.355C547.328 295.778 538.871 299.274 536.025 301.792C535.892 304.699 536.218 307.61 536.995 310.428C535.869 309.894 534.906 309.102 534.196 308.127C533.486 307.152 533.053 306.025 532.937 304.851C527.487 306.118 525.142 308.65 524.302 310.594C525.078 314.209 526.856 317.572 529.46 320.347C524.334 318.839 522.264 313.579 522.264 313.579C517.219 324.703 518.189 337.304 531.724 338.389Z" fill="#BCE7FD"/>
<path opacity="0.2" d="M531.724 338.389C533.603 339.85 535.828 340.874 538.214 341.377C540.601 341.88 543.082 341.848 545.453 341.283C547.734 340.638 549.806 339.474 551.483 337.895C553.161 336.316 554.389 334.372 555.058 332.239C552.289 331.014 549.754 329.375 547.555 327.386C551.062 326.577 554.741 326.697 558.179 327.732C559.131 326.341 559.703 324.754 559.844 323.108C559.985 321.463 559.691 319.811 558.987 318.297C554.996 316.642 550.509 316.349 546.31 317.468C548.053 316.055 550.09 314.991 552.293 314.343C554.496 313.694 556.819 313.475 559.116 313.699C559.447 307.453 558.401 301.21 556.044 295.355C547.328 295.778 538.871 299.274 536.025 301.792C535.892 304.699 536.218 307.61 536.995 310.428C535.869 309.894 534.906 309.102 534.196 308.127C533.486 307.152 533.053 306.025 532.937 304.851C527.487 306.118 525.142 308.65 524.302 310.594C525.078 314.209 526.856 317.572 529.46 320.347C524.334 318.839 522.264 313.579 522.264 313.579C517.219 324.703 518.189 337.304 531.724 338.389Z" fill="black"/>
<path opacity="0.3" d="M531.724 338.389C533.603 339.85 535.828 340.874 538.214 341.377C540.601 341.88 543.082 341.848 545.453 341.283C547.734 340.638 549.806 339.474 551.483 337.895C553.161 336.316 554.389 334.372 555.058 332.239C552.289 331.014 549.754 329.375 547.555 327.386C551.062 326.577 554.741 326.697 558.179 327.732C559.131 326.341 559.703 324.754 559.844 323.108C559.985 321.463 559.691 319.811 558.987 318.297C554.996 316.642 550.509 316.349 546.31 317.468C548.053 316.055 550.09 314.991 552.293 314.343C554.496 313.694 556.819 313.475 559.116 313.699C559.447 307.453 558.401 301.21 556.044 295.355C547.328 295.778 538.871 299.274 536.025 301.792C535.892 304.699 536.218 307.61 536.995 310.428C535.869 309.894 534.906 309.102 534.196 308.127C533.486 307.152 533.053 306.025 532.937 304.851C527.487 306.118 525.142 308.65 524.302 310.594C525.078 314.209 526.856 317.572 529.46 320.347C524.334 318.839 522.264 313.579 522.264 313.579C517.219 324.703 518.189 337.304 531.724 338.389Z" fill="white"/>
<path d="M531.433 339.595C531.367 339.591 531.303 339.575 531.243 339.548C531.184 339.521 531.131 339.483 531.088 339.437C531.044 339.391 531.011 339.337 530.989 339.279C530.968 339.22 530.959 339.159 530.964 339.097C531.805 328.833 538.095 311.891 553.117 297.918C553.164 297.874 553.219 297.84 553.28 297.816C553.342 297.793 553.407 297.781 553.473 297.781C553.539 297.781 553.605 297.793 553.666 297.816C553.727 297.84 553.782 297.874 553.829 297.918C553.876 297.961 553.913 298.013 553.938 298.07C553.963 298.127 553.976 298.188 553.976 298.249C553.976 298.311 553.963 298.372 553.938 298.429C553.913 298.486 553.876 298.538 553.829 298.581C539.017 312.373 532.807 329.059 531.983 339.173C531.966 339.295 531.9 339.407 531.798 339.486C531.696 339.564 531.565 339.603 531.433 339.595Z" fill="#F5F5F5"/>
<path d="M535.54 343.875C533.792 345.208 531.73 346.136 529.523 346.584C527.316 347.032 525.027 346.986 522.842 346.451C520.658 345.916 518.641 344.906 516.955 343.505C515.269 342.104 513.963 340.351 513.144 338.389C515.648 337.325 517.939 335.873 519.92 334.093C516.606 333.352 513.14 333.446 509.878 334.364C508.887 333.191 508.237 331.799 507.99 330.323C507.744 328.847 507.909 327.337 508.471 325.939C512.269 324.48 516.481 324.246 520.437 325.275C516.908 322.715 512.474 321.488 508.018 321.839C507.24 316.333 507.793 310.735 509.635 305.454C517.931 305.922 526.161 309.132 529.04 311.408C529.356 313.961 529.241 316.545 528.7 319.065C529.706 318.62 530.561 317.924 531.169 317.054C531.777 316.184 532.114 315.174 532.144 314.136C537.351 315.312 539.696 317.588 540.618 319.306C540.126 322.488 538.673 325.473 536.429 327.913C537.889 327.427 539.213 326.641 540.302 325.613C541.391 324.585 542.217 323.341 542.72 321.974C548.201 331.832 548.121 342.911 535.54 343.875Z" fill="#BCE7FD"/>
<path opacity="0.3" d="M535.54 343.875C533.792 345.208 531.73 346.136 529.523 346.584C527.316 347.032 525.027 346.986 522.842 346.451C520.658 345.916 518.641 344.906 516.955 343.505C515.269 342.104 513.963 340.351 513.144 338.389C515.648 337.325 517.939 335.873 519.92 334.093C516.606 333.352 513.14 333.446 509.878 334.364C508.887 333.191 508.237 331.799 507.99 330.323C507.744 328.847 507.909 327.337 508.471 325.939C512.269 324.48 516.481 324.246 520.437 325.275C516.908 322.715 512.474 321.488 508.018 321.839C507.24 316.333 507.793 310.735 509.635 305.454C517.931 305.922 526.161 309.132 529.04 311.408C529.356 313.961 529.241 316.545 528.7 319.065C529.706 318.62 530.561 317.924 531.169 317.054C531.777 316.184 532.114 315.174 532.144 314.136C537.351 315.312 539.696 317.588 540.618 319.306C540.126 322.488 538.673 325.473 536.429 327.913C537.889 327.427 539.213 326.641 540.302 325.613C541.391 324.585 542.217 323.341 542.72 321.974C548.201 331.832 548.121 342.911 535.54 343.875Z" fill="white"/>
<path d="M535.88 344.991C535.76 344.989 535.645 344.95 535.554 344.878C535.463 344.807 535.401 344.708 535.378 344.599C533.955 335.661 526.986 320.829 512.061 308.424C512.014 308.38 511.977 308.329 511.951 308.272C511.926 308.215 511.913 308.154 511.913 308.092C511.913 308.031 511.926 307.97 511.951 307.913C511.977 307.856 512.014 307.804 512.061 307.761C512.107 307.717 512.163 307.682 512.224 307.658C512.285 307.635 512.35 307.623 512.416 307.623C512.483 307.623 512.548 307.635 512.609 307.658C512.67 307.682 512.726 307.717 512.772 307.761C527.859 320.301 534.926 335.374 536.381 344.418C536.4 344.542 536.367 344.667 536.288 344.768C536.21 344.87 536.092 344.939 535.96 344.961L535.88 344.991Z" fill="white"/>
<path d="M299.259 33.8238C298.906 32.5478 298.362 31.3248 297.642 30.1912C296.025 27.9302 293.324 26.6038 286.791 26.7244C285.879 26.753 284.977 26.921 284.123 27.2218L38.6248 157.407C35.9289 158.865 33.6866 160.952 32.1186 163.463C30.5507 165.973 29.7111 168.822 29.6826 171.727V544.12C29.6826 550.767 33.8707 553.269 38.5278 553.556C40.5303 553.655 42.5356 553.415 44.4462 552.847C44.691 552.782 44.9291 552.696 45.1577 552.591L290.802 422.18C293.512 420.739 295.765 418.655 297.333 416.14C298.901 413.625 299.727 410.769 299.728 407.86V35.5571C299.708 34.9544 299.548 34.3629 299.259 33.8238Z" fill="#BCE7FD"/>
<path opacity="0.2" d="M299.259 33.8238C298.906 32.5478 298.362 31.3248 297.642 30.1912C296.025 27.9302 293.324 26.6038 286.791 26.7244C285.879 26.753 284.977 26.921 284.123 27.2218L38.6248 157.407C35.9289 158.865 33.6866 160.952 32.1186 163.463C30.5507 165.973 29.7111 168.822 29.6826 171.727V544.12C29.6826 550.767 33.8707 553.269 38.5278 553.556C40.5303 553.655 42.5356 553.415 44.4462 552.847C44.691 552.782 44.9291 552.696 45.1577 552.591L290.802 422.18C293.512 420.739 295.765 418.655 297.333 416.14C298.901 413.625 299.727 410.769 299.728 407.86V35.5571C299.708 34.9544 299.548 34.3629 299.259 33.8238Z" fill="black"/>
<path opacity="0.2" d="M31.526 164.492C30.327 166.74 29.6964 169.215 29.6826 171.727V544.12C29.6826 550.767 33.8707 553.269 38.5278 553.556C37.2535 551.748 36.6253 549.612 36.7329 547.451V175.043C36.7429 172.538 37.368 170.068 38.5602 167.823C38.7542 167.446 39.0129 167.099 39.2393 166.737L32.4154 163.06C32.1082 163.542 31.7848 163.994 31.526 164.492Z" fill="black"/>
<path opacity="0.2" d="M286.856 26.7244C285.944 26.753 285.042 26.921 284.188 27.2218L38.625 157.407C36.0774 158.774 33.9415 160.718 32.4155 163.06L39.2394 166.737C40.7844 164.229 43.0166 162.148 45.7076 160.708L291.222 30.5378C292.079 30.2485 292.979 30.0857 293.89 30.0555C295.164 30.0266 296.439 30.0719 297.707 30.1912C296.17 27.885 293.389 26.6038 286.856 26.7244Z" fill="white"/>
<path d="M288.522 45.4602L48.408 174.636V525.791L288.522 396.616V45.4602Z" fill="#455A64"/>
<path d="M180.795 460.48C178.476 461.831 176.476 463.607 174.916 465.701C173.357 467.794 172.27 470.162 171.723 472.659C171.125 477 174.213 478.688 178.644 476.231C180.959 474.876 182.955 473.099 184.514 471.006C186.073 468.913 187.162 466.548 187.716 464.052C188.298 459.726 185.209 458.114 180.795 460.48Z" fill="#BCE7FD"/>
<g opacity="0.4">
<path opacity="0.4" d="M180.795 460.48C178.476 461.831 176.476 463.607 174.916 465.701C173.357 467.794 172.27 470.162 171.723 472.659C171.125 477 174.213 478.688 178.644 476.231C180.959 474.876 182.955 473.099 184.514 471.006C186.073 468.913 187.162 466.548 187.716 464.052C188.298 459.726 185.209 458.114 180.795 460.48Z" fill="black"/>
</g>
<path d="M311.597 27.071V15.6758C311.581 15.152 311.443 14.6376 311.192 14.1685C310.912 13.0491 310.448 11.9764 309.818 10.9881C308.476 8.98342 306.018 7.8228 300.261 7.97353C299.46 7.99399 298.668 8.13655 297.917 8.39558L81.6219 122.935C79.2516 124.22 77.2806 126.057 75.9027 128.266C74.5248 130.475 73.7874 132.981 73.7631 135.536V148.59L79.9563 151.921L311.597 27.071Z" fill="#BCE7FD"/>
<path d="M79.9563 151.921L73.7631 148.59V474.935C73.7631 480.783 77.4499 482.999 81.541 483.24C83.3078 483.332 85.0778 483.123 86.764 482.622C86.9797 482.555 87.1904 482.474 87.3947 482.381L303.738 367.525C306.126 366.259 308.111 364.426 309.492 362.213C310.872 359.999 311.598 357.484 311.597 354.924V27.071L79.9563 151.921Z" fill="#BCE7FD"/>
<path opacity="0.2" d="M75.3801 129.176C74.3238 131.152 73.7705 133.328 73.7631 135.536V474.935C73.7631 480.783 77.4499 482.999 81.541 483.24C80.4061 481.651 79.84 479.767 79.924 477.859V138.476C79.9371 136.268 80.4901 134.093 81.541 132.115C81.7189 131.783 81.9453 131.467 82.1393 131.15L76.1239 127.925C75.8512 128.328 75.6029 128.746 75.3801 129.176Z" fill="black"/>
<path opacity="0.2" d="M300.261 7.83792C299.46 7.85838 298.668 8.00094 297.917 8.25997L81.6218 122.935C79.3774 124.142 77.4971 125.858 76.1562 127.925L82.1716 131.15C83.5365 128.95 85.4999 127.125 87.8636 125.86L304.11 11.1992C304.865 10.9339 305.664 10.7911 306.471 10.7772C307.588 10.7437 308.707 10.784 309.818 10.8977C308.476 8.89303 306.018 7.73241 300.261 7.83792Z" fill="white"/>
<path opacity="0.05" d="M311.597 27.071V15.6758C311.581 15.152 311.443 14.6376 311.192 14.1685C310.912 13.0491 310.448 11.9764 309.818 10.9881C308.476 8.98342 306.018 7.8228 300.261 7.97353C299.46 7.99399 298.668 8.13655 297.917 8.39558L81.6219 122.935C79.2516 124.22 77.2806 126.057 75.9027 128.266C74.5248 130.475 73.7874 132.981 73.7631 135.536V148.59L79.9563 151.921L311.597 27.071Z" fill="white"/>
<path opacity="0.3" d="M79.9563 151.921L73.7631 148.59V474.935C73.7631 480.783 77.4499 482.999 81.541 483.24C83.3078 483.332 85.0778 483.123 86.764 482.622C86.9797 482.555 87.1904 482.474 87.3947 482.381L303.738 367.525C306.126 366.259 308.111 364.426 309.492 362.213C310.872 359.999 311.598 357.484 311.597 354.924V27.071L79.9563 151.921Z" fill="white"/>
<path d="M193.23 146.103L98.1317 197.245V345.247L193.23 294.089V146.103Z" fill="white"/>
<path d="M103.419 200.094L187.958 154.619V291.255L103.419 336.716V200.094Z" fill="#455A64"/>
<path opacity="0.3" d="M103.419 200.094L187.958 154.619V291.255L103.419 336.716V200.094Z" fill="white"/>
<path d="M187.958 291.361L103.419 336.882V284.563L128.015 266.551L159.708 255.337L167.551 253.513C171.028 252.703 174.651 252.602 178.174 253.219C181.696 253.835 185.034 255.154 187.958 257.085V291.361Z" fill="#E0E0E0"/>
<path d="M122.549 226.849C120.091 219.176 120.625 210.374 125.541 203.802C128.784 199.61 133.335 196.451 138.574 194.758C143.772 193.115 149.268 192.449 154.744 192.799C159.087 192.876 163.359 193.838 167.26 195.617C169.598 196.779 171.667 198.36 173.349 200.268C175.031 202.176 176.292 204.375 177.061 206.738C177.83 209.102 178.092 211.583 177.83 214.041C177.569 216.498 176.791 218.884 175.539 221.061C173.409 224.413 170.629 227.367 167.341 229.773C161.033 234.807 154.1 239.118 146.691 242.615C144.848 243.489 142.972 244.318 141.064 245.087C139.77 245.614 137.329 247.092 135.873 246.82C134.418 246.549 132.898 244.032 132.025 242.992C130.764 241.484 129.567 239.977 128.451 238.379C125.893 234.824 123.904 230.939 122.549 226.849Z" fill="#263238"/>
<path d="M166.71 291.286C166.097 288.976 165.252 286.725 164.188 284.563L160.145 285.452C160.452 287.563 160.614 289.763 160.695 291.949C160.695 293.456 160.566 299.033 160.258 306.253L169.33 301.384C168.521 298.068 167.664 294.677 166.71 291.286Z" fill="#BCE7FD"/>
<path opacity="0.2" d="M160.242 286.251C160.242 285.995 160.242 285.724 160.145 285.452L164.188 284.563L164.43 285.121C163.883 285.612 163.216 285.972 162.486 286.169C161.756 286.366 160.986 286.394 160.242 286.251Z" fill="black"/>
<path d="M157.978 275.58L154.744 273.68L147.338 277.449C149.874 279.264 152.904 280.381 156.086 280.674L157.978 275.58Z" fill="#BCE7FD"/>
<path d="M162.894 274.856L163.864 272.821L167.6 275.007C167.201 276.329 166.349 277.494 165.174 278.323L162.894 274.856Z" fill="#BCE7FD"/>
<path opacity="0.2" d="M157.978 275.58L154.744 273.68L147.338 277.449C149.874 279.264 152.904 280.381 156.086 280.674L157.978 275.58Z" fill="black"/>
<path opacity="0.2" d="M162.894 274.856L163.864 272.821L167.6 275.007C167.201 276.329 166.349 277.494 165.174 278.323L162.894 274.856Z" fill="black"/>
<path d="M156.135 280.674C156.448 278.894 157.071 277.173 157.978 275.58L162.829 274.856C163.727 275.928 164.492 277.091 165.109 278.323C165.216 280.443 164.881 282.562 164.123 284.563C162.874 285.163 161.486 285.468 160.08 285.453C158.265 284.28 156.886 282.61 156.135 280.674Z" fill="#BCE7FD"/>
<path d="M135.372 240.203V261.125C139.835 266.868 158.609 274.148 159.708 273.982C161.067 273.756 159.708 262.481 159.708 261.502V253.03C156.054 252.518 152.48 251.915 149.262 251.282C146.133 250.677 143.218 249.344 140.789 247.407C138.361 245.47 136.497 242.992 135.372 240.203Z" fill="#9C5C5C"/>
<path d="M151.542 256.241C154.221 256.897 156.952 257.351 159.708 257.598V253.076C156.054 252.563 152.48 251.96 149.262 251.327C146.328 250.752 143.582 249.538 141.249 247.782C138.916 246.027 137.063 243.781 135.841 241.228C136.433 244.748 138.12 248.029 140.692 250.664C143.7 253.405 147.45 255.333 151.542 256.241Z" fill="#803E3E"/>
<path d="M173.728 207.254C170.052 210.57 165.178 212.484 160.064 212.62C155.213 212.62 150.621 211.188 145.98 209.997C145.556 212.1 144.423 214.022 142.746 215.484C140.893 216.956 138.614 217.884 136.197 218.151C136.876 222.191 136.876 226.305 136.197 230.346C136.137 230.767 135.954 231.165 135.669 231.497C135.384 231.829 135.008 232.082 134.58 232.23C132.963 232.652 131.992 231.159 131.232 229.954C130.419 228.542 129.254 227.333 127.837 226.427C127.127 225.993 126.316 225.724 125.472 225.642C124.628 225.561 123.775 225.67 122.986 225.959C122.355 226.269 121.8 226.697 121.355 227.216C120.91 227.734 120.584 228.333 120.398 228.974C120.036 230.232 119.97 231.548 120.204 232.833C120.482 234.999 121.413 237.048 122.889 238.741C123.628 239.584 124.544 240.277 125.581 240.778C126.619 241.278 127.755 241.575 128.92 241.65C130.054 241.742 131.194 241.541 132.215 241.071C133.235 240.6 134.098 239.878 134.709 238.982L134.822 239.374C135.591 242.346 137.245 245.055 139.594 247.189C141.943 249.322 144.891 250.793 148.098 251.433C151.041 252.005 154.308 252.548 157.622 253.03C159.239 253.256 160.857 253.467 162.474 253.648C165.483 253.985 168.516 253.235 170.951 251.554C173.387 249.872 175.04 247.386 175.572 244.605C177.787 232.682 178.531 218.935 173.728 207.254Z" fill="#9C5C5C"/>
<path d="M164.155 222.161H161.309C158.447 220.352 155.148 219.233 151.708 218.904C148.268 218.575 144.794 219.047 141.598 220.277V223.08L142.39 223.472C142.82 225.28 143.064 227.123 143.118 228.974C143.171 230.793 143.95 232.529 145.301 233.843C147.016 234.934 149.086 235.435 151.154 235.259C152.804 235.379 154.462 235.153 156.006 234.596C157.773 233.707 159.105 232.217 159.725 230.436C160.436 228.688 160.307 227.678 161.18 225.583C161.301 225.279 161.523 225.02 161.815 224.843C162.106 224.667 162.45 224.583 162.797 224.603C163.116 224.614 163.425 224.713 163.684 224.887C163.943 225.061 164.141 225.303 164.252 225.583C165.061 227.678 164.964 228.688 165.611 230.436C166.171 232.179 167.411 233.663 169.087 234.596C170.533 235.158 172.103 235.386 173.664 235.259C175.616 235.432 177.567 234.927 179.145 233.843C180.426 232.498 181.148 230.771 181.183 228.974C181.229 227.125 181.456 225.283 181.862 223.472L182.606 223.08V220.277C179.625 219.046 176.349 218.573 173.108 218.903C169.868 219.234 166.779 220.358 164.155 222.161ZM159.87 223.668L159.757 224.663C159.496 226.472 159.013 228.247 158.318 229.954C157.815 231.37 156.766 232.562 155.375 233.3C154.26 233.712 153.063 233.892 151.866 233.827H151.219C149.516 233.996 147.803 233.613 146.368 232.742C145.314 231.681 144.736 230.284 144.751 228.838C144.751 228.371 144.654 227.889 144.622 227.331C144.525 225.99 144.622 223.065 144.735 220.94C146.362 220.52 148.043 220.307 149.731 220.307C153.287 220.321 156.766 221.266 159.773 223.035C159.919 223.126 159.87 223.593 159.87 223.593V223.668ZM179.792 227.406C179.792 227.889 179.792 228.371 179.679 228.914C179.672 230.356 179.096 231.745 178.062 232.818C176.745 233.681 175.135 234.067 173.534 233.903H172.936C171.829 233.961 170.722 233.78 169.702 233.375C168.373 232.615 167.394 231.423 166.953 230.029C166.301 228.316 165.851 226.542 165.611 224.738L165.498 223.744C165.498 223.744 165.498 223.276 165.611 223.186C168.384 221.43 171.653 220.48 175.006 220.458C176.588 220.457 178.162 220.67 179.679 221.091C179.808 223.065 179.873 225.99 179.792 227.331V227.406Z" fill="#37474F"/>
<path d="M141.598 220.277L125.557 225.658C126.714 225.863 127.798 226.334 128.71 227.029C128.872 227.165 141.646 223.08 141.646 223.08L141.598 220.277Z" fill="#37474F"/>
<path d="M162.7 224.829L170.801 233.963L163.379 236.405L162.7 224.829Z" fill="#9C5C5C"/>
<path d="M162.7 224.829L170.801 233.963L163.379 236.405L162.7 224.829Z" fill="#803E3E"/>
<path d="M151.284 225.974C151.279 226.246 151.333 226.516 151.442 226.768C151.55 227.02 151.712 227.25 151.916 227.443C152.121 227.637 152.365 227.791 152.634 227.896C152.903 228 153.191 228.054 153.483 228.054C153.791 228.079 154.101 228.044 154.393 227.951C154.686 227.858 154.954 227.709 155.182 227.514C155.41 227.319 155.591 227.082 155.716 226.819C155.84 226.555 155.904 226.27 155.904 225.982C155.904 225.694 155.84 225.409 155.716 225.145C155.591 224.881 155.41 224.645 155.182 224.45C154.954 224.255 154.686 224.106 154.393 224.013C154.101 223.92 153.791 223.885 153.483 223.909C152.898 223.913 152.339 224.133 151.927 224.52C151.515 224.906 151.284 225.429 151.284 225.974Z" fill="#263238"/>
<path d="M169.944 225.341C169.94 225.614 169.994 225.884 170.102 226.137C170.21 226.39 170.371 226.621 170.576 226.816C170.78 227.01 171.024 227.166 171.293 227.272C171.562 227.379 171.851 227.434 172.143 227.436C172.734 227.436 173.301 227.22 173.721 226.833C174.142 226.447 174.383 225.922 174.391 225.371C174.344 224.852 174.089 224.369 173.677 224.016C173.265 223.664 172.727 223.468 172.168 223.468C171.609 223.468 171.07 223.664 170.658 224.016C170.247 224.369 169.992 224.852 169.944 225.371V225.341Z" fill="#263238"/>
<path d="M168.715 216.298L174.666 216.916C174.559 216.324 174.265 215.775 173.821 215.34C173.377 214.905 172.805 214.603 172.176 214.474C171.474 214.447 170.778 214.603 170.167 214.926C169.555 215.248 169.052 215.723 168.715 216.298Z" fill="#263238"/>
<path d="M155.779 216.705H149.78C149.964 216.128 150.329 215.617 150.827 215.235C151.326 214.854 151.935 214.62 152.577 214.564C153.271 214.611 153.937 214.835 154.502 215.213C155.067 215.591 155.509 216.107 155.779 216.705Z" fill="#263238"/>
<path d="M154.825 240.068L163.379 242.525C162.837 243.463 161.982 244.211 160.944 244.657C159.906 245.103 158.74 245.222 157.623 244.996C155.52 244.454 154.566 242.087 154.825 240.068Z" fill="#9C5C5C"/>
<path d="M154.825 240.068L163.379 242.525C162.837 243.463 161.982 244.211 160.944 244.657C159.906 245.103 158.74 245.222 157.623 244.996C155.52 244.454 154.566 242.087 154.825 240.068Z" fill="#5E2828"/>
<path d="M160.42 244.831C159.525 245.141 158.552 245.199 157.622 244.996C156.829 244.72 156.141 244.23 155.646 243.588C155.151 242.947 154.871 242.183 154.841 241.394C156.067 241.19 157.329 241.433 158.367 242.073C159.406 242.713 160.141 243.7 160.42 244.831Z" fill="#9C5C5C"/>
<path d="M160.42 244.831C159.525 245.141 158.552 245.199 157.622 244.996C156.829 244.72 156.141 244.23 155.646 243.588C155.151 242.947 154.871 242.183 154.841 241.394C156.067 241.19 157.329 241.433 158.367 242.073C159.406 242.713 160.141 243.7 160.42 244.831Z" fill="#803E3E"/>
<path d="M159.708 273.982C151.914 273.862 150.782 285.603 143.668 287.548L125.524 266.973L131.152 259.18C132.278 257.627 133.737 256.308 135.437 255.307V258.125C135.458 258.952 135.705 259.759 136.155 260.471C136.605 261.184 137.243 261.777 138.008 262.195L159.708 273.982Z" fill="#FAFAFA"/>
<path d="M159.708 273.982C164.026 272.731 170.494 277.765 170.494 277.765C168.23 266.099 161.374 255.337 159.708 255.337V273.982Z" fill="#FAFAFA"/>
<path d="M153.434 126.96C155.779 125.694 157.234 126.206 157.251 128.286C157.178 129.417 156.791 130.51 156.127 131.459C155.464 132.408 154.547 133.179 153.467 133.698L151.979 134.496V136.893L149.553 138.189V129.055L153.434 126.96ZM153.321 131.738C153.753 131.544 154.12 131.243 154.382 130.868C154.644 130.494 154.792 130.06 154.809 129.613C154.809 128.769 154.308 128.528 153.305 129.07L151.963 129.794V132.462L153.305 131.738" fill="white"/>
<path d="M164.446 127.367L166.306 129.251L163.719 130.638L162.102 129.04L160.792 129.748V132.175L158.366 133.486V124.337L162.247 122.182C164.576 120.931 166.031 121.443 166.047 123.523C166.044 124.945 165.473 126.315 164.446 127.367ZM162.183 127.035C162.615 126.837 162.981 126.533 163.243 126.156C163.505 125.779 163.653 125.344 163.67 124.895C163.67 124.051 163.169 123.825 162.166 124.352L160.824 125.076V127.759L162.166 127.035" fill="white"/>
<path d="M171.723 116.921C174.456 115.414 176.477 116.394 176.493 119.122C176.411 120.61 175.935 122.056 175.109 123.331C174.282 124.607 173.13 125.672 171.755 126.432C169.039 127.94 167.018 126.975 167.001 124.232C167.089 122.747 167.565 121.304 168.388 120.03C169.211 118.756 170.356 117.689 171.723 116.921ZM171.723 124.292C172.419 123.877 172.994 123.307 173.394 122.633C173.795 121.96 174.01 121.204 174.019 120.433C174.019 118.926 173.001 118.368 171.707 119.077C171.028 119.485 170.467 120.042 170.073 120.699C169.678 121.355 169.462 122.092 169.443 122.845C169.443 124.443 170.462 124.925 171.755 124.232" fill="white"/>
<path d="M184.433 110.274L184.449 112.264L180.164 114.57L180.18 116.575L183.948 114.555V116.56L180.18 118.579L180.196 121.715L177.771 123.011L177.755 113.877L184.433 110.274Z" fill="white"/>
<path d="M187.99 108.36L188.023 117.494L185.597 118.805L185.581 109.656L187.99 108.36Z" fill="white"/>
<path d="M192.114 106.144L192.146 113.228L196.205 111.043L196.221 113.093L189.737 116.575L189.704 107.44L192.114 106.144Z" fill="white"/>
<path d="M203.837 99.8286V101.833L199.536 104.139L199.552 105.677L203.336 103.642V105.571L199.552 107.606V109.279L204.015 106.898V108.887L197.175 112.58L197.143 103.431L203.837 99.8286Z" fill="white"/>
<path d="M212.925 94.9447C215.755 93.4374 217.679 94.1459 217.695 96.9495C217.63 98.419 217.157 99.8478 216.324 101.097C215.491 102.346 214.326 103.373 212.941 104.079L208.915 106.265V97.1303L212.925 94.9447ZM212.844 102.074C213.566 101.686 214.168 101.132 214.593 100.464C215.018 99.7957 215.251 99.0371 215.27 98.2608C215.27 96.7535 214.283 96.2862 212.828 97.07L211.308 97.884V102.888L212.828 102.074" fill="white"/>
<path d="M223.953 89.0061L227.753 96.1055L225.247 97.4621L224.568 96.0452L220.962 97.9896L220.299 100.13L217.841 101.456L221.576 90.2873L223.953 89.0061ZM221.673 95.7136L223.856 94.5379L222.757 92.2016L221.673 95.7136Z" fill="white"/>
<path d="M240.431 80.1431L244.231 87.2424L241.725 88.599L241.045 87.1822L237.439 89.1266L236.776 91.2669L234.319 92.5783L238.054 81.4243L240.431 80.1431ZM238.135 86.8355L240.334 85.6598L239.218 83.3235L238.135 86.8355Z" fill="white"/>
<path d="M234.82 83.1577L234.836 85.2076L232.233 86.6094L232.249 93.6937L229.839 94.99L229.807 87.9057L227.204 89.3075L227.187 87.2576L234.82 83.1577Z" fill="white"/>
<path d="M164.01 136.124V142.425L232.394 105.632V99.3462L164.01 136.124Z" fill="#BCE7FD"/>
<g opacity="0.6">
<path opacity="0.6" d="M164.01 136.124V142.425L232.394 105.632V99.3462L164.01 136.124Z" fill="white"/>
</g>
<path d="M181.102 138.189V144.475L220.881 122.95V116.665L181.102 138.189Z" fill="#BCE7FD"/>
<g opacity="0.6">
<path opacity="0.6" d="M181.102 138.189V144.475L220.881 122.95V116.665L181.102 138.189Z" fill="white"/>
</g>
<path d="M202.059 178.57V184.855L295.75 134.511V128.226L202.059 178.57Z" fill="#BCE7FD"/>
<path d="M202.059 189.347V195.632L274.922 156.503V150.218L202.059 189.347Z" fill="#BCE7FD"/>
<path d="M202.059 208.46V214.745L295.75 164.416V158.131L202.059 208.46Z" fill="#BCE7FD"/>
<path d="M202.059 219.252V225.537L295.75 175.254V168.968L202.059 219.252Z" fill="#BCE7FD"/>
<path d="M202.059 229.667V235.953L272.723 198.119V191.834L202.059 229.667Z" fill="#BCE7FD"/>
<path d="M202.059 142.455V153.217L270.443 116.439V105.677L202.059 142.455Z" fill="#BCE7FD"/>
<path d="M202.059 158.734V165.502L247.497 141.174V134.406L202.059 158.734Z" fill="#BCE7FD"/>
<g opacity="0.6">
<path opacity="0.6" d="M202.059 178.57V184.855L295.75 134.511V128.226L202.059 178.57Z" fill="white"/>
<path opacity="0.6" d="M202.059 189.347V195.632L274.922 156.503V150.218L202.059 189.347Z" fill="white"/>
<path opacity="0.6" d="M202.059 208.46V214.745L295.75 164.416V158.131L202.059 208.46Z" fill="white"/>
<path opacity="0.6" d="M202.059 219.252V225.537L295.75 175.254V168.968L202.059 219.252Z" fill="white"/>
<path opacity="0.6" d="M202.059 229.667V235.953L272.723 198.119V191.834L202.059 229.667Z" fill="white"/>
<path opacity="0.6" d="M202.059 142.455V153.217L270.443 116.439V105.677L202.059 142.455Z" fill="white"/>
<path opacity="0.6" d="M202.059 158.734V165.502L247.497 141.174V134.406L202.059 158.734Z" fill="white"/>
</g>
<path d="M208.494 242.63L210.613 246.082L215.335 244.273L211.939 249.684L212.747 254.282L208.527 254.176L204.306 258.834L205.099 253.362L201.671 251.629L206.392 248.358L208.494 242.63Z" fill="#BCE7FD"/>
<path d="M228.982 231.612L231.101 235.064L235.822 233.255L232.41 238.666L233.235 243.263L229.015 243.158L224.794 247.8L225.587 242.329L222.158 240.61L226.864 237.34L228.982 231.612Z" fill="#BCE7FD"/>
<path d="M249.454 220.578L251.588 224.03L256.294 222.221L252.898 227.632L253.723 232.23L249.503 232.124L245.266 236.782L246.074 231.31L242.63 229.577L247.352 226.306L249.454 220.578Z" fill="#BCE7FD"/>
<path d="M269.942 209.56L272.06 213.012L276.782 211.203L273.386 216.614L274.211 221.211L269.974 221.106L265.754 225.764L266.546 220.292L263.118 218.559L267.856 215.288L269.942 209.56Z" fill="#BCE7FD"/>
<path d="M290.43 198.542L292.548 201.993L297.27 200.184L293.874 205.596L294.699 210.178L290.462 210.087L286.242 214.73L287.034 209.258L283.606 207.54L288.328 204.254L290.43 198.542Z" fill="#BCE7FD"/>
<path d="M208.494 259.286L210.613 262.737L215.335 260.914L211.939 266.325L212.747 270.937L208.527 270.832L204.306 275.474L205.099 270.018L201.671 268.284L206.392 265.013L208.494 259.286Z" fill="#BCE7FD"/>
<path d="M228.982 248.252L231.101 251.704L235.822 249.895L232.41 255.306L233.235 259.919L229.015 259.798L224.794 264.456L225.587 258.984L222.158 257.251L226.864 253.98L228.982 248.252Z" fill="#BCE7FD"/>
<path d="M249.454 237.234L251.588 240.686L256.294 238.877L252.898 244.288L253.723 248.885L249.503 248.78L245.266 253.422L246.074 247.966L242.63 246.232L247.352 242.962L249.454 237.234Z" fill="#BCE7FD"/>
<path d="M269.942 226.216L272.06 229.667L276.782 227.859L273.386 233.27L274.211 237.852L269.974 237.761L265.754 242.404L266.546 236.932L263.118 235.199L267.856 231.928L269.942 226.216Z" fill="#BCE7FD"/>
<path d="M290.43 215.182L292.548 218.634L297.27 216.825L293.874 222.236L294.699 226.834L290.462 226.728L286.242 231.386L287.034 225.914L283.606 224.181L288.328 220.91L290.43 215.182Z" fill="#BCE7FD"/>
<path d="M208.494 275.926L210.613 279.378L215.335 277.569L211.939 282.98L212.747 287.578L208.527 287.472L204.306 292.13L205.099 286.658L201.671 284.925L206.392 281.654L208.494 275.926Z" fill="#BCE7FD"/>
<path d="M228.982 264.908L231.101 268.36L235.822 266.551L232.41 271.962L233.235 276.559L229.015 276.454L224.794 281.096L225.587 275.64L222.158 273.907L226.864 270.636L228.982 264.908Z" fill="#BCE7FD"/>
<path d="M249.454 253.89L251.588 257.341L256.294 255.533L252.898 260.944L253.723 265.526L249.503 265.436L245.266 270.078L246.074 264.607L242.63 262.873L247.352 259.617L249.454 253.89Z" fill="#BCE7FD"/>
<path d="M269.942 242.856L272.06 246.308L276.782 244.499L273.386 249.91L274.211 254.507L269.974 254.402L265.754 259.059L266.546 253.588L263.118 251.855L267.856 248.584L269.942 242.856Z" fill="#BCE7FD"/>
<path d="M290.43 231.838L292.548 235.29L297.27 233.481L293.874 238.892L294.699 243.489L290.462 243.384L286.242 248.041L287.034 242.57L283.606 240.836L288.328 237.551L290.43 231.838Z" fill="#BCE7FD"/>
<g opacity="0.8">
<path opacity="0.8" d="M208.494 242.63L210.613 246.082L215.335 244.273L211.939 249.684L212.747 254.281L208.527 254.176L204.306 258.833L205.099 253.362L201.671 251.628L206.392 248.358L208.494 242.63Z" fill="white"/>
<path opacity="0.8" d="M228.982 231.612L231.101 235.063L235.822 233.255L232.41 238.666L233.235 243.263L229.015 243.157L224.794 247.8L225.587 242.328L222.158 240.61L226.864 237.339L228.982 231.612Z" fill="white"/>
<path opacity="0.8" d="M249.454 220.578L251.588 224.03L256.294 222.221L252.898 227.632L253.723 232.23L249.503 232.124L245.266 236.782L246.074 231.31L242.63 229.577L247.352 226.306L249.454 220.578Z" fill="white"/>
</g>
<g opacity="0.8">
<path opacity="0.8" d="M208.494 259.286L210.613 262.737L215.335 260.914L211.939 266.325L212.747 270.937L208.527 270.832L204.306 275.474L205.099 270.018L201.671 268.284L206.392 265.013L208.494 259.286Z" fill="white"/>
<path opacity="0.8" d="M228.982 248.252L231.101 251.704L235.822 249.895L232.41 255.306L233.235 259.919L229.015 259.798L224.794 264.456L225.587 258.984L222.158 257.251L226.864 253.98L228.982 248.252Z" fill="white"/>
<path opacity="0.8" d="M249.454 237.234L251.588 240.686L256.294 238.877L252.898 244.288L253.723 248.885L249.503 248.78L245.266 253.422L246.074 247.966L242.63 246.232L247.352 242.962L249.454 237.234Z" fill="white"/>
<path opacity="0.8" d="M269.942 226.216L272.06 229.667L276.782 227.859L273.386 233.27L274.211 237.852L269.974 237.761L265.754 242.404L266.546 236.932L263.118 235.199L267.856 231.928L269.942 226.216Z" fill="white"/>
</g>
<g opacity="0.8">
<path opacity="0.8" d="M208.494 275.926L210.613 279.378L215.335 277.569L211.939 282.98L212.747 287.578L208.527 287.472L204.306 292.13L205.099 286.658L201.671 284.925L206.392 281.654L208.494 275.926Z" fill="white"/>
<path opacity="0.8" d="M228.982 264.908L231.101 268.36L235.822 266.551L232.41 271.962L233.235 276.559L229.015 276.454L224.794 281.096L225.587 275.64L222.158 273.907L226.864 270.636L228.982 264.908Z" fill="white"/>
<path opacity="0.8" d="M249.454 253.89L251.588 257.341L256.294 255.533L252.898 260.944L253.723 265.526L249.503 265.436L245.266 270.078L246.074 264.607L242.63 262.873L247.352 259.617L249.454 253.89Z" fill="white"/>
</g>
<path d="M122.355 345.579L98.1964 358.647V384.708L118.151 373.946L122.355 365.852V345.579Z" fill="#BCE7FD"/>
<path opacity="0.1" d="M122.355 345.579L98.1964 358.647V384.708L118.151 373.946L122.355 365.852V345.579Z" fill="black"/>
<path d="M118.151 373.946L122.355 365.852L118.151 368.113V373.946Z" fill="#BCE7FD"/>
<path opacity="0.3" d="M118.151 373.946L122.355 365.852L118.151 368.113V373.946Z" fill="black"/>
<path d="M127.287 342.956V348.458L193.23 313.006V307.504L127.287 342.956Z" fill="#BCE7FD"/>
<path d="M127.287 352.392V357.893L193.23 322.487V316.985L127.287 352.392Z" fill="#BCE7FD"/>
<path d="M127.287 361.496V366.997L173.098 342.489V336.987L127.287 361.496Z" fill="#BCE7FD"/>
<g opacity="0.6">
<path opacity="0.6" d="M127.287 342.956V348.458L193.23 313.006V307.504L127.287 342.956Z" fill="white"/>
<path opacity="0.6" d="M127.287 352.392V357.893L193.23 322.487V316.985L127.287 352.392Z" fill="white"/>
<path opacity="0.6" d="M127.287 361.496V366.997L173.098 342.489V336.987L127.287 361.496Z" fill="white"/>
</g>
<path d="M122.355 380.563L98.1964 393.616V419.692L118.151 408.915L122.355 400.821V380.563Z" fill="#BCE7FD"/>
<path opacity="0.1" d="M122.355 380.563L98.1964 393.616V419.692L118.151 408.915L122.355 400.821V380.563Z" fill="black"/>
<path d="M118.151 408.915L122.355 400.821L118.151 403.097V408.915Z" fill="#BCE7FD"/>
<path opacity="0.3" d="M118.151 408.915L122.355 400.821L118.151 403.097V408.915Z" fill="black"/>
<path d="M127.287 377.94V383.442L193.957 347.613V342.112L127.287 377.94Z" fill="#BCE7FD"/>
<path d="M127.287 387.376V392.863L193.957 357.094V351.593L127.287 387.376Z" fill="#BCE7FD"/>
<path d="M127.287 396.48V401.982L141.727 394.4V388.898L127.287 396.48Z" fill="#BCE7FD"/>
<g opacity="0.6">
<path opacity="0.6" d="M127.287 377.94V383.442L193.957 347.613V342.112L127.287 377.94Z" fill="white"/>
<path opacity="0.6" d="M127.287 387.376V392.862L193.957 357.094V351.593L127.287 387.376Z" fill="white"/>
<path opacity="0.6" d="M127.287 396.48V401.982L141.727 394.4V388.898L127.287 396.48Z" fill="white"/>
</g>
<path d="M122.355 415.547L98.1964 428.601V454.662L118.151 443.9L122.355 435.805V415.547Z" fill="#BCE7FD"/>
<path opacity="0.1" d="M122.355 415.547L98.1964 428.601V454.662L118.151 443.9L122.355 435.805V415.547Z" fill="black"/>
<path d="M118.151 443.9L122.355 435.806L118.151 438.067V443.9Z" fill="#BCE7FD"/>
<path opacity="0.3" d="M118.151 443.9L122.355 435.806L118.151 438.067V443.9Z" fill="black"/>
<path d="M127.287 412.925V418.411L194.588 381.995V376.493L127.287 412.925Z" fill="#BCE7FD"/>
<path d="M127.287 422.346V427.847L194.588 391.476V385.974L127.287 422.346Z" fill="#BCE7FD"/>
<path d="M127.287 431.45V436.951L194.588 400.655V395.154L127.287 431.45Z" fill="#BCE7FD"/>
<g opacity="0.6">
<path opacity="0.6" d="M127.287 412.925V418.411L194.588 381.995V376.493L127.287 412.925Z" fill="white"/>
<path opacity="0.6" d="M127.287 422.346V427.847L194.588 391.476V385.974L127.287 422.346Z" fill="white"/>
<path opacity="0.6" d="M127.287 431.45V436.951L194.588 400.655V395.154L127.287 431.45Z" fill="white"/>
</g>
<path d="M294.634 354.969L204.808 403.203C204.541 403.35 204.238 403.428 203.928 403.429C203.618 403.431 203.314 403.356 203.046 403.212C202.778 403.068 202.555 402.86 202.402 402.609C202.248 402.358 202.169 402.074 202.172 401.786V307.353C202.17 306.489 202.413 305.64 202.875 304.891C203.338 304.142 204.005 303.52 204.808 303.088L294.634 254.764C294.902 254.621 295.206 254.547 295.516 254.548C295.825 254.549 296.128 254.626 296.395 254.771C296.662 254.916 296.883 255.124 297.037 255.374C297.19 255.624 297.271 255.908 297.27 256.196V350.658C297.28 351.53 297.042 352.389 296.579 353.146C296.115 353.904 295.444 354.533 294.634 354.969Z" fill="#BCE7FD"/>
<path d="M234.044 295.401L209.885 308.469V334.53L229.856 323.768L234.044 315.674V295.401Z" fill="#BCE7FD"/>
<path opacity="0.3" d="M234.044 295.401L209.885 308.469V334.53L229.856 323.768L234.044 315.674V295.401Z" fill="black"/>
<path d="M229.856 323.768L234.044 315.674L229.856 317.935V323.768Z" fill="#BCE7FD"/>
<path opacity="0.5" d="M229.856 323.768L234.044 315.674L229.856 317.935V323.768Z" fill="black"/>
<path d="M239.752 295.958V299.621L292.014 271.51V267.847L239.752 295.958Z" fill="#BCE7FD"/>
<path d="M239.752 305.891L292.014 277.81V274.148L239.752 302.229V305.891Z" fill="#BCE7FD"/>
<path d="M239.752 312.358L292.014 284.247V280.599L239.752 308.71V312.358Z" fill="#BCE7FD"/>
<path d="M268.276 299.621L239.752 314.98V318.643L268.276 303.269V299.621Z" fill="#BCE7FD"/>
<path d="M209.885 343.815L292.014 299.802V296.154L209.885 340.152V343.815Z" fill="#BCE7FD"/>
<path d="M270.815 313.835L209.885 346.438V350.086L270.815 317.498V313.835Z" fill="#BCE7FD"/>
<path d="M209.885 373.434L292.014 329.42V325.773L209.885 369.771V373.434Z" fill="#BCE7FD"/>
<path d="M255.518 351.638L209.885 376.041V379.704L255.518 355.286V351.638Z" fill="#BCE7FD"/>
<path d="M209.885 386.17L292.014 342.172V338.509L209.885 382.522V386.17Z" fill="#BCE7FD"/>
<path d="M209.885 392.456L250.958 370.464V366.802L209.885 388.793V392.456Z" fill="#BCE7FD"/>
<path d="M256.617 367.419L269.489 360.531V356.868L256.617 363.772V367.419Z" fill="#BCE7FD"/>
<path d="M209.885 356.567L292.014 312.554V308.906L209.885 352.904V356.567Z" fill="#BCE7FD"/>
<path d="M238.539 343.83L209.885 359.174V362.837L238.539 347.493V343.83Z" fill="#BCE7FD"/>
<g opacity="0.3">
<path opacity="0.3" d="M239.752 295.958V299.621L292.014 271.51V267.847L239.752 295.958Z" fill="white"/>
<path opacity="0.3" d="M239.752 305.891L292.014 277.81V274.148L239.752 302.229V305.891Z" fill="white"/>
<path opacity="0.3" d="M239.752 312.358L292.014 284.247V280.599L239.752 308.71V312.358Z" fill="white"/>
<path opacity="0.3" d="M268.276 299.621L239.752 314.98V318.643L268.276 303.269V299.621Z" fill="white"/>
<path opacity="0.3" d="M209.885 343.815L292.014 299.802V296.154L209.885 340.152V343.815Z" fill="white"/>
<path opacity="0.3" d="M270.815 313.835L209.885 346.438V350.086L270.815 317.498V313.835Z" fill="white"/>
<path opacity="0.3" d="M209.885 373.434L292.014 329.42V325.773L209.885 369.771V373.434Z" fill="white"/>
<path opacity="0.3" d="M255.518 351.638L209.885 376.041V379.704L255.518 355.286V351.638Z" fill="white"/>
<path opacity="0.3" d="M209.885 386.17L292.014 342.172V338.509L209.885 382.522V386.17Z" fill="white"/>
<path opacity="0.3" d="M209.885 392.456L250.958 370.464V366.802L209.885 388.793V392.456Z" fill="white"/>
<path opacity="0.3" d="M256.617 367.419L269.489 360.531V356.868L256.617 363.772V367.419Z" fill="white"/>
<path opacity="0.3" d="M209.885 356.567L292.014 312.554V308.906L209.885 352.904V356.567Z" fill="white"/>
<path opacity="0.3" d="M238.539 343.83L209.885 359.175V362.837L238.539 347.493V343.83Z" fill="white"/>
</g>
<path d="M323.239 582.828C325.069 584.464 327.241 585.731 329.62 586.548C331.999 587.365 334.534 587.715 337.065 587.576C342.127 587.269 347.086 586.104 351.699 584.139C356.372 582.345 362.242 577.326 367.304 577.416C372.272 577.407 377.234 577.115 382.164 576.542C382.335 570.258 381.629 563.98 380.062 557.867L356.453 557.279C350.082 565.418 337.679 572.186 328.301 574.733C326.857 575.114 325.553 575.853 324.527 576.873C323.501 577.893 322.793 579.154 322.479 580.521C322.471 580.566 322.471 580.612 322.479 580.657C322.633 581.408 322.889 582.137 323.239 582.828Z" fill="#37474F"/>
<path d="M367.304 577.417C362.242 577.326 356.372 582.346 351.699 584.139C347.086 586.105 342.127 587.269 337.065 587.576C334.534 587.715 331.999 587.365 329.62 586.548C327.241 585.731 325.069 584.464 323.239 582.828C322.867 582.12 322.595 581.37 322.431 580.597C322.423 580.552 322.423 580.506 322.431 580.461C322.205 581.425 322.205 582.422 322.431 583.386C322.594 584.164 322.865 584.919 323.239 585.631C325.072 587.263 327.245 588.525 329.624 589.34C332.002 590.154 334.535 590.503 337.065 590.364C342.127 590.058 347.086 588.893 351.699 586.928C356.372 585.134 362.242 580.115 367.304 580.205C372.168 580.253 377.031 579.991 381.857 579.421C381.986 578.442 382.051 577.462 382.1 576.407C377.194 577.023 372.253 577.36 367.304 577.417Z" fill="#263238"/>
<path d="M440.038 595.097C440.061 597.502 439.806 599.902 439.278 602.257C438.477 606.451 435.976 610.196 432.292 612.717C428.887 614.523 425.036 615.473 421.119 615.476C417.681 615.819 414.205 615.485 410.915 614.496C408.427 613.667 406.316 612.072 404.932 609.974C404.932 609.974 404.932 610.065 404.932 610.095C405.411 611.643 406.287 613.06 407.485 614.223C408.682 615.387 410.164 616.261 411.804 616.772C415.1 617.761 418.582 618.095 422.024 617.752C425.937 617.752 429.783 616.801 433.182 614.993C436.874 612.481 439.387 608.741 440.2 604.548C440.728 602.194 440.982 599.793 440.96 597.388C440.975 595.744 441.348 594.12 442.057 592.615C442.765 591.109 443.795 589.754 445.083 588.631C445.714 588.083 446.313 587.504 446.878 586.897C447.276 586.473 447.579 585.977 447.768 585.441C447.957 584.905 448.028 584.339 447.978 583.777C447.978 583.345 447.929 582.908 447.832 582.466C446.894 583.491 444.711 585.902 444.161 586.385C442.879 587.503 441.853 588.851 441.144 590.348C440.436 591.845 440.059 593.461 440.038 595.097Z" fill="#263238"/>
<path d="M420.666 570.136C421.498 575.051 420.814 580.085 418.693 584.652C416.563 589.192 413.789 593.445 410.446 597.298C408.812 599.121 407.367 601.085 406.129 603.161C404.921 605.226 404.489 607.608 404.9 609.929C406.284 612.027 408.394 613.622 410.883 614.451C414.173 615.44 417.649 615.774 421.086 615.431C425.011 615.447 428.872 614.512 432.292 612.717C435.985 610.206 438.498 606.465 439.31 602.272C439.838 599.918 440.093 597.517 440.07 595.112C440.085 593.468 440.458 591.844 441.167 590.339C441.876 588.833 442.906 587.478 444.194 586.355C444.743 585.872 446.926 583.461 447.864 582.436C447.348 578.854 446.055 575.408 444.064 572.307L420.666 570.136Z" fill="#37474F"/>
<path d="M353.3 364.284C353.3 364.284 347.026 437.388 347.576 457.737C348.125 478.085 350.422 558.424 350.422 558.424C363.245 565.087 381.776 560.128 381.776 560.128C383.28 495.977 390.088 482.185 385.463 458.701C388.697 441.277 393.241 400.655 393.241 400.655C399.628 449.507 404.269 474.679 404.269 474.679L419.534 572.472C432.066 578.275 447.881 572.472 447.881 572.472C447.881 516.702 449.239 493.143 442.69 456.41C442.637 423.911 440.477 391.445 436.222 359.189L353.3 364.284Z" fill="#455A64"/>
<path opacity="0.2" d="M368.452 383.171C372.834 392.682 386.546 392.682 386.546 392.682L389.004 403.519L388.083 442.016C390.718 423.295 393.241 400.64 393.241 400.64L391.543 389.064C383.362 389.499 375.254 387.429 368.452 383.171Z" fill="black"/>
<path d="M374.225 250.966C352.799 250.966 349.29 258.728 343.873 271.601C338.456 284.473 334.268 307.459 334.268 307.459L354.982 303.299L363.067 259.813L374.225 250.966Z" fill="#455A64"/>
<path d="M354.982 300.149C349.565 299.804 344.141 300.721 339.199 302.817C337.241 303.546 335.504 304.71 334.138 306.208C333.474 306.969 333.042 307.884 332.888 308.855C332.735 309.825 332.865 310.817 333.265 311.725C331.292 315.101 331.47 320.12 331.874 324.25C331.915 325.048 332.101 325.833 332.424 326.572C332.593 326.934 332.846 327.257 333.165 327.517C333.484 327.778 333.86 327.97 334.268 328.079L354.982 310.715V300.149Z" fill="#37474F"/>
<path opacity="0.2" d="M347.883 304.429C340.525 303.887 335.205 307.836 332.812 309.856C332.818 310.502 332.973 311.139 333.265 311.725C334.963 309.328 342.191 304.972 347.883 304.429Z" fill="black"/>
<path opacity="0.2" d="M339.846 310.971C344.447 308.5 349.672 307.22 354.982 307.263V305.665C349.434 305.768 344.092 307.641 339.846 310.971Z" fill="black"/>
<path d="M433.602 252.232L423.544 251.237L374.225 250.92C356.938 250.92 354.723 270.741 353.737 288.286C352.75 305.831 355.92 341.117 351.635 364.691L372.219 377.081L377.992 371.278L387.209 379.282C418.499 379.282 436.933 363.093 439.278 360.305L433.602 252.232Z" fill="#BCE7FD"/>
<path opacity="0.2" d="M433.602 252.232L423.544 251.237L374.225 250.92C356.938 250.92 354.723 270.741 353.737 288.286C352.75 305.831 355.92 341.117 351.635 364.691L372.219 377.081L377.992 371.278L387.209 379.282C418.499 379.282 436.933 363.093 439.278 360.305L433.602 252.232Z" fill="white"/>
<path d="M382.277 256.995C377.669 270.681 380.563 289.763 382.277 298.34C393.969 283.372 404.916 268.345 408.328 262.466L392.028 255.095L382.277 256.995Z" fill="#455A64"/>
<path opacity="0.2" d="M380.725 299.395L375.421 306.027C373.969 307.844 373.253 310.081 373.4 312.343L376.957 367.495L370.845 312.765C370.67 311.226 370.898 309.671 371.509 308.232C372.12 306.794 373.096 305.515 374.354 304.505L380.725 299.395Z" fill="black"/>
<path d="M433.602 252.232L440.297 253.227C444.248 253.819 447.913 255.52 450.802 258.102C453.69 260.684 455.667 264.026 456.467 267.682C460.211 285.093 461.672 302.863 460.817 320.603L430.287 307.489C427.021 285.242 420.747 266.868 433.602 252.232Z" fill="#455A64"/>
<path d="M429.22 308.348C429.22 308.083 429.277 307.819 429.387 307.574C429.497 307.329 429.658 307.107 429.861 306.92C430.064 306.734 430.305 306.587 430.57 306.488C430.835 306.389 431.118 306.34 431.403 306.344C445.229 306.51 458.65 312.644 462.321 319.909C463.157 322.165 463.157 324.617 462.321 326.873C464.779 329.888 463.501 331.395 462.208 333.55C460.914 335.706 462.854 340.59 458.682 340.363L459.653 338.51C451.39 323.572 430.546 317.407 430.546 317.407L430.433 314.935C430.419 314.711 430.358 314.492 430.253 314.29C430.147 314.088 429.999 313.908 429.818 313.76C429.629 313.599 429.478 313.404 429.375 313.186C429.272 312.968 429.219 312.732 429.22 312.494V308.348Z" fill="#37474F"/>
<path opacity="0.2" d="M444.857 314.498C451.636 317.266 457.619 321.485 462.321 326.813C462.587 326.052 462.777 325.27 462.887 324.476C460.59 321.808 455.626 316.895 444.857 314.498Z" fill="black"/>
<path opacity="0.2" d="M429.301 312.961C429.4 313.254 429.578 313.519 429.818 313.729C429.999 313.877 430.147 314.058 430.253 314.26C430.358 314.461 430.419 314.681 430.433 314.905V315.101C440.097 316.492 449.034 320.715 455.95 327.159C449.562 318.523 435.526 314.091 429.301 312.961Z" fill="black"/>
<path d="M430.546 317.377L430.433 315.101C407.018 307.565 365.751 309.072 353.656 308.921C344.762 308.921 332.327 322.17 333.249 327.416C334.171 332.661 334.268 337.168 345.134 337.967C352.815 338.419 367.611 335.676 367.611 335.676C408.409 347.357 447.767 345.292 453.864 344.252C456.774 343.86 458.715 340.243 458.715 340.243L459.685 338.389C451.39 323.512 430.546 317.377 430.546 317.377Z" fill="#9C5C5C"/>
<path d="M446.037 328.199C445.416 326.304 444.436 324.527 443.143 322.954C439.179 320.664 434.954 318.793 430.546 317.377L430.433 315.101L428.913 314.634L429.22 317.452C422.558 317.874 383.506 332.767 367.611 335.736C370.732 336.625 373.82 337.424 376.893 338.163C394.68 332.42 419.13 321.115 430.433 319.487C438.308 321.371 442.35 323.316 446.037 328.199Z" fill="#803E3E"/>
<path d="M426.519 211.323C428.961 203.696 428.428 194.924 423.528 188.397C420.303 184.253 415.786 181.137 410.592 179.474C405.395 177.825 399.897 177.164 394.421 177.53C390.103 177.606 385.854 178.557 381.97 180.318C379.644 181.475 377.586 183.049 375.913 184.948C374.24 186.848 372.985 189.036 372.22 191.388C371.456 193.74 371.196 196.21 371.457 198.656C371.718 201.101 372.493 203.475 373.739 205.641C375.834 208.972 378.576 211.911 381.825 214.308C388.102 219.313 394.996 223.604 402.361 227.09C404.204 227.964 406.08 228.778 407.972 229.547C409.25 230.074 411.691 231.551 413.13 231.28C414.57 231.009 416.09 228.492 416.963 227.467C418.208 225.959 419.421 224.452 420.52 222.945C423.117 219.364 425.138 215.449 426.519 211.323Z" fill="#263238"/>
<path d="M389.085 269.596L385.075 268.707C383.133 273.492 381.513 278.385 380.224 283.358C380.646 288.413 381.353 293.444 382.342 298.431C384.638 295.491 386.902 292.567 389.085 289.688C388.36 283.008 388.36 276.276 389.085 269.596Z" fill="#BCE7FD"/>
<path opacity="0.2" d="M389.004 270.395C389.004 270.123 389.004 269.852 389.004 269.596L384.994 268.707C384.994 268.707 384.897 268.918 384.768 269.264C385.413 269.812 386.198 270.196 387.048 270.38C387.693 270.5 388.357 270.505 389.004 270.395Z" fill="black"/>
<path d="M391.252 259.783L394.486 257.884L401.86 261.622C399.342 263.437 396.327 264.555 393.16 264.848L391.252 259.783Z" fill="#BCE7FD"/>
<path d="M386.368 259.045L385.398 256.995L381.679 259.165C382.081 260.482 382.933 261.641 384.105 262.466L386.368 259.045Z" fill="#BCE7FD"/>
<path opacity="0.2" d="M391.252 259.783L394.486 257.884L401.86 261.622C399.342 263.437 396.327 264.555 393.16 264.848L391.252 259.783Z" fill="black"/>
<path opacity="0.2" d="M386.368 259.045L385.398 256.995L381.679 259.165C382.081 260.482 382.933 261.641 384.105 262.466L386.368 259.045Z" fill="black"/>
<path d="M393.095 264.848C392.779 263.078 392.156 261.367 391.252 259.783L386.401 259.044C385.507 260.11 384.747 261.268 384.137 262.496C384.028 264.605 384.357 266.714 385.107 268.706C386.346 269.305 387.723 269.61 389.117 269.596C390.943 268.439 392.334 266.779 393.095 264.848Z" fill="#BCE7FD"/>
<path d="M413.745 224.573V245.389C409.298 251.101 390.621 258.351 389.489 258.17C388.131 257.959 389.489 246.745 389.489 245.765V237.4C393.112 236.887 396.685 236.3 399.887 235.666C403.015 235.062 405.928 233.727 408.352 231.787C410.776 229.846 412.631 227.364 413.745 224.573Z" fill="#9C5C5C"/>
<path d="M397.672 240.535C395.018 241.176 392.314 241.624 389.586 241.876V237.354C393.209 236.842 396.782 236.254 399.984 235.621C402.904 235.052 405.636 233.843 407.956 232.095C410.275 230.347 412.116 228.109 413.324 225.567C412.731 229.073 411.044 232.339 408.473 234.958C405.476 237.688 401.744 239.614 397.672 240.535Z" fill="#803E3E"/>
<path d="M375.583 191.789C379.244 195.077 384.085 196.978 389.166 197.125C394.017 197.125 398.577 195.693 403.186 194.517C403.619 196.608 404.751 198.518 406.42 199.973C408.254 201.424 410.501 202.346 412.888 202.626C412.217 206.621 412.217 210.69 412.888 214.685C412.944 215.106 413.125 215.504 413.41 215.834C413.696 216.164 414.075 216.414 414.505 216.554C416.122 216.976 417.092 215.499 417.836 214.293C418.64 212.888 419.801 211.688 421.216 210.796C421.92 210.351 422.732 210.076 423.578 209.994C424.425 209.913 425.279 210.027 426.067 210.329C426.687 210.623 427.235 211.033 427.677 211.533C428.12 212.034 428.447 212.614 428.638 213.238C429.015 214.493 429.086 215.812 428.848 217.096C428.557 219.25 427.627 221.286 426.164 222.975C425.425 223.809 424.513 224.494 423.482 224.989C422.45 225.484 421.322 225.778 420.165 225.854C419.036 225.946 417.903 225.747 416.887 225.279C415.872 224.812 415.014 224.093 414.408 223.201L414.295 223.593C414.136 224.23 413.925 224.855 413.664 225.462C412.645 227.989 410.957 230.236 408.758 231.994C406.559 233.751 403.919 234.962 401.084 235.516C398.157 236.088 394.906 236.631 391.608 237.023C389.991 237.249 388.374 237.475 386.757 237.656C383.757 237.99 380.734 237.239 378.312 235.556C375.889 233.873 374.253 231.387 373.739 228.612C371.54 217.081 370.845 203.41 375.583 191.789Z" fill="#9C5C5C"/>
<path d="M366.77 204.752V207.525L367.498 207.917C367.904 209.717 368.131 211.549 368.177 213.388C368.225 215.179 368.946 216.897 370.214 218.242C371.782 219.322 373.724 219.821 375.664 219.644C377.212 219.774 378.772 219.551 380.208 218.996C381.88 218.069 383.115 216.589 383.668 214.851C384.331 213.117 384.218 212.107 385.026 210.012C385.129 209.729 385.325 209.483 385.586 209.31C385.847 209.136 386.161 209.045 386.482 209.047C386.826 209.026 387.169 209.108 387.46 209.282C387.751 209.455 387.975 209.711 388.099 210.012C388.956 212.107 388.843 213.117 389.538 214.851C390.162 216.621 391.486 218.103 393.241 218.996C394.785 219.549 396.443 219.77 398.092 219.644C400.149 219.826 402.209 219.33 403.913 218.242C405.259 216.932 406.032 215.201 406.08 213.388C406.134 211.547 406.378 209.715 406.808 207.917L407.6 207.525V204.752C404.424 203.524 400.971 203.051 397.55 203.374C394.129 203.698 390.848 204.808 388.002 206.606H385.156C382.541 204.809 379.461 203.69 376.231 203.365C373.001 203.039 369.737 203.518 366.77 204.752ZM389.409 207.48C392.409 205.725 395.876 204.785 399.418 204.767C401.096 204.768 402.766 204.981 404.382 205.4C404.512 207.51 404.592 210.434 404.495 211.761C404.495 212.243 404.495 212.725 404.382 213.192C404.38 214.626 403.803 216.008 402.765 217.066C401.328 217.933 399.617 218.316 397.914 218.152H397.267C396.081 218.216 394.894 218.036 393.791 217.624C392.396 216.897 391.346 215.708 390.848 214.293C390.16 212.596 389.682 210.831 389.425 209.032L389.312 208.038C389.312 208.038 389.328 207.57 389.489 207.48H389.409ZM369.567 205.4C371.079 204.981 372.648 204.768 374.225 204.767C377.559 204.791 380.811 205.735 383.571 207.48C383.733 207.57 383.684 208.038 383.684 208.038L383.587 209.032C383.345 210.826 382.895 212.59 382.245 214.293C381.803 215.682 380.824 216.869 379.496 217.624C378.477 218.034 377.369 218.214 376.262 218.152H375.696C374.101 218.306 372.5 217.921 371.184 217.066C370.16 216 369.585 214.624 369.567 213.192C369.567 212.725 369.567 212.243 369.454 211.761C369.454 210.434 369.535 207.51 369.648 205.4H369.567Z" fill="#37474F"/>
<path d="M407.552 204.752L423.512 210.103C422.363 210.296 421.288 210.763 420.391 211.459C420.213 211.595 407.552 207.525 407.552 207.525V204.752Z" fill="#37474F"/>
<path d="M386.546 209.273L378.494 218.362L385.883 220.789L386.546 209.273Z" fill="#9C5C5C"/>
<path d="M386.546 209.273L378.494 218.362L385.883 220.789L386.546 209.273Z" fill="#803E3E"/>
<path d="M397.914 210.404C397.917 210.813 397.79 211.214 397.549 211.555C397.307 211.897 396.962 212.164 396.558 212.323C396.153 212.481 395.707 212.524 395.277 212.446C394.846 212.368 394.45 212.173 394.138 211.885C393.827 211.596 393.614 211.228 393.527 210.828C393.44 210.427 393.483 210.011 393.651 209.632C393.818 209.254 394.102 208.931 394.466 208.703C394.831 208.476 395.26 208.354 395.699 208.354C395.989 208.352 396.277 208.404 396.545 208.506C396.814 208.608 397.058 208.759 397.264 208.949C397.47 209.14 397.634 209.366 397.745 209.616C397.857 209.866 397.914 210.134 397.914 210.404Z" fill="#263238"/>
<path d="M379.351 209.846C379.354 210.255 379.227 210.655 378.986 210.996C378.745 211.337 378.402 211.604 377.998 211.763C377.594 211.922 377.149 211.966 376.719 211.89C376.289 211.813 375.892 211.619 375.58 211.332C375.268 211.046 375.054 210.679 374.966 210.279C374.877 209.879 374.918 209.464 375.082 209.085C375.247 208.707 375.529 208.382 375.891 208.153C376.254 207.923 376.681 207.799 377.119 207.796C377.41 207.794 377.698 207.846 377.968 207.948C378.238 208.05 378.483 208.2 378.69 208.391C378.898 208.581 379.062 208.807 379.176 209.057C379.289 209.307 379.348 209.575 379.351 209.846Z" fill="#263238"/>
<path d="M380.547 200.697L374.629 201.33C374.736 200.738 375.03 200.19 375.474 199.755C375.917 199.32 376.49 199.018 377.119 198.888C377.815 198.86 378.505 199.015 379.111 199.335C379.717 199.655 380.215 200.127 380.547 200.697Z" fill="#263238"/>
<path d="M393.483 201.224H399.434C399.262 200.646 398.903 200.131 398.405 199.751C397.907 199.37 397.295 199.143 396.653 199.099C395.965 199.145 395.305 199.368 394.745 199.743C394.185 200.118 393.749 200.631 393.483 201.224Z" fill="#263238"/>
<path d="M394.389 224.437L385.883 226.849C386.422 227.782 387.272 228.526 388.305 228.969C389.338 229.412 390.497 229.53 391.608 229.306C393.694 228.808 394.648 226.442 394.389 224.437Z" fill="#9C5C5C"/>
<path d="M394.389 224.437L385.883 226.849C386.422 227.782 387.272 228.526 388.305 228.969C389.338 229.412 390.497 229.53 391.608 229.306C393.694 228.808 394.648 226.442 394.389 224.437Z" fill="#5E2828"/>
<path d="M388.826 229.185C389.718 229.488 390.685 229.54 391.608 229.336C392.397 229.059 393.081 228.571 393.573 227.932C394.065 227.294 394.344 226.534 394.373 225.748C393.258 225.6 392.123 225.796 391.139 226.306C389.989 226.942 389.157 227.978 388.826 229.185Z" fill="#9C5C5C"/>
<path d="M388.826 229.185C389.718 229.488 390.685 229.54 391.608 229.336C392.397 229.059 393.081 228.571 393.573 227.932C394.065 227.294 394.344 226.534 394.373 225.748C393.258 225.6 392.123 225.796 391.139 226.306C389.989 226.942 389.157 227.978 388.826 229.185Z" fill="#803E3E"/>
<path d="M389.538 258.17C397.283 258.05 402.021 263.808 409.104 265.707L423.544 251.177L417.949 243.429C416.827 241.886 415.374 240.577 413.68 239.585V242.389C413.663 243.21 413.418 244.013 412.971 244.721C412.523 245.429 411.888 246.017 411.125 246.429L389.538 258.17Z" fill="#37474F"/>
<path d="M389.538 258.17C385.237 256.934 378.801 261.954 378.801 261.954C381.048 250.332 387.856 245.765 389.522 245.765L389.538 258.17Z" fill="#37474F"/>
</svg>
